<svg id="svg11003" xmlns="http://www.w3.org/2000/svg" width="5.19693mm" height="133.84388mm" viewBox="0 0 14.73144 379.39999">
  <title>90hBlank-1</title>
  <path id="path33429" d="M.1.272H14.5v379.4H.1Z" transform="translate(-0.1 -0.27203)" style="fill: #dfdbda"/>
  <g>
    <path d="M8.47451,341.13184v1.17187H1.912a.20716.20716,0,0,0-.23437.23438v3.51562a.20716.20716,0,0,0,.23437.23438h6.5625V347.46H1.67764q-1.40625,0-1.40625-1.17187v-3.98438q0-1.17187,1.40625-1.17187Z" transform="translate(-0.1 -0.27203)" style="fill: #454955"/>
    <path d="M14.83144,341.13184v1.17187h-6.562a.38087.38087,0,0,0,0,.70313l4.92139,1.40625q1.64063.46875,1.64062,1.17187v.70313q0,1.17188-1.40625,1.17187H6.62881v-1.17187h6.562a.38087.38087,0,0,0,0-.70313l-4.92139-1.40625q-1.64062-.46875-1.64062-1.17187v-.70313q0-1.17187,1.40625-1.17187Z" transform="translate(-0.1 -0.27203)" style="fill: #fb9250"/>
  </g>
</svg>
