<svg id="svg11003" xmlns="http://www.w3.org/2000/svg" width="4.77008mm" height="2.23259mm" viewBox="0 0 13.52148 6.32861">
  <title>CSlogo</title>
  <g>
    <path d="M8.14.51157V1.68344H2.04629q-.21753,0-.21729.23438V5.43393q0,.23438.21729.23438H8.14V6.84018H1.829q-1.3059,0-1.30615-1.17187V1.68344Q.52285.51157,1.829.51157Z" transform="translate(-0.52285 -0.51157)" style="fill: #454955"/>
    <path d="M14.04434.51157V1.68344H7.94961a.39305.39305,0,0,0,0,.70313L12.5209,3.79282q1.52343.46875,1.52344,1.17236v.70313q0,1.17188-1.30665,1.17187H6.42617V5.66831H12.5209a.39346.39346,0,0,0,0-.70313L7.94961,3.55844Q6.42617,3.08969,6.42617,2.38657V1.68344q0-1.17187,1.30615-1.17187Z" transform="translate(-0.52285 -0.51157)" style="fill: #fb9250"/>
  </g>
</svg>
