<svg id="svg11003" xmlns="http://www.w3.org/2000/svg" width="101.6mm" height="133.84388mm" viewBox="0 0 288 379.39999">
  <title>DBug</title>
  <path id="path33429" d="M.1.272h288v379.4H.1Z" transform="translate(-0.1 -0.27203)" style="fill: #dfdbda"/>
  <g>
    <path d="M145.294,341.13184v1.17187h-6.66748a.20878.20878,0,0,0-.23828.23438v3.51562a.20878.20878,0,0,0,.23828.23438H145.294V347.46h-6.90576q-1.429,0-1.42871-1.17187v-3.98438q0-1.17187,1.42871-1.17187Z" transform="translate(-0.1 -0.27203)" style="fill: #454955"/>
    <path d="M151.75352,341.13184v1.17187h-6.668a.37849.37849,0,0,0,0,.70313l5,1.40625q1.667.46875,1.668,1.17187v.70313q0,1.17188-1.42969,1.17187h-6.90528v-1.17187h6.667a.37849.37849,0,0,0,0-.70313l-5-1.40625q-1.667-.46875-1.667-1.17187v-.70313q0-1.17187,1.42872-1.17187Z" transform="translate(-0.1 -0.27203)" style="fill: #fb9250"/>
  </g>
  <g>
    <path d="M122.39853,18.39941h7.92969q1.64063,0,1.64063,1.36719V24.415q0,1.36743-1.64063,1.36719h-7.92969V21.13379h1.64063V24.415h6.01562a.24162.24162,0,0,0,.27344-.27344V20.04a.24182.24182,0,0,0-.27344-.27344h-7.65625Z" transform="translate(-0.1 -0.27203)" style="fill: #3e4c66"/>
    <path d="M133.60947,18.39941h7.92969q1.64063,0,1.64062,1.36719v1.36719a.80319.80319,0,0,1-.41015.68359.8038.8038,0,0,1,.41015.6836V24.415q0,1.36743-1.64062,1.36719h-7.92969V21.13379h7.65625a.24162.24162,0,0,0,.27344-.27344V20.04a.24182.24182,0,0,0-.27344-.27344h-7.65625Zm7.65625,4.10157H135.2501V24.415h6.01562a.24162.24162,0,0,0,.27344-.27344V22.77441A.24182.24182,0,0,0,141.26572,22.501Z" transform="translate(-0.1 -0.27203)" style="fill: #3e4c66"/>
    <path d="M154.39023,18.39941V24.415q0,1.36743-1.64062,1.36719h-6.28906q-1.63991,0-1.64014-1.36719V18.39941h1.64014V24.1416a.24143.24143,0,0,0,.27343.27344h5.74219a.24143.24143,0,0,0,.27344-.27344V18.39941Z" transform="translate(-0.1 -0.27203)" style="fill: #3e4c66"/>
    <path d="M165.60117,18.39941V19.7666h-7.65625a.24162.24162,0,0,0-.27344.27344V24.1416a.24143.24143,0,0,0,.27344.27344h6.01563V22.501H160.816V21.13379h4.78515V24.415q0,1.36743-1.64062,1.36719h-6.28907q-1.64062,0-1.64062-1.36719V19.7666q0-1.36669,1.64062-1.36719Z" transform="translate(-0.1 -0.27203)" style="fill: #3e4c66"/>
  </g>
</svg>
