
<svg id="svg11003" xmlns="http://www.w3.org/2000/svg" width="10.16249mm" height="134.06mm" viewBox="0 0 28.80705 380.0126">
  <title>DIP</title>
  <path id="path33429" d="M0-.085H28.8v380.0126H0Z" transform="translate(0 0.08504)" style="fill: #dfdbda"/>
  <g id="OUT">
    <g id="g21">
      <path id="path36629" d="M27.15591,295.972a2.85839,2.85839,0,0,0-2.66674-3H4.31083a2.85418,2.85418,0,0,0-2.66674,3v36a2.85839,2.85839,0,0,0,2.66674,3H24.48917a2.85418,2.85418,0,0,0,2.66674-3Z" transform="translate(0 0.08504)" style="fill: #454955"/>
      <g id="g19">
        <path id="path13" d="M5.707,300.172a5.01969,5.01969,0,0,1,.2-1.2,1.93352,1.93352,0,0,1,.5-.9,2.40657,2.40657,0,0,1,.8-.6,3.72944,3.72944,0,0,1,1.2-.2,5.01889,5.01889,0,0,1,1.2.2,1.242,1.242,0,0,1,.8.6,4.05308,4.05308,0,0,1,.5.9,4.29746,4.29746,0,0,1,.2,1.2,5.01961,5.01961,0,0,1-.2,1.2,1.93351,1.93351,0,0,1-.5.9,2.40654,2.40654,0,0,1-.8.6,3.72941,3.72941,0,0,1-1.2.2,5.01891,5.01891,0,0,1-1.2-.2,1.24193,1.24193,0,0,1-.8-.6,4.05336,4.05336,0,0,1-.5-.9A4.29734,4.29734,0,0,1,5.707,300.172Zm1.1,0a2.76856,2.76856,0,0,0,.1.9,4.8769,4.8769,0,0,0,.3.7.99834.99834,0,0,0,.5.4,1.32494,1.32494,0,0,0,1.4,0,2.18155,2.18155,0,0,0,.5-.4,2.38967,2.38967,0,0,0,.3-.7,4.1,4.1,0,0,0,0-1.8,4.8764,4.8764,0,0,0-.3-.7c-.1-.2-.3-.3-.5-.5a.84369.84369,0,0,0-.7-.2,1.44521,1.44521,0,0,0-.7.2,1.205,1.205,0,0,0-.5.5,4.87605,4.87605,0,0,0-.3.7A2.7685,2.7685,0,0,0,6.807,300.172Z" transform="translate(0 0.08504)" style="fill: #fb9250"/>
        <path id="path15" d="M12.107,297.872v-.2a.34914.34914,0,0,0,.1-.2c0-.1.1-.1.2-.1h.4c.1,0,.1.1.2.1s.1.1.1.2v3.4a1.26834,1.26834,0,0,0,.1.6,1.38015,1.38015,0,0,0,.3.4.75814.75814,0,0,0,.4.2,4.33112,4.33112,0,0,0,.5.1.90142.90142,0,0,0,.5-.1c.2-.1.3-.1.4-.2a1.38107,1.38107,0,0,0,.3-.4,1.26834,1.26834,0,0,0,.1-.6v-3.4c0-.1.1-.1.1-.2a.34913.34913,0,0,1,.2-.1h.4c.1,0,.1.1.2.1a.34918.34918,0,0,1,.1.2v3.4a2.91986,2.91986,0,0,1-.2.9,1.02425,1.02425,0,0,1-.5.6,2.5064,2.5064,0,0,1-.7.4,2.76836,2.76836,0,0,1-.9.1,2.76833,2.76833,0,0,1-.9-.1,1.612,1.612,0,0,1-.7-.4,2.6513,2.6513,0,0,1-.5-.6,2.38829,2.38829,0,0,1-.2-.9Z" transform="translate(0 0.08504)" style="fill: #fb9250"/>
        <path id="path17" d="M17.607,298.172h-.2a.09794.09794,0,0,1-.1-.1l-.1-.1v-.2a.098.098,0,0,1,.1-.1l.1-.1h4.1l.1.1.1.1v.2a.098.098,0,0,1-.1.1l-.1.1h-1.5v4.5c0,.1-.1.1-.1.2a.34913.34913,0,0,1-.2.1h-.4c-.1,0-.1-.1-.2-.1a.34914.34914,0,0,1-.1-.2v-4.5Z" transform="translate(0 0.08504)" style="fill: #fb9250"/>
      </g>
    </g>
  </g>
  <g id="MAX">
    <g>
      <path d="M9.94551,283.27637a.44688.44688,0,0,1,.03955-.19336.39314.39314,0,0,1,.104-.13867.45749.45749,0,0,1,.147-.082.52668.52668,0,0,1,.335,0,.45749.45749,0,0,1,.147.082.393.393,0,0,1,.104.13867.44688.44688,0,0,1,.03955.19336v4.03613a.43505.43505,0,0,1-.03955.19141.39467.39467,0,0,1-.104.13672.45192.45192,0,0,1-.14893.082.52984.52984,0,0,1-.16894.02734.51675.51675,0,0,1-.16748-.02734.43346.43346,0,0,1-.145-.082.40333.40333,0,0,1-.10254-.13672.43505.43505,0,0,1-.03955-.19141Z" transform="translate(0 0.08504)" style="fill: #454955"/>
      <path d="M12.04756,283.38867a.62638.62638,0,0,1,.03955-.23047.49971.49971,0,0,1,.10742-.1709.46936.46936,0,0,1,.15527-.10644.49759.49759,0,0,1,.18653-.03613.56888.56888,0,0,1,.25781.06543.708.708,0,0,1,.23438.19824l2.38916,3.4414v-3.31835a.394.394,0,0,1,.03418-.16895.36526.36526,0,0,1,.09033-.12207.43433.43433,0,0,1,.12988-.07324.464.464,0,0,1,.14941-.02539.44344.44344,0,0,1,.14649.02441.35575.35575,0,0,1,.12793.07324.36093.36093,0,0,1,.09082.123.38689.38689,0,0,1,.03418.16895v3.98242a.60989.60989,0,0,1-.041.23047.50007.50007,0,0,1-.10937.16894.47983.47983,0,0,1-.15918.10645.4982.4982,0,0,1-.18946.03711.57636.57636,0,0,1-.25488-.06348.70588.70588,0,0,1-.2373-.2002l-2.37549-3.42382v3.30078a.37671.37671,0,0,1-.03565.168.396.396,0,0,1-.09277.12109.36826.36826,0,0,1-.12988.07422.48374.48374,0,0,1-.14844.02344.47.47,0,0,1-.147-.02344.39666.39666,0,0,1-.12842-.07227.37365.37365,0,0,1-.09033-.11914.39837.39837,0,0,1-.03418-.17187Z" transform="translate(0 0.08504)" style="fill: #454955"/>
    </g>
    <path id="rect23" d="M0,95.7H28.8v8.6H0Z" transform="translate(0 0.08504)" style="fill: #454955"/>
    <g>
      <path d="M13.05,97.59717a.49593.49593,0,0,1,.04492-.21875.4831.4831,0,0,1,.11914-.15821.49593.49593,0,0,1,.168-.0957.61064.61064,0,0,1,.19531-.03125.59573.59573,0,0,1,.19141.03125.51662.51662,0,0,1,.168.09375.45439.45439,0,0,1,.11914.1582.50928.50928,0,0,1,.04492.22071v4.59375a.50924.50924,0,0,1-.04492.2207.45421.45421,0,0,1-.11914.1582.51561.51561,0,0,1-.16992.09375.61167.61167,0,0,1-.19336.03125.59546.59546,0,0,1-.19141-.03125.51625.51625,0,0,1-.168-.09375.45421.45421,0,0,1-.11914-.1582.50924.50924,0,0,1-.04492-.2207v-1.98438h-2.5v1.98438a.50924.50924,0,0,1-.04492.2207.45433.45433,0,0,1-.11914.1582.51561.51561,0,0,1-.16992.09375.61167.61167,0,0,1-.19336.03125.59546.59546,0,0,1-.19141-.03125.51625.51625,0,0,1-.168-.09375.45421.45421,0,0,1-.11914-.1582.50924.50924,0,0,1-.04492-.2207V97.59717a.49593.49593,0,0,1,.04492-.21875.4831.4831,0,0,1,.11914-.15821.49549.49549,0,0,1,.16992-.0957.612.612,0,0,1,.19336-.03125.59573.59573,0,0,1,.19141.03125.51662.51662,0,0,1,.168.09375.45451.45451,0,0,1,.11914.1582.50928.50928,0,0,1,.04492.22071v1.78125h2.5Z" transform="translate(0 0.08504)" style="fill: #fb9250"/>
      <path d="M16.51094,100.43311v1.76953a.50924.50924,0,0,1-.04492.2207.45432.45432,0,0,1-.11915.1582.51541.51541,0,0,1-.16992.09375.61163.61163,0,0,1-.19336.03125.5954.5954,0,0,1-.1914-.03125.51615.51615,0,0,1-.168-.09375.45418.45418,0,0,1-.11914-.1582.50909.50909,0,0,1-.04492-.2207V97.605a.506.506,0,0,1,.041-.20117.51179.51179,0,0,1,.11328-.166.54813.54813,0,0,1,.168-.11133.51287.51287,0,0,1,.20508-.041h1.582a3.7545,3.7545,0,0,1,.834.08984,2.063,2.063,0,0,1,.69531.28907,1.46654,1.46654,0,0,1,.47461.51562,1.7886,1.7886,0,0,1-.00586,1.55859,1.47153,1.47153,0,0,1-.49219.51954,2.15687,2.15687,0,0,1-.72461.2871,4.206,4.206,0,0,1-.875.0879Zm.918-.71875a2.54132,2.54132,0,0,0,.502-.04688,1.13406,1.13406,0,0,0,.40234-.1582.78939.78939,0,0,0,.26758-.29688,1.12856,1.12856,0,0,0,.002-.91406.77267.77267,0,0,0-.26171-.291,1.121,1.121,0,0,0-.39063-.15625,2.35749,2.35749,0,0,0-.48242-.04687h-.957v1.91016Z" transform="translate(0 0.08504)" style="fill: #fb9250"/>
    </g>
  </g>
  <g id="GAIN">
    <path id="rect23-2" data-name="rect23" d="M.00705,28.372h28.8v8.6h-28.8Z" transform="translate(0 0.08504)" style="fill: #454955"/>
    <g>
      <path d="M10.72236,35.375a.50417.50417,0,0,1-.20117-.041.54792.54792,0,0,1-.168-.11132.54149.54149,0,0,1-.11523-.16407.48718.48718,0,0,1-.043-.20312V30.26953a.50924.50924,0,0,1,.04492-.2207.45421.45421,0,0,1,.11914-.1582.51625.51625,0,0,1,.168-.09375.61036.61036,0,0,1,.19531-.03125.59546.59546,0,0,1,.19141.03125.51625.51625,0,0,1,.168.09375.45421.45421,0,0,1,.11914.1582.50924.50924,0,0,1,.04492.2207v4.31641h2.25781a.39742.39742,0,0,1,.17188.03515.37182.37182,0,0,1,.123.08985.38066.38066,0,0,1,.07422.125.42406.42406,0,0,1,0,.28906.39986.39986,0,0,1-.07422.127.34078.34078,0,0,1-.123.08985.42.42,0,0,1-.17188.0332Z" transform="translate(0 0.08504)" style="fill: #fb9250"/>
      <path d="M15.82441,33.10547V34.875a.50212.50212,0,0,1-.04541.2207.45422.45422,0,0,1-.11914.15821.51577.51577,0,0,1-.16992.09375.612.612,0,0,1-.19336.03125.59567.59567,0,0,1-.1914-.03125.51652.51652,0,0,1-.168-.09375.45422.45422,0,0,1-.11914-.15821.50906.50906,0,0,1-.04493-.2207V30.27734a.50607.50607,0,0,1,.041-.20117.51159.51159,0,0,1,.11328-.166.54777.54777,0,0,1,.168-.11133.51271.51271,0,0,1,.20508-.041H16.883a3.75441,3.75441,0,0,1,.834.08985,2.06277,2.06277,0,0,1,.69531.28906,1.46653,1.46653,0,0,1,.47461.51562,1.78863,1.78863,0,0,1-.00586,1.5586,1.4713,1.4713,0,0,1-.49218.51953,2.15718,2.15718,0,0,1-.72461.28711,4.20672,4.20672,0,0,1-.875.08789Zm.918-.71875a2.54142,2.54142,0,0,0,.502-.04688,1.13406,1.13406,0,0,0,.40234-.1582.78944.78944,0,0,0,.26758-.29687,1.12869,1.12869,0,0,0,.002-.91407.77267.77267,0,0,0-.26172-.291,1.12063,1.12063,0,0,0-.39062-.15625,2.35757,2.35757,0,0,0-.48243-.04688h-.957v1.91016Z" transform="translate(0 0.08504)" style="fill: #fb9250"/>
    </g>
  </g>
  <g>
    <path d="M15.67451,341.13184v1.17187H9.112a.20716.20716,0,0,0-.23437.23438v3.51562a.20716.20716,0,0,0,.23437.23438h6.5625V347.46H8.87764q-1.40625,0-1.40625-1.17187v-3.98438q0-1.17187,1.40625-1.17187Z" transform="translate(0 0.08504)" style="fill: #454955"/>
    <path d="M22.03144,341.13184v1.17187h-6.562a.38087.38087,0,0,0,0,.70313l4.92139,1.40625q1.64063.46875,1.64062,1.17187v.70313q0,1.17188-1.40625,1.17187H13.82881v-1.17187h6.562a.38087.38087,0,0,0,0-.70313l-4.92139-1.40625q-1.64062-.46875-1.64062-1.17187v-.70313q0-1.17187,1.40625-1.17187Z" transform="translate(0 0.08504)" style="fill: #fb9250"/>
  </g>
  <g>
    <path d="M2.64228,17.58984H10.572q1.64063,0,1.64063,1.36719v4.64844q0,1.36743-1.64063,1.36719H2.64228V20.32422H4.28291v3.28125h6.01562A.24162.24162,0,0,0,10.572,23.332V19.23047a.24182.24182,0,0,0-.27344-.27344H2.64228Z" transform="translate(0 0.08504)" style="fill: #454955"/>
    <path d="M15.22041,17.58984v7.38282H13.57978V17.58984Z" transform="translate(0 0.08504)" style="fill: #454955"/>
    <path d="M16.58809,17.58984H24.5168q1.64063,0,1.64062,1.36719v1.36719q0,1.36743-1.64062,1.36719H18.22871v3.28125H16.58809V20.32422h7.65527a.241.241,0,0,0,.27344-.27344v-.82031a.24124.24124,0,0,0-.27344-.27344H16.58809Z" transform="translate(0 0.08504)" style="fill: #454955"/>
  </g>
</svg>
