<svg id="svg11003" xmlns="http://www.w3.org/2000/svg" width="15.27528mm" height="133.84388mm" viewBox="0 0 43.3 379.39999">
  <title>DIP</title>
  <path id="path33429" d="M.1.272H43.3v379.4H.1Z" transform="translate(0 -0.27203)" style="fill: #dfdbda"/>
  <g id="g21">
    <path id="path36629" d="M35.907,295.972a3.00853,3.00853,0,0,0-3-3h-22.7a3.00853,3.00853,0,0,0-3,3v36a3.00853,3.00853,0,0,0,3,3h22.7a3.00853,3.00853,0,0,0,3-3Z" transform="translate(0 -0.27203)" style="fill: #454955"/>
    <g id="g19">
      <path id="path13" d="M12.907,300.172a5.01969,5.01969,0,0,1,.2-1.2,1.93352,1.93352,0,0,1,.5-.9,2.40657,2.40657,0,0,1,.8-.6,3.72944,3.72944,0,0,1,1.2-.2,5.01889,5.01889,0,0,1,1.2.2,1.242,1.242,0,0,1,.8.6,4.05308,4.05308,0,0,1,.5.9,4.29746,4.29746,0,0,1,.2,1.2,5.01961,5.01961,0,0,1-.2,1.2,1.93351,1.93351,0,0,1-.5.9,2.40654,2.40654,0,0,1-.8.6,3.72941,3.72941,0,0,1-1.2.2,5.01891,5.01891,0,0,1-1.2-.2,1.24193,1.24193,0,0,1-.8-.6,4.05336,4.05336,0,0,1-.5-.9A4.29734,4.29734,0,0,1,12.907,300.172Zm1.1,0a2.76856,2.76856,0,0,0,.1.9,4.8769,4.8769,0,0,0,.3.7.99834.99834,0,0,0,.5.4,1.32494,1.32494,0,0,0,1.4,0,2.18155,2.18155,0,0,0,.5-.4,2.38967,2.38967,0,0,0,.3-.7,4.1,4.1,0,0,0,0-1.8,4.8764,4.8764,0,0,0-.3-.7c-.1-.2-.3-.3-.5-.5a.84369.84369,0,0,0-.7-.2,1.44521,1.44521,0,0,0-.7.2,1.205,1.205,0,0,0-.5.5,4.87605,4.87605,0,0,0-.3.7A2.7685,2.7685,0,0,0,14.007,300.172Z" transform="translate(0 -0.27203)" style="fill: #fb9250"/>
      <path id="path15" d="M19.307,297.872v-.2a.34914.34914,0,0,0,.1-.2c0-.1.1-.1.2-.1h.4c.1,0,.1.1.2.1s.1.1.1.2v3.4a1.26834,1.26834,0,0,0,.1.6,1.38033,1.38033,0,0,0,.3.4.75814.75814,0,0,0,.4.2,4.33112,4.33112,0,0,0,.5.1.90142.90142,0,0,0,.5-.1c.2-.1.3-.1.4-.2a1.38107,1.38107,0,0,0,.3-.4,1.26834,1.26834,0,0,0,.1-.6v-3.4c0-.1.1-.1.1-.2a.34913.34913,0,0,1,.2-.1h.4c.1,0,.1.1.2.1a.34918.34918,0,0,1,.1.2v3.4a2.91986,2.91986,0,0,1-.2.9,1.02421,1.02421,0,0,1-.5.6,2.5064,2.5064,0,0,1-.7.4,2.76833,2.76833,0,0,1-.9.1,2.76836,2.76836,0,0,1-.9-.1,1.612,1.612,0,0,1-.7-.4,2.65157,2.65157,0,0,1-.5-.6,2.38829,2.38829,0,0,1-.2-.9Z" transform="translate(0 -0.27203)" style="fill: #fb9250"/>
      <path id="path17" d="M24.807,298.172h-.2a.09794.09794,0,0,1-.1-.1l-.1-.1v-.2a.098.098,0,0,1,.1-.1l.1-.1h4.1l.1.1.1.1v.2a.098.098,0,0,1-.1.1l-.1.1h-1.5v4.5c0,.1-.1.1-.1.2a.34913.34913,0,0,1-.2.1h-.4c-.1,0-.1-.1-.2-.1a.34914.34914,0,0,1-.1-.2v-4.5Z" transform="translate(0 -0.27203)" style="fill: #fb9250"/>
    </g>
  </g>
  <g id="RES">
    <path id="rect23" d="M0,224.78671H43.2v8.6H0Z" transform="translate(0 -0.27203)" style="fill: #454955"/>
    <g>
      <path d="M10.05908,227.582a.59629.59629,0,0,0,.127.39063,1.07112,1.07112,0,0,0,.33789.26757,2.763,2.763,0,0,0,.48437.19532q.27393.085.5625.16992.3706.11425.69141.24609a2.25622,2.25622,0,0,1,.55468.32227,1.41226,1.41226,0,0,1,.36915.45117,1.36191,1.36191,0,0,1,.13476.62891,1.51025,1.51025,0,0,1-.16016.70117,1.5295,1.5295,0,0,1-.44921.52734,2.09017,2.09017,0,0,1-.69532.332,3.28617,3.28617,0,0,1-.90234.11524,3.80385,3.80385,0,0,1-.70508-.0625,3.14342,3.14342,0,0,1-.60937-.17383,2.23336,2.23336,0,0,1-.48243-.26172,1.263,1.263,0,0,1-.32421-.33008.28064.28064,0,0,1-.03125-.13281.37832.37832,0,0,1,.03125-.14453.585.585,0,0,1,.08007-.13477.47753.47753,0,0,1,.10938-.09961.22385.22385,0,0,1,.11914-.03906.257.257,0,0,1,.13477.043c.04589.0293.09082.05762.13476.08594a2.552,2.552,0,0,0,.28711.16211,2.52037,2.52037,0,0,0,.35547.14258,2.9421,2.9421,0,0,0,.418.10156,2.73124,2.73124,0,0,0,.47461.03906,2.17951,2.17951,0,0,0,.46484-.04687,1.19779,1.19779,0,0,0,.373-.14258.72268.72268,0,0,0,.248-.24024.63925.63925,0,0,0,.08985-.34375.66244.66244,0,0,0-.12891-.42187,1.0916,1.0916,0,0,0-.33984-.2793,2.52731,2.52731,0,0,0-.48047-.19531q-.26954-.07911-.55078-.16992c-.07031-.02344-.15332-.05176-.25-.08594-.09668-.0332-.19336-.07031-.291-.11133-.09765-.04-.19043-.082-.27734-.125a1.56982,1.56982,0,0,1-.21289-.123,1.23777,1.23777,0,0,1-.71485-1.20312,1.36588,1.36588,0,0,1,.16211-.66992,1.50618,1.50618,0,0,1,.44727-.5,2.12085,2.12085,0,0,1,.67187-.3125,3.37563,3.37563,0,0,1,1.91407.0664,2.20849,2.20849,0,0,1,.8164.52149.30886.30886,0,0,1,.07032.11523.4373.4373,0,0,1,.01953.13086.51956.51956,0,0,1-.01953.13672.395.395,0,0,1-.0625.12891.32244.32244,0,0,1-.11133.0957.3365.3365,0,0,1-.166.03711.39816.39816,0,0,1-.24609-.11719,2.6202,2.6202,0,0,0-.2461-.15039,2.08218,2.08218,0,0,0-.30859-.13476,2.67567,2.67567,0,0,0-.35937-.09571,2.14038,2.14038,0,0,0-.40235-.03711,2.09844,2.09844,0,0,0-.41211.041,1.35371,1.35371,0,0,0-.37109.1289.807.807,0,0,0-.26953.22657A.54173.54173,0,0,0,10.05908,227.582Z" transform="translate(0 -0.27203)" style="fill: #fb9250"/>
      <path d="M14.89893,231.78906a.50435.50435,0,0,1-.20118-.041.5482.5482,0,0,1-.168-.11133.5413.5413,0,0,1-.11524-.16406.48559.48559,0,0,1-.043-.20313v-4.58594a.51228.51228,0,0,1,.04492-.2207.46356.46356,0,0,1,.11914-.1582.53492.53492,0,0,1,.168-.09375.62424.62424,0,0,1,.19532-.03125.60911.60911,0,0,1,.1914.03125.53481.53481,0,0,1,.168.09375.4633.4633,0,0,1,.11914.1582.51228.51228,0,0,1,.04492.2207V231h2.25782a.3972.3972,0,0,1,.17187.03516.37865.37865,0,0,1,.12305.08984.3862.3862,0,0,1,.07422.125.43326.43326,0,0,1,.02539.14453.42894.42894,0,0,1-.02539.14453.3951.3951,0,0,1-.07422.127.32978.32978,0,0,1-.12305.08984.41207.41207,0,0,1-.17187.0332Z" transform="translate(0 -0.27203)" style="fill: #fb9250"/>
      <path d="M18.69971,228.98438a3.862,3.862,0,0,1,.17578-1.19727,2.59675,2.59675,0,0,1,.51758-.92773,2.31483,2.31483,0,0,1,.8457-.59961,3.27826,3.27826,0,0,1,2.32422,0,2.31667,2.31667,0,0,1,.84619.59961,2.57838,2.57838,0,0,1,.51562.92773,4.20332,4.20332,0,0,1,0,2.39258,2.57792,2.57792,0,0,1-.51562.92578,2.30547,2.30547,0,0,1-.84619.59961,3.27826,3.27826,0,0,1-2.32422,0,2.30364,2.30364,0,0,1-.8457-.59961,2.59635,2.59635,0,0,1-.51758-.92578A3.84044,3.84044,0,0,1,18.69971,228.98438Zm1.10547,0a3.812,3.812,0,0,0,.09179.86523,2.019,2.019,0,0,0,.28711.68359,1.38452,1.38452,0,0,0,.4961.44922,1.67442,1.67442,0,0,0,1.4375,0,1.38458,1.38458,0,0,0,.49609-.44922,2.04047,2.04047,0,0,0,.28906-.68359,3.75386,3.75386,0,0,0,.09375-.86523,3.80147,3.80147,0,0,0-.09179-.86133,2.05522,2.05522,0,0,0-.28711-.68555,1.39411,1.39411,0,0,0-.498-.45312,1.66494,1.66494,0,0,0-1.44141,0,1.38023,1.38023,0,0,0-.49609.45312,2.07336,2.07336,0,0,0-.28516.68555A3.80147,3.80147,0,0,0,19.80518,228.98438Z" transform="translate(0 -0.27203)" style="fill: #fb9250"/>
      <path d="M26.2666,229.51953v1.76953a.50627.50627,0,0,1-.04492.22071.44553.44553,0,0,1-.11914.1582.49887.49887,0,0,1-.16992.09375.59837.59837,0,0,1-.19336.03125.58262.58262,0,0,1-.19141-.03125.49921.49921,0,0,1-.168-.09375.44564.44564,0,0,1-.11914-.1582.50627.50627,0,0,1-.04492-.22071v-4.59765a.50765.50765,0,0,1,.041-.20118.51687.51687,0,0,1,.11328-.166.54777.54777,0,0,1,.168-.11133.51279.51279,0,0,1,.20507-.041h1.582a3.78365,3.78365,0,0,1,.834.08984,2.073,2.073,0,0,1,.69531.28906,1.46657,1.46657,0,0,1,.47461.51563,1.7886,1.7886,0,0,1-.00586,1.55859,1.46717,1.46717,0,0,1-.49219.51953,2.15691,2.15691,0,0,1-.7246.28711,4.20672,4.20672,0,0,1-.875.08789Zm.918-.71875a2.54127,2.54127,0,0,0,.502-.04687,1.134,1.134,0,0,0,.40235-.15821.78579.78579,0,0,0,.26758-.29687,1.12867,1.12867,0,0,0,.002-.91406.7763.7763,0,0,0-.26172-.291,1.1301,1.1301,0,0,0-.39063-.15625,2.35742,2.35742,0,0,0-.48242-.04687h-.957v1.91015Z" transform="translate(0 -0.27203)" style="fill: #fb9250"/>
      <path d="M30.93848,231.78906a.471.471,0,0,1-.19336-.041.54509.54509,0,0,1-.16211-.10938.52307.52307,0,0,1-.11328-.16015.45124.45124,0,0,1-.043-.19336v-4.60938a.51105.51105,0,0,1,.03711-.18945.49422.49422,0,0,1,.10547-.16211.52743.52743,0,0,1,.1582-.11133.46365.46365,0,0,1,.19531-.041H33.7666a.41175.41175,0,0,1,.16992.0332.35729.35729,0,0,1,.19336.21094.4394.4394,0,0,1,0,.2832.35559.35559,0,0,1-.07226.125.34587.34587,0,0,1-.1211.08789.39671.39671,0,0,1-.16992.0332H31.44629v1.582h2.17187a.42806.42806,0,0,1,.17188.03321.36076.36076,0,0,1,.123.08789.37489.37489,0,0,1,.07226.123.44073.44073,0,0,1,.02344.14258.41966.41966,0,0,1-.02539.14063.37591.37591,0,0,1-.07422.125.346.346,0,0,1-.12109.08789.39679.39679,0,0,1-.16993.0332H31.44629v1.71485h2.40625a.41175.41175,0,0,1,.16992.0332.35738.35738,0,0,1,.19336.21094.4394.4394,0,0,1,0,.2832.35547.35547,0,0,1-.07227.125.34583.34583,0,0,1-.12109.08789.39671.39671,0,0,1-.16992.0332Z" transform="translate(0 -0.27203)" style="fill: #fb9250"/>
    </g>
  </g>
  <g id="SLOPE">
    <path id="rect23-2" data-name="rect23" d="M0,162.3H43.2v8.6H0Z" transform="translate(0 -0.27203)" style="fill: #454955"/>
    <path d="M18.90088,166.49805a3.85973,3.85973,0,0,1,.17578-1.19727,2.59257,2.59257,0,0,1,.51758-.92773,2.30922,2.30922,0,0,1,.8457-.59961,2.95684,2.95684,0,0,1,1.16016-.21289,3.00786,3.00786,0,0,1,1.16211.209,2.2581,2.2581,0,0,1,.83935.5918,2.53284,2.53284,0,0,1,.50977.91992,3.9114,3.9114,0,0,1,.17187,1.19336,3.004,3.004,0,0,1-.0625.625,2.79538,2.79538,0,0,1-.45312,1.04687,2.71523,2.71523,0,0,1-.35547.41016h.71094a.39817.39817,0,0,1,.16406.03125.33992.33992,0,0,1,.11719.084.36064.36064,0,0,1,.07031.11718.39141.39141,0,0,1,.02344.13477.40875.40875,0,0,1-.02344.13672.3527.3527,0,0,1-.1875.20508.42249.42249,0,0,1-.16406.0371c-.0625.00245-.15137.00586-.26563.00977s-.24023.00732-.377.00977-.27637.00537-.41992.00781q-.2146.00366-.396.00586c-.12109.00146-.22266.00244-.30469.0039s-.13086.002-.14648.002c-.125.02881-.23535.05078-.33008.0664a1.7399,1.7399,0,0,1-.2832.02344,2.95684,2.95684,0,0,1-1.16016-.21289,2.30933,2.30933,0,0,1-.8457-.59961,2.59635,2.59635,0,0,1-.51758-.92578A3.84044,3.84044,0,0,1,18.90088,166.49805Zm1.10547,0a3.8151,3.8151,0,0,0,.09179.86523,2.0233,2.0233,0,0,0,.28711.6836,1.38915,1.38915,0,0,0,.4961.44921,1.67442,1.67442,0,0,0,1.4375,0,1.38912,1.38912,0,0,0,.49609-.44921,2.04443,2.04443,0,0,0,.28858-.6836,3.7569,3.7569,0,0,0,.09375-.86523,3.79536,3.79536,0,0,0-.0918-.86133,2.04591,2.04591,0,0,0-.28662-.68555,1.38967,1.38967,0,0,0-.49805-.45312,1.66494,1.66494,0,0,0-1.44141,0,1.376,1.376,0,0,0-.49609.45312,2.06464,2.06464,0,0,0-.28516.68555A3.79538,3.79538,0,0,0,20.00635,166.49805Z" transform="translate(0 -0.27203)" style="fill: #fb9250"/>
  </g>
  <g id="HP">
    <path id="rect23-3" data-name="rect23" d="M0,95.7H43.2v8.6H0Z" transform="translate(0 -0.27203)" style="fill: #454955"/>
    <g>
      <path d="M20.25049,97.59717a.49593.49593,0,0,1,.04492-.21875.4831.4831,0,0,1,.11914-.15821.49593.49593,0,0,1,.168-.0957.61064.61064,0,0,1,.19531-.03125.59573.59573,0,0,1,.19141.03125.51662.51662,0,0,1,.168.09375.45451.45451,0,0,1,.11914.1582.50928.50928,0,0,1,.04492.22071v4.59375a.50924.50924,0,0,1-.04492.2207.45433.45433,0,0,1-.11914.1582.51561.51561,0,0,1-.16992.09375.61167.61167,0,0,1-.19336.03125.59546.59546,0,0,1-.19141-.03125.51625.51625,0,0,1-.168-.09375.45421.45421,0,0,1-.11914-.1582.50924.50924,0,0,1-.04492-.2207v-1.98438h-2.5v1.98438a.50924.50924,0,0,1-.04492.2207.45433.45433,0,0,1-.11914.1582.51556.51556,0,0,1-.16993.09375.61163.61163,0,0,1-.19336.03125.5954.5954,0,0,1-.1914-.03125.51615.51615,0,0,1-.168-.09375.45409.45409,0,0,1-.11914-.1582.50924.50924,0,0,1-.04492-.2207V97.59717a.49593.49593,0,0,1,.04492-.21875.483.483,0,0,1,.11914-.15821.4953.4953,0,0,1,.16992-.0957.612.612,0,0,1,.19336-.03125.59573.59573,0,0,1,.19141.03125.51662.51662,0,0,1,.168.09375.45451.45451,0,0,1,.11914.1582.50928.50928,0,0,1,.04492.22071v1.78125h2.5Z" transform="translate(0 -0.27203)" style="fill: #fb9250"/>
      <path d="M23.71094,100.43311v1.76953a.50924.50924,0,0,1-.04492.2207.45442.45442,0,0,1-.11914.1582.51556.51556,0,0,1-.16993.09375.61163.61163,0,0,1-.19336.03125.59028.59028,0,0,1-.19091-.03125.51615.51615,0,0,1-.168-.09375.45418.45418,0,0,1-.11914-.1582.50909.50909,0,0,1-.04493-.2207V97.605a.506.506,0,0,1,.041-.20117.51163.51163,0,0,1,.11328-.166.54813.54813,0,0,1,.168-.11133.50881.50881,0,0,1,.20459-.041h1.582a3.7545,3.7545,0,0,1,.834.08984,2.063,2.063,0,0,1,.69531.28907,1.46654,1.46654,0,0,1,.47461.51562,1.7886,1.7886,0,0,1-.00586,1.55859,1.47153,1.47153,0,0,1-.49219.51954,2.15687,2.15687,0,0,1-.72461.2871,4.206,4.206,0,0,1-.875.0879Zm.918-.71875a2.54132,2.54132,0,0,0,.50195-.04688,1.13406,1.13406,0,0,0,.40234-.1582.78939.78939,0,0,0,.26758-.29688,1.12856,1.12856,0,0,0,.002-.91406.77267.77267,0,0,0-.26171-.291,1.121,1.121,0,0,0-.39063-.15625,2.35749,2.35749,0,0,0-.48242-.04687h-.957v1.91016Z" transform="translate(0 -0.27203)" style="fill: #fb9250"/>
    </g>
  </g>
  <g id="LP">
    <path id="rect23-4" data-name="rect23" d="M.00705,28.372h43.2v8.6h-43.2Z" transform="translate(0 -0.27203)" style="fill: #454955"/>
    <g>
      <path d="M17.92236,35.375a.50417.50417,0,0,1-.20117-.041.54792.54792,0,0,1-.168-.11132.54149.54149,0,0,1-.11523-.16407.48718.48718,0,0,1-.043-.20312V30.26953a.50924.50924,0,0,1,.04492-.2207.45421.45421,0,0,1,.11914-.1582.51625.51625,0,0,1,.168-.09375.61036.61036,0,0,1,.19531-.03125.59546.59546,0,0,1,.19141.03125.51625.51625,0,0,1,.168.09375.45421.45421,0,0,1,.11914.1582.50924.50924,0,0,1,.04492.2207v4.31641h2.25781a.39742.39742,0,0,1,.17188.03515.372.372,0,0,1,.123.08985.38081.38081,0,0,1,.07421.125.42406.42406,0,0,1,0,.28906.4.4,0,0,1-.07421.127.3409.3409,0,0,1-.123.08985.42.42,0,0,1-.17188.0332Z" transform="translate(0 -0.27203)" style="fill: #fb9250"/>
      <path d="M23.02441,33.10547V34.875a.50212.50212,0,0,1-.04541.2207.45422.45422,0,0,1-.11914.15821.51577.51577,0,0,1-.16992.09375.612.612,0,0,1-.19336.03125.59567.59567,0,0,1-.1914-.03125.51652.51652,0,0,1-.168-.09375.45422.45422,0,0,1-.11914-.15821.50906.50906,0,0,1-.04493-.2207V30.27734a.50607.50607,0,0,1,.041-.20117.51159.51159,0,0,1,.11328-.166.54777.54777,0,0,1,.168-.11133.51271.51271,0,0,1,.20508-.041H24.083a3.75441,3.75441,0,0,1,.834.08985,2.06277,2.06277,0,0,1,.69531.28906,1.46653,1.46653,0,0,1,.47461.51562,1.78854,1.78854,0,0,1-.00586,1.5586,1.4713,1.4713,0,0,1-.49218.51953,2.15709,2.15709,0,0,1-.72461.28711,4.20665,4.20665,0,0,1-.875.08789Zm.918-.71875a2.54142,2.54142,0,0,0,.502-.04688,1.13406,1.13406,0,0,0,.40234-.1582.78944.78944,0,0,0,.26758-.29687,1.12869,1.12869,0,0,0,.00195-.91407.77267.77267,0,0,0-.26172-.291,1.12063,1.12063,0,0,0-.39062-.15625,2.35754,2.35754,0,0,0-.48242-.04688h-.957v1.91016Z" transform="translate(0 -0.27203)" style="fill: #fb9250"/>
    </g>
  </g>
  <g>
    <path d="M10.89209,17.3374h7.92969q1.64063,0,1.64062,1.36719V23.353q0,1.36743-1.64062,1.36718H10.89209V20.07178h1.64062V23.353h6.01563a.24162.24162,0,0,0,.27344-.27344V18.978a.24182.24182,0,0,0-.27344-.27344H10.89209Z" transform="translate(0 -0.27203)" style="fill: #454955"/>
    <path d="M22.77,17.3374v7.38281H21.12939V17.3374Z" transform="translate(0 -0.27203)" style="fill: #454955"/>
    <path d="M23.4375,17.3374h7.92969q1.64063,0,1.64062,1.36719v1.36719q0,1.36743-1.64062,1.36718H25.07813v3.28125H23.4375V20.07178h7.65625a.24143.24143,0,0,0,.27344-.27344V18.978a.24162.24162,0,0,0-.27344-.27344H23.4375Z" transform="translate(0 -0.27203)" style="fill: #454955"/>
  </g>
  <g>
    <path d="M22.87451,341.13184v1.17187H16.312a.20716.20716,0,0,0-.23437.23438v3.51562a.20716.20716,0,0,0,.23437.23438h6.5625V347.46H16.07764q-1.40625,0-1.40625-1.17187v-3.98438q0-1.17187,1.40625-1.17187Z" transform="translate(0 -0.27203)" style="fill: #454955"/>
    <path d="M29.23145,341.13184v1.17187h-6.562a.38087.38087,0,0,0,0,.70313l4.92139,1.40625q1.64063.46875,1.64063,1.17187v.70313q0,1.17188-1.40625,1.17187H21.02881v-1.17187h6.562a.38086.38086,0,0,0,0-.70313l-4.92139-1.40625q-1.64062-.46875-1.64062-1.17187v-.70313q0-1.17187,1.40625-1.17187Z" transform="translate(0 -0.27203)" style="fill: #fb9250"/>
  </g>
  <g>
    <path d="M17.92969,284.582a.51625.51625,0,0,1,.04492-.2207.4633.4633,0,0,1,.11914-.1582.49423.49423,0,0,1,.168-.09375.6018.6018,0,0,1,.38281,0,.49423.49423,0,0,1,.168.09375.4633.4633,0,0,1,.11914.1582.51625.51625,0,0,1,.04492.2207v4.61328a.50425.50425,0,0,1-.04492.21875.46516.46516,0,0,1-.11914.15625.4899.4899,0,0,1-.16992.09375.63059.63059,0,0,1-.19336.03125.61147.61147,0,0,1-.19141-.03125.47038.47038,0,0,1-.2832-.25.50425.50425,0,0,1-.04492-.21875Z" transform="translate(0 -0.27203)" style="fill: #454955"/>
    <path d="M19.93213,284.71094a.728.728,0,0,1,.04492-.26367.56952.56952,0,0,1,.12305-.19532.52346.52346,0,0,1,.17773-.12109.5531.5531,0,0,1,.21289-.041.64234.64234,0,0,1,.29492.07422.81858.81858,0,0,1,.26758.22657l2.731,3.93359v-3.793a.447.447,0,0,1,.03906-.19336.392.392,0,0,1,.10352-.13867.46174.46174,0,0,1,.14844-.084.50982.50982,0,0,1,.16992-.02929.52188.52188,0,0,1,.168.02734.42169.42169,0,0,1,.14648.084.43152.43152,0,0,1,.10352.14062.4616.4616,0,0,1,.03906.19336V289.082a.69755.69755,0,0,1-.04688.26367.57508.57508,0,0,1-.125.19336.56345.56345,0,0,1-.39843.16407.65674.65674,0,0,1-.291-.07227.803.803,0,0,1-.27148-.22852L20.854,285.48828v3.77344a.422.422,0,0,1-.041.19141.45426.45426,0,0,1-.10547.13867.41717.41717,0,0,1-.14844.084.53772.53772,0,0,1-.16992.02735.51946.51946,0,0,1-.168-.02735.44993.44993,0,0,1-.14648-.082.39933.39933,0,0,1-.10352-.13672.45393.45393,0,0,1-.03906-.19531Z" transform="translate(0 -0.27203)" style="fill: #454955"/>
  </g>
</svg>
