<svg id="svg11003" xmlns="http://www.w3.org/2000/svg" width="10.16mm" height="134.06mm" viewBox="0 0 28.8 380.0126">
  <title>IMO</title>
  <path id="path33429" d="M0-.085H28.8v380.0126H0Z" transform="translate(0 0.08504)" style="fill: #dfdbda"/>
  <g id="MAX">
    <path id="rect23" d="M0,189.10158H28.8v8.6H0Z" transform="translate(0 0.08504)" style="fill: #454955"/>
    <g>
      <path d="M5.41963,190.9873a.47959.47959,0,0,1,.03906-.19531.50236.50236,0,0,1,.46484-.30469l1.97266.00391a2.09413,2.09413,0,0,1,.67774.10547,1.67735,1.67735,0,0,1,.53515.291,1.30529,1.30529,0,0,1,.34961.44335,1.2844,1.2844,0,0,1,.125.56641,1.21319,1.21319,0,0,1-.08008.43945,1.28262,1.28262,0,0,1-.22461.377,1.43575,1.43575,0,0,1-.34179.28711,1.34,1.34,0,0,1-.43555.166v.01563a1.77568,1.77568,0,0,1,.53125.16015,1.38187,1.38187,0,0,1,.40625.29688,1.28133,1.28133,0,0,1,.25977.41406,1.39568,1.39568,0,0,1,.09179.51563,1.60556,1.60556,0,0,1-.10156.55664,1.3084,1.3084,0,0,1-.32617.49218,1.68321,1.68321,0,0,1-.57813.35157,2.41267,2.41267,0,0,1-.85742.13476H5.92353a.51136.51136,0,0,1-.19726-.03906.531.531,0,0,1-.16016-.10547.49353.49353,0,0,1-.10742-.1582.48537.48537,0,0,1-.03906-.19336Zm1.00781.19532v1.73828h.96875a1.9881,1.9881,0,0,0,.44531-.04883,1.08686,1.08686,0,0,0,.36719-.15625.79952.79952,0,0,0,.248-.27539.8352.8352,0,0,0,.09179-.40625.81267.81267,0,0,0-.09765-.42188.72771.72771,0,0,0-.25977-.25976,1.085,1.085,0,0,0-.373-.13281,2.48508,2.48508,0,0,0-.44141-.03711Zm0,4.23047h.98438a3.30283,3.30283,0,0,0,.57226-.04493,1.16147,1.16147,0,0,0,.418-.15429.69444.69444,0,0,0,.25586-.29492,1.09752,1.09752,0,0,0,.08594-.4629.88915.88915,0,0,0-.11328-.4746.762.762,0,0,0-.31836-.28321,1.53088,1.53088,0,0,0-.49219-.13867,4.82242,4.82242,0,0,0-.63086-.03711H6.42744Z" transform="translate(0 0.08504)" style="fill: #fb9250"/>
      <path d="M13.25166,190.62793a.32461.32461,0,0,1,.0293-.14258.31382.31382,0,0,1,.07617-.10156.32979.32979,0,0,1,.10547-.0625.3519.3519,0,0,1,.24218,0,.32979.32979,0,0,1,.10547.0625.29571.29571,0,0,1,.07422.10156.3392.3392,0,0,1,.02735.14258v6.53516a.33809.33809,0,0,1-.0293.14453.317.317,0,0,1-.07617.10351.33888.33888,0,0,1-.10547.0625.35193.35193,0,0,1-.24219,0,.33888.33888,0,0,1-.10547-.0625.29913.29913,0,0,1-.07422-.10351.35349.35349,0,0,1-.02734-.14453Z" transform="translate(0 0.08504)" style="fill: #fb9250"/>
      <path d="M15.029,190.62793a.32461.32461,0,0,1,.0293-.14258.31382.31382,0,0,1,.07617-.10156.3299.3299,0,0,1,.10547-.0625.35193.35193,0,0,1,.24219,0,.3299.3299,0,0,1,.10547.0625.29584.29584,0,0,1,.07422.10156.33936.33936,0,0,1,.02734.14258v6.53516a.33809.33809,0,0,1-.0293.14453.317.317,0,0,1-.07617.10351.33888.33888,0,0,1-.10547.0625.35193.35193,0,0,1-.24219,0,.33883.33883,0,0,1-.10546-.0625.299.299,0,0,1-.07422-.10351.35332.35332,0,0,1-.02735-.14453Z" transform="translate(0 0.08504)" style="fill: #fb9250"/>
      <path d="M23.81074,195.49121a.458.458,0,0,1,.02735.15625.39332.39332,0,0,1-.04493.18945.45355.45355,0,0,1-.11914.14258.567.567,0,0,1-.168.08985.6094.6094,0,0,1-.1914.03125.50562.50562,0,0,1-.27149-.08008.39536.39536,0,0,1-.16992-.252l-.40625-1.043h-2.5039l-.40235,1.043a.41184.41184,0,0,1-.16992.25391.48591.48591,0,0,1-.26367.07813.59932.59932,0,0,1-.1875-.03125.53374.53374,0,0,1-.166-.08985.47974.47974,0,0,1-.11719-.14062.37325.37325,0,0,1-.04492-.1836.56336.56336,0,0,1,.00586-.08007.31715.31715,0,0,1,.02539-.084l1.64063-4.10156a2.92323,2.92323,0,0,1,.19531-.44727,1.07034,1.07034,0,0,1,.209-.27343.63335.63335,0,0,1,.24219-.13868,1.021,1.021,0,0,1,.291-.03906,1.00518,1.00518,0,0,1,.29687.041.63626.63626,0,0,1,.24414.14257,1.1101,1.1101,0,0,1,.209.2754,2.7539,2.7539,0,0,1,.1914.43945ZM21.20918,191.292l-1.03125,2.77735h2.07422L21.2248,191.292Z" transform="translate(0 0.08504)" style="fill: #fb9250"/>
    </g>
  </g>
  <g id="GAIN">
    <path id="rect23-2" data-name="rect23" d="M0,28.372H28.8v8.6H0Z" transform="translate(0 0.08504)" style="fill: #454955"/>
    <path d="M16.968,34.76172a.46229.46229,0,0,1,.02734.15625.39207.39207,0,0,1-.04492.18945.44841.44841,0,0,1-.11914.14258.55585.55585,0,0,1-.168.08984.59546.59546,0,0,1-.19141.03125.50138.50138,0,0,1-.27148-.08007.39286.39286,0,0,1-.16992-.252l-.40576-1.043H13.1208l-.40234,1.043a.41046.41046,0,0,1-.16993.25391.48188.48188,0,0,1-.26367.07812.58523.58523,0,0,1-.1875-.03125.52358.52358,0,0,1-.166-.08984.47958.47958,0,0,1-.11719-.14062.372.372,0,0,1-.04492-.1836.56725.56725,0,0,1,.00586-.08008.32194.32194,0,0,1,.02539-.084l1.64062-4.10156a2.96647,2.96647,0,0,1,.19532-.44727,1.07036,1.07036,0,0,1,.209-.27344.63338.63338,0,0,1,.24219-.13867,1.021,1.021,0,0,1,.291-.03906,1.00559,1.00559,0,0,1,.29688.041.63642.63642,0,0,1,.24414.14258,1.11,1.11,0,0,1,.209.27539,2.79448,2.79448,0,0,1,.19141.43946ZM14.36689,30.5625l-1.03125,2.77734h2.07422L14.38252,30.5625Z" transform="translate(0 0.08504)" style="fill: #fb9250"/>
  </g>
  <g>
    <path d="M15.67451,341.13184v1.17187H9.112a.20716.20716,0,0,0-.23437.23438v3.51562a.20716.20716,0,0,0,.23437.23438h6.5625V347.46H8.87764q-1.40625,0-1.40625-1.17187v-3.98438q0-1.17187,1.40625-1.17187Z" transform="translate(0 0.08504)" style="fill: #454955"/>
    <path d="M22.03144,341.13184v1.17187h-6.562a.38087.38087,0,0,0,0,.70313l4.92139,1.40625q1.64063.46875,1.64062,1.17187v.70313q0,1.17188-1.40625,1.17187H13.82881v-1.17187h6.562a.38087.38087,0,0,0,0-.70313l-4.92139-1.40625q-1.64062-.46875-1.64062-1.17187v-.70313q0-1.17187,1.40625-1.17187Z" transform="translate(0 0.08504)" style="fill: #fb9250"/>
  </g>
  <g>
    <path d="M5.69062,17.25586V23.584H4.28437V17.25586Z" transform="translate(0 0.08504)" style="fill: #454955"/>
    <path d="M11.653,23.584H10.48115L7.43428,18.42773V23.584H6.028V18.42773q0-1.17187,1.40625-1.17187a1.37725,1.37725,0,0,1,1.17187.70312l2.46094,4.21875L13.528,17.959a1.37725,1.37725,0,0,1,1.17187-.70312q1.38282,0,1.40576,1.17187V23.584H14.6999V18.42773Z" transform="translate(0 0.08504)" style="fill: #454955"/>
    <path d="M18.08418,17.25586H23.4748q1.40625,0,1.40625,1.17187v3.98438q0,1.17188-1.40625,1.17187H18.08418q-1.40625,0-1.40625-1.17187V18.42773Q16.67793,17.25586,18.08418,17.25586Zm5.15625,1.17187H18.31855a.20716.20716,0,0,0-.23437.23438v3.51562a.20716.20716,0,0,0,.23437.23438h4.92188a.20716.20716,0,0,0,.23437-.23438V18.66211A.20716.20716,0,0,0,23.24043,18.42773Z" transform="translate(0 0.08504)" style="fill: #454955"/>
  </g>
  <g id="OUT">
    <path id="path36629" d="M27.15591,77.08108a2.85839,2.85839,0,0,0-2.66674-3H4.31083a2.85418,2.85418,0,0,0-2.66674,3v93.027a2.8584,2.8584,0,0,0,2.66674,3H24.48917a2.85418,2.85418,0,0,0,2.66674-3Z" transform="translate(0 0.08504)" style="fill: #454955"/>
    <g>
      <path d="M6.59346,81.30469a3.85973,3.85973,0,0,1,.17578-1.19727,2.58521,2.58521,0,0,1,.51758-.92773,2.31334,2.31334,0,0,1,.8457-.59961,2.95684,2.95684,0,0,1,1.16016-.21289,2.96825,2.96825,0,0,1,1.16406.21289,2.31342,2.31342,0,0,1,.8457.59961,2.55992,2.55992,0,0,1,.51563.92773,4.20355,4.20355,0,0,1,0,2.39258,2.5634,2.5634,0,0,1-.51563.92578,2.31342,2.31342,0,0,1-.8457.59961,2.96825,2.96825,0,0,1-1.16406.21289,2.95684,2.95684,0,0,1-1.16016-.21289,2.31334,2.31334,0,0,1-.8457-.59961A2.58886,2.58886,0,0,1,6.76924,82.5,3.84039,3.84039,0,0,1,6.59346,81.30469Zm1.10547,0a3.84316,3.84316,0,0,0,.09179.86523,2.00385,2.00385,0,0,0,.28711.6836,1.38906,1.38906,0,0,0,.4961.44921,1.67442,1.67442,0,0,0,1.4375,0,1.38912,1.38912,0,0,0,.49609-.44921,2.035,2.035,0,0,0,.28906-.6836,3.7569,3.7569,0,0,0,.09375-.86523,3.8228,3.8228,0,0,0-.0918-.86133,2.02659,2.02659,0,0,0-.2871-.68555,1.39777,1.39777,0,0,0-.49805-.45312,1.665,1.665,0,0,0-1.44141,0,1.37977,1.37977,0,0,0-.49609.45312,2.05447,2.05447,0,0,0-.28516.68555A3.8234,3.8234,0,0,0,7.69893,81.30469Z" transform="translate(0 0.08504)" style="fill: #fb9250"/>
      <path d="M12.96846,79a.51625.51625,0,0,1,.04492-.2207.46185.46185,0,0,1,.11719-.15821.49291.49291,0,0,1,.166-.09375.60846.60846,0,0,1,.19531-.03125.59788.59788,0,0,1,.19141.03125.51163.51163,0,0,1,.168.09375.45434.45434,0,0,1,.11914.15821A.5164.5164,0,0,1,14.01533,79v3.16016a1.392,1.392,0,0,0,.10742.57226,1.17148,1.17148,0,0,0,.28321.39844,1.1377,1.1377,0,0,0,.40039.23437,1.43253,1.43253,0,0,0,.92187,0,1.13573,1.13573,0,0,0,.3999-.23437,1.16489,1.16489,0,0,0,.28321-.39844,1.384,1.384,0,0,0,.10742-.57226V79a.52366.52366,0,0,1,.04492-.2207.46642.46642,0,0,1,.11914-.15821.51662.51662,0,0,1,.168-.09375.61064.61064,0,0,1,.19531-.03125.59573.59573,0,0,1,.19141.03125.50673.50673,0,0,1,.168.09375.44289.44289,0,0,1,.11914.15821A.50921.50921,0,0,1,17.56953,79v3.19141a2.04839,2.04839,0,0,1-.18359.89843,1.8116,1.8116,0,0,1-.4961.63672,2.08885,2.08885,0,0,1-.73242.37891,3.24055,3.24055,0,0,1-1.78271,0,2.09667,2.09667,0,0,1-.73047-.37891,1.80108,1.80108,0,0,1-.49414-.63672,2.0763,2.0763,0,0,1-.18164-.89843Z" transform="translate(0 0.08504)" style="fill: #fb9250"/>
      <path d="M18.46016,79.28125a.44567.44567,0,0,1-.17774-.0332.35623.35623,0,0,1-.125-.08789.39842.39842,0,0,1-.07422-.125.43116.43116,0,0,1-.02539-.14453.449.449,0,0,1,.02539-.14649.37974.37974,0,0,1,.07617-.127.41386.41386,0,0,1,.125-.08985.40928.40928,0,0,1,.17579-.03515h3.6914a.39366.39366,0,0,1,.29688.125.35476.35476,0,0,1,.07617.125.42406.42406,0,0,1,0,.28906.38256.38256,0,0,1-.07422.12695.34013.34013,0,0,1-.125.08985.43288.43288,0,0,1-.17383.0332h-1.3125v4.32422a.50924.50924,0,0,1-.04492.2207.46358.46358,0,0,1-.11914.16016.48648.48648,0,0,1-.168.0957.6018.6018,0,0,1-.38281,0,.49551.49551,0,0,1-.168-.0957.48921.48921,0,0,1-.11914-.16016.52369.52369,0,0,1-.04492-.2207V79.28125Z" transform="translate(0 0.08504)" style="fill: #fb9250"/>
    </g>
  </g>
  <g id="OUT-2" data-name="OUT">
    <path id="path36629-2" data-name="path36629" d="M27.15591,240.64865a2.85839,2.85839,0,0,0-2.66674-3H4.31083a2.85418,2.85418,0,0,0-2.66674,3v92.16122a2.8584,2.8584,0,0,0,2.66674,3H24.48917a2.85418,2.85418,0,0,0,2.66674-3Z" transform="translate(0 0.08504)" style="fill: #454955"/>
    <g>
      <path d="M6.59346,244.87207a3.85756,3.85756,0,0,1,.17578-1.19727,2.58115,2.58115,0,0,1,.51758-.92773,2.30762,2.30762,0,0,1,.8457-.59961,2.94805,2.94805,0,0,1,1.16016-.21289,2.95945,2.95945,0,0,1,1.16406.21289,2.3077,2.3077,0,0,1,.8457.59961,2.556,2.556,0,0,1,.51563.92773,4.20355,4.20355,0,0,1,0,2.39258,2.5634,2.5634,0,0,1-.51563.92578,2.31893,2.31893,0,0,1-.8457.59961,2.97693,2.97693,0,0,1-1.16406.21289,2.9655,2.9655,0,0,1-1.16016-.21289,2.31885,2.31885,0,0,1-.8457-.59961,2.58886,2.58886,0,0,1-.51758-.92578A3.84039,3.84039,0,0,1,6.59346,244.87207Zm1.10547,0a3.84621,3.84621,0,0,0,.09179.86523,2.00791,2.00791,0,0,0,.28711.6836,1.3936,1.3936,0,0,0,.4961.44922,1.67442,1.67442,0,0,0,1.4375,0,1.39365,1.39365,0,0,0,.49609-.44922,2.03916,2.03916,0,0,0,.28906-.6836,3.75987,3.75987,0,0,0,.09375-.86523,3.81658,3.81658,0,0,0-.0918-.86133,2.01819,2.01819,0,0,0-.2871-.68554,1.39341,1.39341,0,0,0-.49805-.45313,1.665,1.665,0,0,0-1.44141,0,1.37552,1.37552,0,0,0-.49609.45313,2.04586,2.04586,0,0,0-.28516.68554A3.81717,3.81717,0,0,0,7.69893,244.87207Z" transform="translate(0 0.08504)" style="fill: #fb9250"/>
      <path d="M12.96846,242.56738a.51321.51321,0,0,1,.04492-.2207.45262.45262,0,0,1,.11719-.1582.47653.47653,0,0,1,.166-.09375.595.595,0,0,1,.19531-.03125.5844.5844,0,0,1,.19141.03125.49423.49423,0,0,1,.168.09375.44544.44544,0,0,1,.11914.1582.51336.51336,0,0,1,.04492.2207v3.16016a1.39356,1.39356,0,0,0,.10742.57226,1.17148,1.17148,0,0,0,.28321.39844,1.13772,1.13772,0,0,0,.40039.23438,1.43271,1.43271,0,0,0,.92187,0,1.13575,1.13575,0,0,0,.3999-.23438,1.16489,1.16489,0,0,0,.28321-.39844,1.38559,1.38559,0,0,0,.10742-.57226v-3.16016a.52053.52053,0,0,1,.04492-.2207.457.457,0,0,1,.11914-.1582.49887.49887,0,0,1,.168-.09375.59711.59711,0,0,1,.19531-.03125.58235.58235,0,0,1,.19141.03125.48967.48967,0,0,1,.168.09375.43445.43445,0,0,1,.11914.1582.50625.50625,0,0,1,.04492.2207v3.19141a2.04993,2.04993,0,0,1-.18359.89844,1.82053,1.82053,0,0,1-.4961.63672,2.1052,2.1052,0,0,1-.73242.3789,3.24055,3.24055,0,0,1-1.78271,0,2.1132,2.1132,0,0,1-.73047-.3789,1.80991,1.80991,0,0,1-.49414-.63672,2.07787,2.07787,0,0,1-.18164-.89844Z" transform="translate(0 0.08504)" style="fill: #fb9250"/>
      <path d="M18.46016,242.84863a.45435.45435,0,0,1-.17774-.0332.36914.36914,0,0,1-.125-.08789.404.404,0,0,1-.07422-.125.43326.43326,0,0,1-.02539-.14453.4446.4446,0,0,1,.02539-.14649.37038.37038,0,0,1,.07617-.12695.39432.39432,0,0,1,.30079-.125h3.6914a.39423.39423,0,0,1,.17188.03516.38355.38355,0,0,1,.125.08984.35056.35056,0,0,1,.07617.125.42406.42406,0,0,1,0,.28906.38765.38765,0,0,1-.07422.127.35154.35154,0,0,1-.125.08984.44142.44142,0,0,1-.17383.0332h-1.3125v4.32422a.51225.51225,0,0,1-.04492.2207.46822.46822,0,0,1-.11914.16016.49445.49445,0,0,1-.168.0957.6018.6018,0,0,1-.38281,0,.5038.5038,0,0,1-.168-.0957.4944.4944,0,0,1-.11914-.16016.52688.52688,0,0,1-.04492-.2207v-4.32422Z" transform="translate(0 0.08504)" style="fill: #fb9250"/>
    </g>
  </g>
</svg>
