<svg id="svg11003" xmlns="http://www.w3.org/2000/svg" width="10.16249mm" height="134.06mm" viewBox="0 0 28.80705 380.0126">
  <title>Nip</title>
  <path id="path33429" d="M0-.085H28.8v380.0126H0Z" transform="translate(0 0.08504)" style="fill: #dfdbda"/>
  <g id="OUT">
    <g id="g21">
      <path id="path36629" d="M27.15591,295.972a2.85839,2.85839,0,0,0-2.66674-3H4.31083a2.85418,2.85418,0,0,0-2.66674,3v36a2.85839,2.85839,0,0,0,2.66674,3H24.48917a2.85418,2.85418,0,0,0,2.66674-3Z" transform="translate(0 0.08504)" style="fill: #454955"/>
      <g id="g19">
        <path id="path13" d="M5.707,300.172a5.01969,5.01969,0,0,1,.2-1.2,1.93352,1.93352,0,0,1,.5-.9,2.40657,2.40657,0,0,1,.8-.6,3.72944,3.72944,0,0,1,1.2-.2,5.01889,5.01889,0,0,1,1.2.2,1.242,1.242,0,0,1,.8.6,4.05308,4.05308,0,0,1,.5.9,4.29746,4.29746,0,0,1,.2,1.2,5.01961,5.01961,0,0,1-.2,1.2,1.93351,1.93351,0,0,1-.5.9,2.40654,2.40654,0,0,1-.8.6,3.72941,3.72941,0,0,1-1.2.2,5.01891,5.01891,0,0,1-1.2-.2,1.24193,1.24193,0,0,1-.8-.6,4.05336,4.05336,0,0,1-.5-.9A4.29734,4.29734,0,0,1,5.707,300.172Zm1.1,0a2.76856,2.76856,0,0,0,.1.9,4.8769,4.8769,0,0,0,.3.7.99834.99834,0,0,0,.5.4,1.32494,1.32494,0,0,0,1.4,0,2.18155,2.18155,0,0,0,.5-.4,2.38967,2.38967,0,0,0,.3-.7,4.1,4.1,0,0,0,0-1.8,4.8764,4.8764,0,0,0-.3-.7c-.1-.2-.3-.3-.5-.5a.84369.84369,0,0,0-.7-.2,1.44521,1.44521,0,0,0-.7.2,1.205,1.205,0,0,0-.5.5,4.87605,4.87605,0,0,0-.3.7A2.7685,2.7685,0,0,0,6.807,300.172Z" transform="translate(0 0.08504)" style="fill: #fb9250"/>
        <path id="path15" d="M12.107,297.872v-.2a.34914.34914,0,0,0,.1-.2c0-.1.1-.1.2-.1h.4c.1,0,.1.1.2.1s.1.1.1.2v3.4a1.26834,1.26834,0,0,0,.1.6,1.38015,1.38015,0,0,0,.3.4.75814.75814,0,0,0,.4.2,4.33112,4.33112,0,0,0,.5.1.90142.90142,0,0,0,.5-.1c.2-.1.3-.1.4-.2a1.38107,1.38107,0,0,0,.3-.4,1.26834,1.26834,0,0,0,.1-.6v-3.4c0-.1.1-.1.1-.2a.34913.34913,0,0,1,.2-.1h.4c.1,0,.1.1.2.1a.34918.34918,0,0,1,.1.2v3.4a2.91986,2.91986,0,0,1-.2.9,1.02425,1.02425,0,0,1-.5.6,2.5064,2.5064,0,0,1-.7.4,2.76836,2.76836,0,0,1-.9.1,2.76833,2.76833,0,0,1-.9-.1,1.612,1.612,0,0,1-.7-.4,2.6513,2.6513,0,0,1-.5-.6,2.38829,2.38829,0,0,1-.2-.9Z" transform="translate(0 0.08504)" style="fill: #fb9250"/>
        <path id="path17" d="M17.607,298.172h-.2a.09794.09794,0,0,1-.1-.1l-.1-.1v-.2a.098.098,0,0,1,.1-.1l.1-.1h4.1l.1.1.1.1v.2a.098.098,0,0,1-.1.1l-.1.1h-1.5v4.5c0,.1-.1.1-.1.2a.34913.34913,0,0,1-.2.1h-.4c-.1,0-.1-.1-.2-.1a.34914.34914,0,0,1-.1-.2v-4.5Z" transform="translate(0 0.08504)" style="fill: #fb9250"/>
      </g>
    </g>
  </g>
  <g id="MAX">
    <g>
      <path d="M9.94551,283.27637a.44688.44688,0,0,1,.03955-.19336.39314.39314,0,0,1,.104-.13867.45749.45749,0,0,1,.147-.082.52668.52668,0,0,1,.335,0,.45749.45749,0,0,1,.147.082.393.393,0,0,1,.104.13867.44688.44688,0,0,1,.03955.19336v4.03613a.43505.43505,0,0,1-.03955.19141.39467.39467,0,0,1-.104.13672.45192.45192,0,0,1-.14893.082.52984.52984,0,0,1-.16894.02734.51675.51675,0,0,1-.16748-.02734.43346.43346,0,0,1-.145-.082.40333.40333,0,0,1-.10254-.13672.43505.43505,0,0,1-.03955-.19141Z" transform="translate(0 0.08504)" style="fill: #454955"/>
      <path d="M12.04756,283.38867a.62638.62638,0,0,1,.03955-.23047.49971.49971,0,0,1,.10742-.1709.46936.46936,0,0,1,.15527-.10644.49759.49759,0,0,1,.18653-.03613.56888.56888,0,0,1,.25781.06543.708.708,0,0,1,.23438.19824l2.38916,3.4414v-3.31835a.394.394,0,0,1,.03418-.16895.36526.36526,0,0,1,.09033-.12207.43433.43433,0,0,1,.12988-.07324.464.464,0,0,1,.14941-.02539.44344.44344,0,0,1,.14649.02441.35575.35575,0,0,1,.12793.07324.36093.36093,0,0,1,.09082.123.38689.38689,0,0,1,.03418.16895v3.98242a.60989.60989,0,0,1-.041.23047.50007.50007,0,0,1-.10937.16894.47983.47983,0,0,1-.15918.10645.4982.4982,0,0,1-.18946.03711.57636.57636,0,0,1-.25488-.06348.70588.70588,0,0,1-.2373-.2002l-2.37549-3.42382v3.30078a.37671.37671,0,0,1-.03565.168.396.396,0,0,1-.09277.12109.36826.36826,0,0,1-.12988.07422.48374.48374,0,0,1-.14844.02344.47.47,0,0,1-.147-.02344.39666.39666,0,0,1-.12842-.07227.37365.37365,0,0,1-.09033-.11914.39837.39837,0,0,1-.03418-.17187Z" transform="translate(0 0.08504)" style="fill: #454955"/>
    </g>
    <path id="rect23" d="M0,95.7H28.8v8.6H0Z" transform="translate(0 0.08504)" style="fill: #454955"/>
    <g>
      <path d="M9.00947,101.4292l1.582-3.582a2.51408,2.51408,0,0,1,.17969-.36914.99412.99412,0,0,1,.19141-.23438.591.591,0,0,1,.2207-.123.9582.9582,0,0,1,.27148-.03516.85729.85729,0,0,1,.28321.04687.6345.6345,0,0,1,.23828.14844.70521.70521,0,0,1,.16406.26172,1.10491,1.10491,0,0,1,.06055.38672v4.32031a.49034.49034,0,0,1-.03711.19727.39939.39939,0,0,1-.09961.14062.43319.43319,0,0,1-.14258.08594.47.47,0,0,1-.16211.0293.437.437,0,0,1-.1582-.0293.44752.44752,0,0,1-.13867-.08594.39939.39939,0,0,1-.09961-.14062.49017.49017,0,0,1-.03711-.19727V98.09326l-1.73047,3.97266a.68423.68423,0,0,1-.10352.1914.66616.66616,0,0,1-.14648.13868.65565.65565,0,0,1-.17383.08593.599.599,0,0,1-.52734-.07812.64726.64726,0,0,1-.24414-.33789L6.67353,98.1167v4.13281a.49034.49034,0,0,1-.0371.19727.39952.39952,0,0,1-.09961.14062.44533.44533,0,0,1-.14063.08594.45236.45236,0,0,1-.32031,0,.416.416,0,0,1-.13867-.08594.42128.42128,0,0,1-.09766-.14062.49034.49034,0,0,1-.03711-.19727V97.9292a1.10491,1.10491,0,0,1,.06055-.38672.69643.69643,0,0,1,.166-.26172.64925.64925,0,0,1,.24219-.14844.88365.88365,0,0,1,.28906-.04687.92842.92842,0,0,1,.27344.03711.63306.63306,0,0,1,.22461.125.93809.93809,0,0,1,.19336.23633,2.62317,2.62317,0,0,1,.17969.37109L8.986,101.4292Z" transform="translate(0 0.08504)" style="fill: #fb9250"/>
      <path d="M18.299,102.08936a.46206.46206,0,0,1,.02735.15625.392.392,0,0,1-.04493.18945.44839.44839,0,0,1-.11914.14258.5559.5559,0,0,1-.168.08984.59546.59546,0,0,1-.19141.03125.50136.50136,0,0,1-.27149-.08008.39281.39281,0,0,1-.16992-.252l-.40625-1.043H14.45088l-.40235,1.043a.41049.41049,0,0,1-.16992.25391.48188.48188,0,0,1-.26367.07812.58523.58523,0,0,1-.1875-.03125.52378.52378,0,0,1-.166-.08984.47947.47947,0,0,1-.11719-.14063.37181.37181,0,0,1-.04492-.18359.56714.56714,0,0,1,.00586-.08008.32182.32182,0,0,1,.02539-.084l1.64062-4.10157a2.96638,2.96638,0,0,1,.19531-.44726,1.0702,1.0702,0,0,1,.209-.27344.63325.63325,0,0,1,.24219-.13867,1.021,1.021,0,0,1,.291-.03906,1.00656,1.00656,0,0,1,.29736.041.63622.63622,0,0,1,.24414.14258,1.11,1.11,0,0,1,.209.27539,2.79433,2.79433,0,0,1,.19141.43945Zm-2.602-4.19922-1.03125,2.77734h2.07471L15.7126,97.89014Z" transform="translate(0 0.08504)" style="fill: #fb9250"/>
      <path d="M19.68965,102.46045a.56743.56743,0,0,1-.20117.19141.44652.44652,0,0,1-.22461.05468.472.472,0,0,1-.17383-.0332.48238.48238,0,0,1-.14844-.0918.438.438,0,0,1-.10156-.13476.37025.37025,0,0,1-.03711-.16211.42881.42881,0,0,1,.08984-.25l1.6211-2.21875-1.51172-2.05078a.37822.37822,0,0,1-.082-.23047.369.369,0,0,1,.043-.17188.4486.4486,0,0,1,.11718-.14258.63654.63654,0,0,1,.168-.09765.52236.52236,0,0,1,.4375.02344.55743.55743,0,0,1,.207.19726L21.18965,99.23l1.332-1.88672a.55261.55261,0,0,1,.20312-.19531.48938.48938,0,0,1,.22657-.05859.45823.45823,0,0,1,.17187.0332.50968.50968,0,0,1,.14649.08984.42311.42311,0,0,1,.10156.13086.35748.35748,0,0,1,.03711.16016.36245.36245,0,0,1-.02149.12109.46606.46606,0,0,1-.06836.125l-1.543,2.06641,1.59375,2.19531a.40681.40681,0,0,1,.082.23438.35675.35675,0,0,1-.04493.17578.503.503,0,0,1-.11914.14453.61274.61274,0,0,1-.16992.09961.52515.52515,0,0,1-.19336.03711.50055.50055,0,0,1-.22851-.05664.52519.52519,0,0,1-.19727-.18946l-1.39453-2.02343Z" transform="translate(0 0.08504)" style="fill: #fb9250"/>
    </g>
  </g>
  <g id="GAIN">
    <path id="rect23-2" data-name="rect23" d="M.00705,28.372h28.8v8.6h-28.8Z" transform="translate(0 0.08504)" style="fill: #454955"/>
    <g>
      <path d="M9.37861,32.418a.349.349,0,0,1,.293.11133.50952.50952,0,0,1,.08594.31836v1.83593a.55842.55842,0,0,1-.13086.39454.55267.55267,0,0,1-.32617.17187c-.12012.03662-.252.06982-.39649.09961s-.292.05664-.44336.08008-.2998.0415-.44726.05469-.2832.01953-.4082.01953a3.59218,3.59218,0,0,1-1.15625-.17578,2.30743,2.30743,0,0,1-.88868-.53711,2.40171,2.40171,0,0,1-.57031-.91407,3.83148,3.83148,0,0,1-.20117-1.30664,3.9153,3.9153,0,0,1,.07617-.78125,2.97929,2.97929,0,0,1,.23242-.70117,2.58957,2.58957,0,0,1,.39258-.59375,2.34888,2.34888,0,0,1,.55469-.459,2.74721,2.74721,0,0,1,.71875-.29688,3.46722,3.46722,0,0,1,.88476-.10547,4.73389,4.73389,0,0,1,.89258.082,3.96623,3.96623,0,0,1,.77539.22657.3739.3739,0,0,1,.2461.35547.449.449,0,0,1-.02539.14648.36683.36683,0,0,1-.07618.12891.40952.40952,0,0,1-.12109.09179.34343.34343,0,0,1-.15625.03516.39121.39121,0,0,1-.05078-.00391.36449.36449,0,0,1-.05469-.01172c-.10644-.02588-.21875-.05127-.33594-.07617s-.23437-.04687-.35156-.0664-.23242-.03467-.3457-.04493-.21777-.01562-.31445-.01562a2.01833,2.01833,0,0,0-.84571.16016,1.49675,1.49675,0,0,0-.57031.44531,1.84046,1.84046,0,0,0-.32227.67187,3.33052,3.33052,0,0,0-.10156.84375,4.09809,4.09809,0,0,0,.09375.92774,1.69886,1.69886,0,0,0,.30469.66992,1.30669,1.30669,0,0,0,.54687.40625,2.17381,2.17381,0,0,0,.82032.13672,3.90243,3.90243,0,0,0,.54492-.03906q.27539-.03882.5332-.10157V33.082H7.82783a.33791.33791,0,0,1-.14453-.0293.30709.30709,0,0,1-.10352-.07617.29587.29587,0,0,1-.06054-.10742.40989.40989,0,0,1-.01953-.123.39036.39036,0,0,1,.01953-.12109.30019.30019,0,0,1,.06054-.10547.28451.28451,0,0,1,.10352-.07422.36172.36172,0,0,1,.14453-.02734Z" transform="translate(0 0.08504)" style="fill: #fb9250"/>
      <path d="M15.64424,34.76172a.46229.46229,0,0,1,.02734.15625.39207.39207,0,0,1-.04492.18945.44841.44841,0,0,1-.11914.14258.55585.55585,0,0,1-.168.08984.59546.59546,0,0,1-.19141.03125.50138.50138,0,0,1-.27148-.08007.39286.39286,0,0,1-.16992-.252l-.40625-1.043H11.79658l-.40234,1.043a.41049.41049,0,0,1-.16992.25391.48194.48194,0,0,1-.26368.07812.58523.58523,0,0,1-.1875-.03125.52358.52358,0,0,1-.166-.08984.47958.47958,0,0,1-.11719-.14062.372.372,0,0,1-.04492-.1836.56725.56725,0,0,1,.00586-.08008.32194.32194,0,0,1,.02539-.084l1.64062-4.10156a2.96647,2.96647,0,0,1,.19532-.44727,1.07036,1.07036,0,0,1,.209-.27344.63338.63338,0,0,1,.24219-.13867,1.021,1.021,0,0,1,.291-.03906,1.00559,1.00559,0,0,1,.29688.041.63642.63642,0,0,1,.24414.14258,1.11,1.11,0,0,1,.209.27539,2.79448,2.79448,0,0,1,.19141.43946ZM13.04268,30.5625l-1.03125,2.77734h2.07421L13.0583,30.5625Z" transform="translate(0 0.08504)" style="fill: #fb9250"/>
      <path d="M16.62129,30.25391a.50928.50928,0,0,1,.04492-.22071.4543.4543,0,0,1,.11914-.1582.51662.51662,0,0,1,.168-.09375.6018.6018,0,0,1,.38281,0,.51652.51652,0,0,1,.168.09375.45418.45418,0,0,1,.11914.1582.50914.50914,0,0,1,.04492.22071v4.61328a.49582.49582,0,0,1-.04492.21875.46046.46046,0,0,1-.11914.15625.51577.51577,0,0,1-.16992.09375.612.612,0,0,1-.19336.03125.59573.59573,0,0,1-.19141-.03125.48824.48824,0,0,1-.166-.09375.48173.48173,0,0,1-.11719-.15625.496.496,0,0,1-.04492-.21875Z" transform="translate(0 0.08504)" style="fill: #fb9250"/>
      <path d="M19.02363,30.38281a.71417.71417,0,0,1,.04492-.26367.5845.5845,0,0,1,.12305-.19531.52593.52593,0,0,1,.17774-.1211.55481.55481,0,0,1,.21289-.041.64994.64994,0,0,1,.29492.07422.81774.81774,0,0,1,.26758.22656l2.73046,3.93359v-3.793a.44988.44988,0,0,1,.03907-.19336.40375.40375,0,0,1,.10351-.13868.46291.46291,0,0,1,.14844-.084.50987.50987,0,0,1,.16992-.0293.5308.5308,0,0,1,.168.02735.41607.41607,0,0,1,.25.22461.44988.44988,0,0,1,.03906.19336v4.55078a.694.694,0,0,1-.04687.26367.585.585,0,0,1-.125.19336.54872.54872,0,0,1-.18164.12109.55936.55936,0,0,1-.2168.043.65015.65015,0,0,1-.291-.07227.81455.81455,0,0,1-.27149-.22851l-2.71484-3.91406v3.77343a.42327.42327,0,0,1-.041.19141.44816.44816,0,0,1-.10547.13867.4214.4214,0,0,1-.14843.084.54773.54773,0,0,1-.16993.02734.53112.53112,0,0,1-.168-.02734.433.433,0,0,1-.14648-.082.41063.41063,0,0,1-.10352-.13672.4455.4455,0,0,1-.03906-.19532Z" transform="translate(0 0.08504)" style="fill: #fb9250"/>
    </g>
  </g>
  <g>
    <path d="M15.67451,341.13184v1.17187H9.112a.20716.20716,0,0,0-.23437.23438v3.51562a.20716.20716,0,0,0,.23437.23438h6.5625V347.46H8.87764q-1.40625,0-1.40625-1.17187v-3.98438q0-1.17187,1.40625-1.17187Z" transform="translate(0 0.08504)" style="fill: #454955"/>
    <path d="M22.03144,341.13184v1.17187h-6.562a.38087.38087,0,0,0,0,.70313l4.92139,1.40625q1.64063.46875,1.64062,1.17187v.70313q0,1.17188-1.40625,1.17187H13.82881v-1.17187h6.562a.38087.38087,0,0,0,0-.70313l-4.92139-1.40625q-1.64062-.46875-1.64062-1.17187v-.70313q0-1.17187,1.40625-1.17187Z" transform="translate(0 0.08504)" style="fill: #fb9250"/>
  </g>
  <g>
    <path d="M12.2126,17.58984v6.01563q0,1.36743-1.64063,1.36719a1.85382,1.85382,0,0,1-1.36719-.54688L4.28291,18.957v6.01563H2.64228V18.957q0-1.36669,1.64063-1.36719a1.85649,1.85649,0,0,1,1.36719.54688L10.572,23.60547V17.58984Z" transform="translate(0 0.08504)" style="fill: #454955"/>
    <path d="M15.22041,17.58984v7.38282H13.57978V17.58984Z" transform="translate(0 0.08504)" style="fill: #454955"/>
    <path d="M16.58711,17.58984H24.5168q1.64063,0,1.64062,1.36719v1.36719q0,1.36743-1.64062,1.36719H18.22773v3.28125H16.58711V20.32422h7.65625a.241.241,0,0,0,.27344-.27344v-.82031a.24124.24124,0,0,0-.27344-.27344H16.58711Z" transform="translate(0 0.08504)" style="fill: #454955"/>
  </g>
</svg>
