<svg id="svg11003" xmlns="http://www.w3.org/2000/svg" width="15.27528mm" height="133.84388mm" viewBox="0 0 43.3 379.39999">
  <title>VBNO</title>
  <path id="path33429" d="M.1.272H43.3v379.4H.1Z" transform="translate(0 -0.27203)" style="fill: #dfdbda"/>
  <g id="OUT">
    <g id="g21">
      <path id="path36629" d="M35.907,295.972a3.00853,3.00853,0,0,0-3-3h-22.7a3.00853,3.00853,0,0,0-3,3v36a3.00853,3.00853,0,0,0,3,3h22.7a3.00853,3.00853,0,0,0,3-3Z" transform="translate(0 -0.27203)" style="fill: #454955"/>
      <g id="g19">
        <path id="path13" d="M12.907,300.172a5.01969,5.01969,0,0,1,.2-1.2,1.93352,1.93352,0,0,1,.5-.9,2.40657,2.40657,0,0,1,.8-.6,3.72944,3.72944,0,0,1,1.2-.2,5.01889,5.01889,0,0,1,1.2.2,1.242,1.242,0,0,1,.8.6,4.05308,4.05308,0,0,1,.5.9,4.29746,4.29746,0,0,1,.2,1.2,5.01961,5.01961,0,0,1-.2,1.2,1.93351,1.93351,0,0,1-.5.9,2.40654,2.40654,0,0,1-.8.6,3.72941,3.72941,0,0,1-1.2.2,5.01891,5.01891,0,0,1-1.2-.2,1.24193,1.24193,0,0,1-.8-.6,4.05336,4.05336,0,0,1-.5-.9A4.29734,4.29734,0,0,1,12.907,300.172Zm1.1,0a2.76856,2.76856,0,0,0,.1.9,4.8769,4.8769,0,0,0,.3.7.99834.99834,0,0,0,.5.4,1.32494,1.32494,0,0,0,1.4,0,2.18155,2.18155,0,0,0,.5-.4,2.38967,2.38967,0,0,0,.3-.7,4.1,4.1,0,0,0,0-1.8,4.8764,4.8764,0,0,0-.3-.7c-.1-.2-.3-.3-.5-.5a.84369.84369,0,0,0-.7-.2,1.44521,1.44521,0,0,0-.7.2,1.205,1.205,0,0,0-.5.5,4.87605,4.87605,0,0,0-.3.7A2.7685,2.7685,0,0,0,14.007,300.172Z" transform="translate(0 -0.27203)" style="fill: #fb9250"/>
        <path id="path15" d="M19.307,297.872v-.2a.34914.34914,0,0,0,.1-.2c0-.1.1-.1.2-.1h.4c.1,0,.1.1.2.1s.1.1.1.2v3.4a1.26834,1.26834,0,0,0,.1.6,1.38033,1.38033,0,0,0,.3.4.75814.75814,0,0,0,.4.2,4.33112,4.33112,0,0,0,.5.1.90142.90142,0,0,0,.5-.1c.2-.1.3-.1.4-.2a1.38107,1.38107,0,0,0,.3-.4,1.26834,1.26834,0,0,0,.1-.6v-3.4c0-.1.1-.1.1-.2a.34913.34913,0,0,1,.2-.1h.4c.1,0,.1.1.2.1a.34918.34918,0,0,1,.1.2v3.4a2.91986,2.91986,0,0,1-.2.9,1.02421,1.02421,0,0,1-.5.6,2.5064,2.5064,0,0,1-.7.4,2.76833,2.76833,0,0,1-.9.1,2.76836,2.76836,0,0,1-.9-.1,1.612,1.612,0,0,1-.7-.4,2.65157,2.65157,0,0,1-.5-.6,2.38829,2.38829,0,0,1-.2-.9Z" transform="translate(0 -0.27203)" style="fill: #fb9250"/>
        <path id="path17" d="M24.807,298.172h-.2a.09794.09794,0,0,1-.1-.1l-.1-.1v-.2a.098.098,0,0,1,.1-.1l.1-.1h4.1l.1.1.1.1v.2a.098.098,0,0,1-.1.1l-.1.1h-1.5v4.5c0,.1-.1.1-.1.2a.34913.34913,0,0,1-.2.1h-.4c-.1,0-.1-.1-.2-.1a.34914.34914,0,0,1-.1-.2v-4.5Z" transform="translate(0 -0.27203)" style="fill: #fb9250"/>
      </g>
    </g>
  </g>
  <g id="WAVE">
    <path id="rect23" d="M0,162.3H43.2v8.6H0Z" transform="translate(0 -0.27203)" style="fill: #454955"/>
    <g>
      <path d="M14.0376,164.65039l-1.20313,4.06641a.66062.66062,0,0,1-.10937.248.77.77,0,0,1-.1875.1836.84256.84256,0,0,1-.23633.11523.88373.88373,0,0,1-.25977.03906.80527.80527,0,0,1-.23632-.03515.723.723,0,0,1-.21289-.10547.69666.69666,0,0,1-.17188-.18164.78508.78508,0,0,1-.10937-.26367l-1.15235-4.44141a.469.469,0,0,1-.01562-.125.38245.38245,0,0,1,.04687-.18945.49.49,0,0,1,.11914-.14258.54836.54836,0,0,1,.166-.0918.56261.56261,0,0,1,.1875-.0332.46216.46216,0,0,1,.26367.08008.38571.38571,0,0,1,.1543.25976l1.03906,4.35157,1.23828-4.14063a.73192.73192,0,0,1,.09961-.24609.6941.6941,0,0,1,.16016-.17578.661.661,0,0,1,.20117-.10547.72258.72258,0,0,1,.44531,0,.68266.68266,0,0,1,.20313.10547.70848.70848,0,0,1,.26562.42187l1.28516,4.13281,1.02734-4.33593a.40006.40006,0,0,1,.1582-.27149.46317.46317,0,0,1,.26758-.084.5245.5245,0,0,1,.17774.03125.544.544,0,0,1,.1582.08789.43777.43777,0,0,1,.11328.13672.38089.38089,0,0,1,.043.18164.45484.45484,0,0,1-.01563.12109l-1.168,4.47266a.75147.75147,0,0,1-.11329.25976.79015.79015,0,0,1-.18164.1875.77573.77573,0,0,1-.22656.11524.822.822,0,0,1-.248.03906.81125.81125,0,0,1-.24414-.03711.72823.72823,0,0,1-.2207-.11328.76826.76826,0,0,1-.17578-.1875.78509.78509,0,0,1-.10938-.26367Z" transform="translate(0 -0.27203)" style="fill: #fb9250"/>
      <path d="M23.166,168.68945a.46237.46237,0,0,1,.02734.15625.39211.39211,0,0,1-.04492.18946.4485.4485,0,0,1-.11914.14257.54758.54758,0,0,1-.16748.08985.59573.59573,0,0,1-.19141.03125.50139.50139,0,0,1-.27148-.08008.39281.39281,0,0,1-.16993-.25195l-.40625-1.043h-2.5039l-.40235,1.043a.41047.41047,0,0,1-.16992.2539.48181.48181,0,0,1-.26367.07813.5855.5855,0,0,1-.1875-.03125.52376.52376,0,0,1-.166-.08985.47942.47942,0,0,1-.11718-.14062.37181.37181,0,0,1-.04492-.18359.56859.56859,0,0,1,.00585-.08008.32231.32231,0,0,1,.0254-.084l1.64062-4.10156a2.96638,2.96638,0,0,1,.19531-.44726,1.07,1.07,0,0,1,.209-.27344.63316.63316,0,0,1,.24218-.13867,1.021,1.021,0,0,1,.291-.03907,1.00558,1.00558,0,0,1,.29688.041.63636.63636,0,0,1,.24414.14258,1.11007,1.11007,0,0,1,.209.27539,2.79391,2.79391,0,0,1,.19141.43945Zm-2.60108-4.19922-1.03125,2.77735h2.07422l-1.02734-2.77735Z" transform="translate(0 -0.27203)" style="fill: #fb9250"/>
      <path d="M25.58789,168.49023h.01563l1.47265-4.44531a.48671.48671,0,0,1,.18164-.26172.49037.49037,0,0,1,.47071-.05859.525.525,0,0,1,.15234.09375.444.444,0,0,1,.10547.14062.3991.3991,0,0,1,.03906.17579c-.00293.02343-.00488.04687-.00781.07031a.44811.44811,0,0,1-.01563.07422L26.46289,168.627a1.32976,1.32976,0,0,1-.14258.31836.73236.73236,0,0,1-.19531.209.75516.75516,0,0,1-.248.11328,1.20473,1.20473,0,0,1-.30078.03515,1.27455,1.27455,0,0,1-.293-.03125.68061.68061,0,0,1-.24218-.10937.74052.74052,0,0,1-.19336-.209,1.4155,1.4155,0,0,1-.14649-.32618l-1.55469-4.32812a.455.455,0,0,1-.02343-.14453.42091.42091,0,0,1,.041-.1836.4638.4638,0,0,1,.11133-.14843.5571.5571,0,0,1,.16211-.09961.51017.51017,0,0,1,.19336-.03711.47305.47305,0,0,1,.2832.09179.47968.47968,0,0,1,.17774.25586Z" transform="translate(0 -0.27203)" style="fill: #fb9250"/>
      <path d="M29.4707,169.30273a.471.471,0,0,1-.19336-.041.55456.55456,0,0,1-.16211-.10938.53531.53531,0,0,1-.11328-.16015.45446.45446,0,0,1-.043-.19336v-4.60938A.50748.50748,0,0,1,28.99609,164a.48945.48945,0,0,1,.10547-.16211.528.528,0,0,1,.15821-.11133.46365.46365,0,0,1,.19531-.041h2.84375a.40416.40416,0,0,1,.16992.0332.35853.35853,0,0,1,.12109.08789.36525.36525,0,0,1,.07227.12305.43667.43667,0,0,1,.02344.14258.4425.4425,0,0,1-.02344.14062.35365.35365,0,0,1-.19336.21289.40416.40416,0,0,1-.16992.0332H29.97852v1.582h2.17187a.42.42,0,0,1,.17188.0332.34811.34811,0,0,1,.123.08789.36525.36525,0,0,1,.07227.123.43666.43666,0,0,1,.02344.14257.41966.41966,0,0,1-.02539.14063.38111.38111,0,0,1-.07422.125.35867.35867,0,0,1-.1211.08789.40416.40416,0,0,1-.16992.0332H29.97852v1.71485h2.40625a.40416.40416,0,0,1,.16992.0332.35863.35863,0,0,1,.12109.08789.36525.36525,0,0,1,.07227.12305.43667.43667,0,0,1,.02343.14258.44248.44248,0,0,1-.02343.14062.35365.35365,0,0,1-.19336.21289.40416.40416,0,0,1-.16992.0332Z" transform="translate(0 -0.27203)" style="fill: #fb9250"/>
    </g>
  </g>
  <g id="NOTE">
    <path id="rect23-2" data-name="rect23" d="M0,95.7H43.2v8.6H0Z" transform="translate(0 -0.27203)" style="fill: #454955"/>
    <g>
      <path d="M11.45752,97.71045a.71417.71417,0,0,1,.04492-.26367.58449.58449,0,0,1,.123-.19532.52582.52582,0,0,1,.17773-.12109.55488.55488,0,0,1,.21289-.041.65006.65006,0,0,1,.29493.07421.81764.81764,0,0,1,.26757.22657l2.73047,3.93359v-3.793a.45006.45006,0,0,1,.03906-.19336.404.404,0,0,1,.10352-.13867.4628.4628,0,0,1,.14844-.084.50958.50958,0,0,1,.16992-.0293.53107.53107,0,0,1,.168.02734.41622.41622,0,0,1,.25.22461.44991.44991,0,0,1,.03906.19336v4.55078a.694.694,0,0,1-.04687.26367.585.585,0,0,1-.125.19336.54859.54859,0,0,1-.18164.1211.5594.5594,0,0,1-.2168.043.65022.65022,0,0,1-.291-.07227.81462.81462,0,0,1-.27148-.22851l-2.71485-3.91407v3.77344a.42343.42343,0,0,1-.041.19141.44828.44828,0,0,1-.10547.13867.42118.42118,0,0,1-.14844.084.54734.54734,0,0,1-.16992.02735.5308.5308,0,0,1-.168-.02735.4327.4327,0,0,1-.14648-.082.41043.41043,0,0,1-.10352-.13672.44532.44532,0,0,1-.03906-.19531Z" transform="translate(0 -0.27203)" style="fill: #fb9250"/>
      <path d="M17.29736,99.898a3.86,3.86,0,0,1,.17578-1.19727,2.59257,2.59257,0,0,1,.51758-.92773,2.30937,2.30937,0,0,1,.84571-.59961,3.27823,3.27823,0,0,1,2.32421,0,2.30937,2.30937,0,0,1,.84571.59961,2.57427,2.57427,0,0,1,.51562.92773,4.20332,4.20332,0,0,1,0,2.39258,2.57783,2.57783,0,0,1-.51562.92578,2.30926,2.30926,0,0,1-.84571.59961,3.27823,3.27823,0,0,1-2.32421,0,2.30926,2.30926,0,0,1-.84571-.59961,2.59627,2.59627,0,0,1-.51758-.92578A3.84069,3.84069,0,0,1,17.29736,99.898Zm1.10547,0a3.81508,3.81508,0,0,0,.0918.86523,2.0231,2.0231,0,0,0,.28711.6836,1.38915,1.38915,0,0,0,.49609.44922,1.67442,1.67442,0,0,0,1.4375,0,1.38918,1.38918,0,0,0,.4961-.44922,2.04492,2.04492,0,0,0,.28906-.6836,3.7569,3.7569,0,0,0,.09375-.86523,3.79536,3.79536,0,0,0-.0918-.86133,2.04651,2.04651,0,0,0-.28711-.68555,1.38964,1.38964,0,0,0-.498-.45312,1.665,1.665,0,0,0-1.44141,0,1.37579,1.37579,0,0,0-.49609.45312,2.06452,2.06452,0,0,0-.28516.68555A3.79536,3.79536,0,0,0,18.40283,99.898Z" transform="translate(0 -0.27203)" style="fill: #fb9250"/>
      <path d="M23.26563,97.87451a.44567.44567,0,0,1-.17774-.0332.34548.34548,0,0,1-.12451-.08789.38076.38076,0,0,1-.07422-.125.43116.43116,0,0,1-.02539-.14453.449.449,0,0,1,.02539-.14649.35013.35013,0,0,1,.07617-.127.39964.39964,0,0,1,.12451-.08984.40914.40914,0,0,1,.17579-.03516H26.957a.39727.39727,0,0,1,.17188.03516.40187.40187,0,0,1,.125.08984.35476.35476,0,0,1,.07617.125.42406.42406,0,0,1,0,.28906.39986.39986,0,0,1-.07422.12695.34.34,0,0,1-.125.08985.43288.43288,0,0,1-.17383.0332h-1.3125v4.32422a.50921.50921,0,0,1-.04492.2207.476.476,0,0,1-.11914.16016.4956.4956,0,0,1-.168.0957.6018.6018,0,0,1-.38281,0,.49551.49551,0,0,1-.168-.0957.4759.4759,0,0,1-.11914-.16016.50906.50906,0,0,1-.04492-.2207V97.87451Z" transform="translate(0 -0.27203)" style="fill: #fb9250"/>
      <path d="M28.65234,102.70264a.47106.47106,0,0,1-.19336-.041.55435.55435,0,0,1-.1621-.10937.53508.53508,0,0,1-.11329-.16016.45445.45445,0,0,1-.043-.19336V97.58936a.50749.50749,0,0,1,.0371-.18946.48955.48955,0,0,1,.10547-.16211.528.528,0,0,1,.15821-.11133.46365.46365,0,0,1,.19531-.041h2.84375a.40416.40416,0,0,1,.16992.0332.35866.35866,0,0,1,.12109.08789.36508.36508,0,0,1,.07227.123.43641.43641,0,0,1,.02344.14258.44222.44222,0,0,1-.02344.14062.35365.35365,0,0,1-.19336.21289.404.404,0,0,1-.16992.03321H29.16016v1.582H31.332a.42.42,0,0,1,.17188.0332.34811.34811,0,0,1,.123.08789.36525.36525,0,0,1,.07227.123.43667.43667,0,0,1,.02344.14258.41961.41961,0,0,1-.02539.14062.381.381,0,0,1-.07422.125.35867.35867,0,0,1-.1211.08789.404.404,0,0,1-.16992.03321H29.16016v1.71484h2.40625a.40416.40416,0,0,1,.16992.0332.35866.35866,0,0,1,.12109.08789.36525.36525,0,0,1,.07227.123.43667.43667,0,0,1,.02344.14258.4425.4425,0,0,1-.02344.14062.35365.35365,0,0,1-.19336.21289.404.404,0,0,1-.16992.03321Z" transform="translate(0 -0.27203)" style="fill: #fb9250"/>
    </g>
  </g>
  <g id="OCT">
    <path id="rect23-3" data-name="rect23" d="M.00705,28.372h43.2v8.6h-43.2Z" transform="translate(0 -0.27203)" style="fill: #454955"/>
    <g>
      <path d="M6.35547,32.57031a3.85967,3.85967,0,0,1,.17578-1.19726,2.5927,2.5927,0,0,1,.51758-.92774,2.30933,2.30933,0,0,1,.8457-.59961,2.95684,2.95684,0,0,1,1.16016-.21289,2.96655,2.96655,0,0,1,1.16406.21289,2.30933,2.30933,0,0,1,.8457.59961,2.57442,2.57442,0,0,1,.51563.92774,4.20332,4.20332,0,0,1,0,2.39258,2.578,2.578,0,0,1-.51563.92578,2.30933,2.30933,0,0,1-.8457.59961,2.96655,2.96655,0,0,1-1.16406.21289A2.95684,2.95684,0,0,1,7.89453,35.291a2.30933,2.30933,0,0,1-.8457-.59961,2.59644,2.59644,0,0,1-.51758-.92578A3.8405,3.8405,0,0,1,6.35547,32.57031Zm1.10547,0a3.81519,3.81519,0,0,0,.09179.86524,2.02325,2.02325,0,0,0,.28711.68359,1.38908,1.38908,0,0,0,.4961.44922,1.67442,1.67442,0,0,0,1.4375,0,1.389,1.389,0,0,0,.49609-.44922,2.04487,2.04487,0,0,0,.28906-.68359,3.757,3.757,0,0,0,.09375-.86524,3.79538,3.79538,0,0,0-.09179-.86133,2.04657,2.04657,0,0,0-.28711-.68554,1.38979,1.38979,0,0,0-.49805-.45313,1.665,1.665,0,0,0-1.44141,0,1.37607,1.37607,0,0,0-.49609.45313,2.06459,2.06459,0,0,0-.28516.68554A3.79538,3.79538,0,0,0,7.46094,32.57031Z" transform="translate(0 -0.27203)" style="fill: #fb9250"/>
      <path d="M12.58984,32.59375a3.61755,3.61755,0,0,1,.19727-1.23242,2.74287,2.74287,0,0,1,.54883-.9336,2.36985,2.36985,0,0,1,.83594-.58984,2.67958,2.67958,0,0,1,1.05468-.20508,3.37978,3.37978,0,0,1,.73438.084,4.27041,4.27041,0,0,1,.78125.25976.37688.37688,0,0,1,.1875.15625.4103.4103,0,0,1,.05859.207.43117.43117,0,0,1-.02539.14454.40008.40008,0,0,1-.07422.12695.35453.35453,0,0,1-.11719.08984.35089.35089,0,0,1-.15429.03321.45936.45936,0,0,1-.15625-.03125,3.40186,3.40186,0,0,0-1.11719-.22266,1.73524,1.73524,0,0,0-.71875.14062,1.37954,1.37954,0,0,0-.52344.40821,1.864,1.864,0,0,0-.32031.65625,3.27436,3.27436,0,0,0-.10937.88867,3.42714,3.42714,0,0,0,.0957.83594,1.86585,1.86585,0,0,0,.293.65039,1.393,1.393,0,0,0,.49218.42383,1.49065,1.49065,0,0,0,.69336.15234,2.59649,2.59649,0,0,0,.59766-.07617,3.965,3.965,0,0,0,.69531-.24414.45008.45008,0,0,1,.09961-.03321.48267.48267,0,0,1,.0918-.00976.32926.32926,0,0,1,.14648.03125.34106.34106,0,0,1,.11133.08594.39333.39333,0,0,1,.07227.125.43107.43107,0,0,1,.02539.14453.46937.46937,0,0,1-.07031.24023.52026.52026,0,0,1-.23438.19727,3.81735,3.81735,0,0,1-1.60937.40625,2.56656,2.56656,0,0,1-1.05079-.21094,2.34348,2.34348,0,0,1-.8164-.5957,2.7373,2.7373,0,0,1-.52735-.91993A3.5611,3.5611,0,0,1,12.58984,32.59375Z" transform="translate(0 -0.27203)" style="fill: #fb9250"/>
      <path d="M18.23047,30.54688a.44573.44573,0,0,1-.17774-.03321.34745.34745,0,0,1-.125-.08789.38081.38081,0,0,1-.07421-.125.43082.43082,0,0,1-.02539-.14453.44865.44865,0,0,1,.02539-.14648.35017.35017,0,0,1,.07617-.127.40192.40192,0,0,1,.125-.08984.40909.40909,0,0,1,.17578-.03516h3.69141a.39723.39723,0,0,1,.17187.03516.402.402,0,0,1,.125.08984.35485.35485,0,0,1,.07617.125.42408.42408,0,0,1,0,.28907.40008.40008,0,0,1-.07422.12695.33991.33991,0,0,1-.125.08984.43287.43287,0,0,1-.17382.03321h-1.3125v4.32421a.50914.50914,0,0,1-.04493.22071.476.476,0,0,1-.11914.16015.4957.4957,0,0,1-.168.09571.6018.6018,0,0,1-.38281,0,.49579.49579,0,0,1-.168-.09571.47623.47623,0,0,1-.11914-.16015.50928.50928,0,0,1-.04492-.22071V30.54688Z" transform="translate(0 -0.27203)" style="fill: #fb9250"/>
      <path d="M27.24609,34.76172a.46206.46206,0,0,1,.02735.15625.39207.39207,0,0,1-.04492.18945.44854.44854,0,0,1-.11914.14258.55585.55585,0,0,1-.168.08984.59546.59546,0,0,1-.19141.03125.50138.50138,0,0,1-.27148-.08007.39284.39284,0,0,1-.16993-.252l-.40625-1.043h-2.5039l-.40235,1.043a.41049.41049,0,0,1-.16992.25391.48188.48188,0,0,1-.26367.07812.58523.58523,0,0,1-.1875-.03125.52374.52374,0,0,1-.166-.08984.47955.47955,0,0,1-.11718-.14062.37185.37185,0,0,1-.04492-.1836.5687.5687,0,0,1,.00585-.08008.32236.32236,0,0,1,.0254-.084l1.64062-4.10156a2.96655,2.96655,0,0,1,.19531-.44727,1.07037,1.07037,0,0,1,.209-.27344.63342.63342,0,0,1,.24218-.13867,1.021,1.021,0,0,1,.291-.03906,1.00559,1.00559,0,0,1,.29688.041.63649.63649,0,0,1,.24414.14258,1.11025,1.11025,0,0,1,.209.27539,2.79448,2.79448,0,0,1,.19141.43946ZM24.64453,30.5625l-1.03125,2.77734H25.6875L24.66016,30.5625Z" transform="translate(0 -0.27203)" style="fill: #fb9250"/>
      <path d="M29.668,34.5625h.01562l1.47266-4.44531a.48667.48667,0,0,1,.18164-.26172.49035.49035,0,0,1,.4707-.05859.52445.52445,0,0,1,.15235.09375.44387.44387,0,0,1,.10547.14062.39919.39919,0,0,1,.03906.17578c-.00293.02344-.00488.04688-.00781.07031a.44913.44913,0,0,1-.01563.07422L30.543,34.69922a1.33016,1.33016,0,0,1-.14258.31836.73219.73219,0,0,1-.19531.209.75475.75475,0,0,1-.248.11328,1.20472,1.20472,0,0,1-.30078.03516,1.27449,1.27449,0,0,1-.293-.03125.681.681,0,0,1-.24219-.10937.74085.74085,0,0,1-.19336-.209,1.41565,1.41565,0,0,1-.14648-.32617l-1.55469-4.32813a.45493.45493,0,0,1-.02343-.14453.42087.42087,0,0,1,.041-.18359.46366.46366,0,0,1,.11133-.14844.55705.55705,0,0,1,.16211-.09961.51033.51033,0,0,1,.19336-.03711.473.473,0,0,1,.2832.0918.47961.47961,0,0,1,.17774.25586Z" transform="translate(0 -0.27203)" style="fill: #fb9250"/>
      <path d="M33.55078,35.375a.47089.47089,0,0,1-.19336-.041.55453.55453,0,0,1-.16211-.10937.53523.53523,0,0,1-.11328-.16016.45443.45443,0,0,1-.043-.19336V30.26172a.50745.50745,0,0,1,.03711-.18945.48935.48935,0,0,1,.10547-.16211.52755.52755,0,0,1,.1582-.11133.46351.46351,0,0,1,.19532-.041h2.84375a.404.404,0,0,1,.16992.03321.35853.35853,0,0,1,.12109.08789.3652.3652,0,0,1,.07227.123.43667.43667,0,0,1,.02344.14258.44256.44256,0,0,1-.02344.14063.35365.35365,0,0,1-.19336.21289.40416.40416,0,0,1-.16992.0332H34.05859v1.582h2.17188a.42.42,0,0,1,.17187.0332.34817.34817,0,0,1,.123.0879.3652.3652,0,0,1,.07227.123.43667.43667,0,0,1,.02343.14258.41966.41966,0,0,1-.02539.14063.38086.38086,0,0,1-.07422.125.35866.35866,0,0,1-.12109.08789.40416.40416,0,0,1-.16992.0332H34.05859v1.71484h2.40625a.40408.40408,0,0,1,.16993.03321.35863.35863,0,0,1,.12109.08789.3652.3652,0,0,1,.07227.123.43667.43667,0,0,1,.02343.14258.44254.44254,0,0,1-.02343.14063.35365.35365,0,0,1-.19336.21289.40424.40424,0,0,1-.16993.0332Z" transform="translate(0 -0.27203)" style="fill: #fb9250"/>
    </g>
  </g>
  <g id="SYNC">
    <path id="path4695" d="M13.907,287.572c1,0,1.7-.5,1.7-1.4h0c0-.8-.5-1.1-1.5-1.4-.9-.2-1.1-.4-1.1-.7s.3-.6.8-.6a1.66613,1.66613,0,0,1,1.1.4c.1,0,.1.1.2.1a.43016.43016,0,0,0,.4-.4c0-.2-.1-.3-.2-.3a2.41012,2.41012,0,0,0-1.5-.4,1.48263,1.48263,0,0,0-1.6,1.4h0c0,.9.6,1.2,1.6,1.4.9.2,1.1.4,1.1.7h0c0,.4-.3.6-.8.6a2.10623,2.10623,0,0,1-1.3-.5.34914.34914,0,0,0-.2-.1.43016.43016,0,0,0-.4.4c0,.1.1.2.2.3C12.607,287.472,13.207,287.572,13.907,287.572Z" transform="translate(0 -0.27203)" style="fill: #454955"/>
    <path id="path4691" d="M18.10705,287.172a.4.4,0,0,0,.8,0v-1.5l1.6-2.2a.36738.36738,0,0,0,.1-.3.43014.43014,0,0,0-.4-.4c-.2,0-.3.1-.4.3l-1.4,1.9-1.3-1.9a.51952.51952,0,0,0-.4-.2.43017.43017,0,0,0-.4.4.36733.36733,0,0,0,.1.3l1.6,2.2Z" transform="translate(0 -0.27203)" style="fill: #454955"/>
    <path id="path4687" d="M21.60705,287.172a.4.4,0,0,0,.8,0v-3l2.4,3.2c.1.1.2.3.4.3h0a.43017.43017,0,0,0,.4-.4v-4a.4.4,0,0,0-.8,0v2.9l-2.4-3.1a.51961.51961,0,0,0-.4-.2h-.1a.43017.43017,0,0,0-.4.4Z" transform="translate(0 -0.27203)" style="fill: #454955"/>
    <path id="path4683" d="M29.407,287.672a2.19855,2.19855,0,0,0,1.7-.6.36739.36739,0,0,0,.1-.3.43015.43015,0,0,0-.4-.4c-.1,0-.2,0-.2.1a1.67065,1.67065,0,1,1-1.2-2.9,1.82,1.82,0,0,1,1.1.4.34913.34913,0,0,0,.2.1.43017.43017,0,0,0,.4-.4c0-.1-.1-.3-.2-.3a2.54461,2.54461,0,0,0-1.6-.5,2.369,2.369,0,0,0-2.4,2.4h0A2.52252,2.52252,0,0,0,29.407,287.672Z" transform="translate(0 -0.27203)" style="fill: #454955"/>
  </g>
  <g id="VBNO">
    <path id="path60" d="M7.00677,24.2c-.18632.4-.559.5-1.11789.5A1.23517,1.23517,0,0,1,4.771,24.2L1.41732,17.4h1.77l2.70157,5.7,2.70156-5.7h1.77Z" transform="translate(0 -0.27203)" style="fill: #454955"/>
    <path id="path62" d="M11.38516,17.4h7.35943c1.02474,0,1.49052.5,1.49052,1.4v1.4a.76779.76779,0,0,1-.37263.7.76779.76779,0,0,1,.37263.7v1.9c0,.9-.46578,1.4-1.49052,1.4H11.38516V20.3h7.17312q.27948,0,.27947-.3V19q0-.3-.27947-.3H11.38516Zm7.08,4.1H12.87568v1.9h5.58944q.27948,0,.27947-.3V21.7C18.74459,21.6,18.65144,21.5,18.46512,21.5Z" transform="translate(0 -0.27203)" style="fill: #454955"/>
    <path id="path64" d="M30.66874,17.4v6c0,.9-.46579,1.4-1.49052,1.4a2.13311,2.13311,0,0,1-1.3042-.5l-4.56471-5.5v6H21.81879v-6c0-.9.46578-1.4,1.49052-1.4a2.13313,2.13313,0,0,1,1.3042.5l4.56471,5.5v-6Z" transform="translate(0 -0.27203)" style="fill: #454955"/>
    <path id="path66" d="M33.74293,17.4h5.86892c1.02473,0,1.49051.5,1.49051,1.4v4.6c0,.9-.46578,1.4-1.49051,1.4H33.74293c-1.02473,0-1.49051-.5-1.49051-1.4V18.8C32.25242,17.8,32.7182,17.4,33.74293,17.4Zm5.58944,1.3h-5.31q-.27946,0-.27947.3v4.1q0,.3.27947.3h5.31q.27948,0,.27948-.3V19Q39.61185,18.7,39.33237,18.7Z" transform="translate(0 -0.27203)" style="fill: #454955"/>
  </g>
  <g>
    <path d="M22.87451,341.13184v1.17187H16.312a.20716.20716,0,0,0-.23437.23438v3.51562a.20716.20716,0,0,0,.23437.23438h6.5625V347.46H16.07764q-1.40625,0-1.40625-1.17187v-3.98438q0-1.17187,1.40625-1.17187Z" transform="translate(0 -0.27203)" style="fill: #454955"/>
    <path d="M29.23145,341.13184v1.17187h-6.562a.38087.38087,0,0,0,0,.70313l4.92139,1.40625q1.64063.46875,1.64063,1.17187v.70313q0,1.17188-1.40625,1.17187H21.02881v-1.17187h6.562a.38086.38086,0,0,0,0-.70313l-4.92139-1.40625q-1.64062-.46875-1.64062-1.17187v-.70313q0-1.17187,1.40625-1.17187Z" transform="translate(0 -0.27203)" style="fill: #fb9250"/>
  </g>
</svg>
