<svg id="svg11003" xmlns="http://www.w3.org/2000/svg" width="15.38111mm" height="133.84388mm" viewBox="0 0 43.6 379.39999">
  <title>VBNO</title>
  <path id="path33429" d="M0,.272H43.4v379.4H0Z" transform="translate(0 -0.27203)" style="fill: #dfdbda"/>
  <g id="OUT">
    <g id="g21">
      <path id="path36629" d="M35.907,295.972a3.00853,3.00853,0,0,0-3-3h-22.7a3.00853,3.00853,0,0,0-3,3v36a3.00853,3.00853,0,0,0,3,3h22.7a3.00853,3.00853,0,0,0,3-3Z" transform="translate(0 -0.27203)" style="fill: #454955"/>
      <g id="g19">
        <path id="path13" d="M12.907,300.172a5.01969,5.01969,0,0,1,.2-1.2,1.93352,1.93352,0,0,1,.5-.9,2.40657,2.40657,0,0,1,.8-.6,3.72944,3.72944,0,0,1,1.2-.2,5.01889,5.01889,0,0,1,1.2.2,1.242,1.242,0,0,1,.8.6,4.05308,4.05308,0,0,1,.5.9,4.29746,4.29746,0,0,1,.2,1.2,5.01961,5.01961,0,0,1-.2,1.2,1.93351,1.93351,0,0,1-.5.9,2.40654,2.40654,0,0,1-.8.6,3.72941,3.72941,0,0,1-1.2.2,5.01891,5.01891,0,0,1-1.2-.2,1.24193,1.24193,0,0,1-.8-.6,4.05336,4.05336,0,0,1-.5-.9A4.29734,4.29734,0,0,1,12.907,300.172Zm1.1,0a2.76856,2.76856,0,0,0,.1.9,4.8769,4.8769,0,0,0,.3.7.99834.99834,0,0,0,.5.4,1.32494,1.32494,0,0,0,1.4,0,2.18155,2.18155,0,0,0,.5-.4,2.38967,2.38967,0,0,0,.3-.7,4.1,4.1,0,0,0,0-1.8,4.8764,4.8764,0,0,0-.3-.7c-.1-.2-.3-.3-.5-.5a.84369.84369,0,0,0-.7-.2,1.44521,1.44521,0,0,0-.7.2,1.205,1.205,0,0,0-.5.5,4.87605,4.87605,0,0,0-.3.7A2.7685,2.7685,0,0,0,14.007,300.172Z" transform="translate(0 -0.27203)" style="fill: #fb9250"/>
        <path id="path15" d="M19.307,297.872v-.2a.34914.34914,0,0,0,.1-.2c0-.1.1-.1.2-.1h.4c.1,0,.1.1.2.1s.1.1.1.2v3.4a1.26834,1.26834,0,0,0,.1.6,1.38033,1.38033,0,0,0,.3.4.75814.75814,0,0,0,.4.2,4.33112,4.33112,0,0,0,.5.1.90142.90142,0,0,0,.5-.1c.2-.1.3-.1.4-.2a1.38107,1.38107,0,0,0,.3-.4,1.26834,1.26834,0,0,0,.1-.6v-3.4c0-.1.1-.1.1-.2a.34913.34913,0,0,1,.2-.1h.4c.1,0,.1.1.2.1a.34918.34918,0,0,1,.1.2v3.4a2.91986,2.91986,0,0,1-.2.9,1.02421,1.02421,0,0,1-.5.6,2.5064,2.5064,0,0,1-.7.4,2.76833,2.76833,0,0,1-.9.1,2.76836,2.76836,0,0,1-.9-.1,1.612,1.612,0,0,1-.7-.4,2.65157,2.65157,0,0,1-.5-.6,2.38829,2.38829,0,0,1-.2-.9Z" transform="translate(0 -0.27203)" style="fill: #fb9250"/>
        <path id="path17" d="M24.807,298.172h-.2a.09794.09794,0,0,1-.1-.1l-.1-.1v-.2a.098.098,0,0,1,.1-.1l.1-.1h4.1l.1.1.1.1v.2a.098.098,0,0,1-.1.1l-.1.1h-1.5v4.5c0,.1-.1.1-.1.2a.34913.34913,0,0,1-.2.1h-.4c-.1,0-.1-.1-.2-.1a.34914.34914,0,0,1-.1-.2v-4.5Z" transform="translate(0 -0.27203)" style="fill: #fb9250"/>
      </g>
    </g>
  </g>
  <g id="NOTE">
    <rect id="rect36" y="95.42797" width="43.2" height="8.6" style="fill: #454955"/>
    <g id="g46">
      <path id="path38" d="M11.5,97.7v-.3c0-.1.1-.1.1-.2s.1-.1.2-.1H12a.36737.36737,0,0,1,.3.1c.1.1.2.1.3.2l2.7,3.9v-4a.09794.09794,0,0,1,.1-.1l.1-.1h.4c.1,0,.1,0,.1.1a.09794.09794,0,0,0,.1.1v5.1c0,.1-.1.1-.1.2s-.1.1-.2.1h-.2a.36737.36737,0,0,1-.3-.1c-.1-.1-.2-.1-.3-.2l-2.7-3.9v4a.09794.09794,0,0,1-.1.1l-.1.1h-.4c-.1,0-.1,0-.1-.1a.09794.09794,0,0,0-.1-.1V97.7Z" transform="translate(0 -0.27203)" style="fill: #fb9250"/>
      <path id="path40" d="M17.3,99.9a5.01937,5.01937,0,0,1,.2-1.2,1.93371,1.93371,0,0,1,.5-.9,2.40668,2.40668,0,0,1,.8-.6A3.73,3.73,0,0,1,20,97a5.01985,5.01985,0,0,1,1.2.2,1.242,1.242,0,0,1,.8.6,4.05358,4.05358,0,0,1,.5.9,3.7,3.7,0,0,1,0,2.4,1.93361,1.93361,0,0,1-.5.9,1.55511,1.55511,0,0,1-.8.6,3.72969,3.72969,0,0,1-1.2.2,5.01937,5.01937,0,0,1-1.2-.2,1.55511,1.55511,0,0,1-.8-.6,4.05336,4.05336,0,0,1-.5-.9A4.29758,4.29758,0,0,1,17.3,99.9Zm1.1,0a2.76856,2.76856,0,0,0,.1.9,4.87474,4.87474,0,0,0,.3.7.99837.99837,0,0,0,.5.4,1.48276,1.48276,0,0,0,.7.1,1.44531,1.44531,0,0,0,.7-.2,2.18134,2.18134,0,0,0,.5-.4,4.87524,4.87524,0,0,0,.3-.7,4.1,4.1,0,0,0,0-1.8,4.87524,4.87524,0,0,0-.3-.7c-.1-.2-.3-.3-.5-.5a1.32506,1.32506,0,0,0-1.4,0,1.20509,1.20509,0,0,0-.5.5,4.87573,4.87573,0,0,0-.3.7A3.40193,3.40193,0,0,0,18.4,99.9Z" transform="translate(0 -0.27203)" style="fill: #fb9250"/>
      <path id="path42" d="M23.3,97.8h-.2c-.1,0-.1,0-.1-.1a.09793.09793,0,0,0-.1-.1v-.2a.09794.09794,0,0,1,.1-.1.09794.09794,0,0,0,.1-.1h4.1a.09794.09794,0,0,1,.1.1l.1.1v.2a.09794.09794,0,0,1-.1.1.09794.09794,0,0,0-.1.1H25.7v4.5a.34909.34909,0,0,0-.1.2c0,.1-.1.1-.2.1H25c-.1,0-.1-.1-.2-.1s-.1-.1-.1-.2V97.8Z" transform="translate(0 -0.27203)" style="fill: #fb9250"/>
      <path id="path44" d="M28.7,102.7h-.2c-.1,0-.1-.1-.2-.1s-.1-.1-.1-.2v-5c0-.1.1-.1.1-.2s.1-.1.2-.1h3.2a.09794.09794,0,0,1,.1.1l.1.1v.2a.09794.09794,0,0,1-.1.1.09793.09793,0,0,0-.1.1H29.2v1.6h2.4a.09794.09794,0,0,1,.1.1l.1.1v.2a.09794.09794,0,0,1-.1.1.09793.09793,0,0,0-.1.1H29.2v1.7h2.6a.09794.09794,0,0,1,.1.1l.1.1v.2a.09794.09794,0,0,1-.1.1.09794.09794,0,0,0-.1.1H28.7Z" transform="translate(0 -0.27203)" style="fill: #fb9250"/>
    </g>
  </g>
  <g id="FN">
    <rect id="rect50" x="0.4" y="161.02798" width="43.2" height="8.60001" style="fill: #454955"/>
    <g id="g56">
      <path id="path52" d="M16.9,163.1v-.2c0-.1.1-.1.1-.2s.1-.1.2-.1h3.1a.09794.09794,0,0,1,.1.1l.1.1v.2a.098.098,0,0,1-.1.1.09794.09794,0,0,0-.1.1H18v1.6h2.2a.09794.09794,0,0,1,.1.1l.1.1v.2a.098.098,0,0,1-.1.1.098.098,0,0,0-.1.1H18v2.2a.34918.34918,0,0,0-.1.2c0,.1-.1.1-.2.1h-.4c-.1,0-.1-.1-.2-.1S17,168,17,168v-4.9Z" transform="translate(0 -0.27203)" style="fill: #fb9250"/>
      <path id="path54" d="M21.5,163.3V163c0-.1.1-.1.1-.2s.1-.1.2-.1H22a.36737.36737,0,0,1,.3.1c.1.1.2.1.3.2l2.7,3.9v-4a.09794.09794,0,0,1,.1-.1l.1-.1h.4c.1,0,.1,0,.1.1a.09794.09794,0,0,0,.1.1V168c0,.1-.1.1-.1.2-.1.1-.1.1-.2.1h-.2a.36737.36737,0,0,1-.3-.1c-.1-.1-.2-.1-.3-.2l-2.7-3.9v4a.098.098,0,0,1-.1.1l-.1.1h-.4c-.1,0-.1,0-.1-.1a.09794.09794,0,0,0-.1-.1v-4.8Z" transform="translate(0 -0.27203)" style="fill: #fb9250"/>
    </g>
  </g>
  <g id="OCT">
    <path id="rect23" d="M.00705,28.372h43.2v8.6h-43.2Z" transform="translate(0 -0.27203)" style="fill: #454955"/>
    <g id="g31">
      <path id="path25" d="M12.407,32.572a5.01937,5.01937,0,0,1,.2-1.2,1.93366,1.93366,0,0,1,.5-.9,2.40681,2.40681,0,0,1,.8-.6,3.73,3.73,0,0,1,1.2-.2,5.01985,5.01985,0,0,1,1.2.2,1.242,1.242,0,0,1,.8.6,4.05358,4.05358,0,0,1,.5.9,4.29771,4.29771,0,0,1,.2,1.2,5.01937,5.01937,0,0,1-.2,1.2,1.93361,1.93361,0,0,1-.5.9,2.40668,2.40668,0,0,1-.8.6,3.72974,3.72974,0,0,1-1.2.2,5.01937,5.01937,0,0,1-1.2-.2,1.242,1.242,0,0,1-.8-.6,4.05336,4.05336,0,0,1-.5-.9A4.29758,4.29758,0,0,1,12.407,32.572Zm1.1,0a2.76856,2.76856,0,0,0,.1.9,4.87474,4.87474,0,0,0,.3.7.99841.99841,0,0,0,.5.4,1.325,1.325,0,0,0,1.4,0,2.18156,2.18156,0,0,0,.5-.4,2.38958,2.38958,0,0,0,.3-.7,4.1,4.1,0,0,0,0-1.8,4.87524,4.87524,0,0,0-.3-.7c-.1-.2-.3-.3-.5-.5a.84378.84378,0,0,0-.7-.2,1.44531,1.44531,0,0,0-.7.2,1.20514,1.20514,0,0,0-.5.5,4.87637,4.87637,0,0,0-.3.7A2.76856,2.76856,0,0,0,13.507,32.572Z" transform="translate(0 -0.27203)" style="fill: #fb9250"/>
      <path id="path27" d="M18.60705,32.572a3.73,3.73,0,0,1,.2-1.2,2.62213,2.62213,0,0,1,.5-.9,2.40675,2.40675,0,0,1,.8-.6,3.59517,3.59517,0,0,1,1.1-.2,1.70173,1.70173,0,0,1,.7.1,2.61346,2.61346,0,0,1,.8.3c.1,0,.1.1.2.2s.1.1.1.2v.1a.09794.09794,0,0,1-.1.1l-.1.1h-.4a5.15987,5.15987,0,0,0-1.1-.2,1.4827,1.4827,0,0,0-.7.1.99833.99833,0,0,0-.5.4,4.87628,4.87628,0,0,0-.3.7,2.76856,2.76856,0,0,0-.1.9,1.94945,1.94945,0,0,0,.1.8,4.87353,4.87353,0,0,0,.3.7.99833.99833,0,0,0,.5.4,1.44527,1.44527,0,0,0,.7.2,1.26834,1.26834,0,0,0,.6-.1,6.37292,6.37292,0,0,1,.7-.2h.3a.09794.09794,0,0,1,.1.1.09794.09794,0,0,0,.1.1v.1c0,.1,0,.2-.1.2s-.1.1-.2.2a3.42861,3.42861,0,0,1-1.6.4,4.25272,4.25272,0,0,1-1.1-.2,1.55519,1.55519,0,0,1-.8-.6,4.05376,4.05376,0,0,1-.5-.9A5.06708,5.06708,0,0,1,18.60705,32.572Z" transform="translate(0 -0.27203)" style="fill: #fb9250"/>
      <path id="path29" d="M24.20705,30.572h-.2a.09794.09794,0,0,1-.1-.1l-.1-.1v-.2a.09794.09794,0,0,1,.1-.1.09794.09794,0,0,0,.1-.1h4.1a.09794.09794,0,0,0,.1-.1l.1.1v.2a.09794.09794,0,0,1-.1.1.09793.09793,0,0,0-.1.1h-1.5v4.5a.34914.34914,0,0,0-.1.2c0,.1-.1.1-.2.1h-.4c-.1,0-.1-.1-.2-.1s-.1-.1-.1-.2v-4.5h-1.4Z" transform="translate(0 -0.27203)" style="fill: #fb9250"/>
    </g>
  </g>
  <g id="SYNC">
    <path id="path4695" d="M13.907,287.572c1,0,1.7-.5,1.7-1.4h0c0-.8-.5-1.1-1.5-1.4-.9-.2-1.1-.4-1.1-.7s.3-.6.8-.6a1.66613,1.66613,0,0,1,1.1.4c.1,0,.1.1.2.1a.43016.43016,0,0,0,.4-.4c0-.2-.1-.3-.2-.3a2.41012,2.41012,0,0,0-1.5-.4,1.48263,1.48263,0,0,0-1.6,1.4h0c0,.9.6,1.2,1.6,1.4.9.2,1.1.4,1.1.7h0c0,.4-.3.6-.8.6a2.10623,2.10623,0,0,1-1.3-.5.34914.34914,0,0,0-.2-.1.43016.43016,0,0,0-.4.4c0,.1.1.2.2.3C12.607,287.472,13.207,287.572,13.907,287.572Z" transform="translate(0 -0.27203)" style="fill: #454955"/>
    <path id="path4691" d="M18.10705,287.172a.4.4,0,0,0,.8,0v-1.5l1.6-2.2a.36738.36738,0,0,0,.1-.3.43014.43014,0,0,0-.4-.4c-.2,0-.3.1-.4.3l-1.4,1.9-1.3-1.9a.51952.51952,0,0,0-.4-.2.43017.43017,0,0,0-.4.4.36733.36733,0,0,0,.1.3l1.6,2.2Z" transform="translate(0 -0.27203)" style="fill: #454955"/>
    <path id="path4687" d="M21.60705,287.172a.4.4,0,0,0,.8,0v-3l2.4,3.2c.1.1.2.3.4.3h0a.43017.43017,0,0,0,.4-.4v-4a.4.4,0,0,0-.8,0v2.9l-2.4-3.1a.51961.51961,0,0,0-.4-.2h-.1a.43017.43017,0,0,0-.4.4Z" transform="translate(0 -0.27203)" style="fill: #454955"/>
    <path id="path4683" d="M29.407,287.672a2.19855,2.19855,0,0,0,1.7-.6.36739.36739,0,0,0,.1-.3.43015.43015,0,0,0-.4-.4c-.1,0-.2,0-.2.1a1.67065,1.67065,0,1,1-1.2-2.9,1.82,1.82,0,0,1,1.1.4.34913.34913,0,0,0,.2.1.43017.43017,0,0,0,.4-.4c0-.1-.1-.3-.2-.3a2.54461,2.54461,0,0,0-1.6-.5,2.369,2.369,0,0,0-2.4,2.4h0A2.52252,2.52252,0,0,0,29.407,287.672Z" transform="translate(0 -0.27203)" style="fill: #454955"/>
  </g>
  <g id="VBNO">
    <path id="path60" d="M7.00677,24.2c-.18632.4-.559.5-1.11789.5A1.23517,1.23517,0,0,1,4.771,24.2L1.41732,17.4h1.77l2.70157,5.7,2.70156-5.7h1.77Z" transform="translate(0 -0.27203)" style="fill: #454955"/>
    <path id="path62" d="M11.38516,17.4h7.35943c1.02474,0,1.49052.5,1.49052,1.4v1.4a.76779.76779,0,0,1-.37263.7.76779.76779,0,0,1,.37263.7v1.9c0,.9-.46578,1.4-1.49052,1.4H11.38516V20.3h7.17312q.27948,0,.27947-.3V19q0-.3-.27947-.3H11.38516Zm7.08,4.1H12.87568v1.9h5.58944q.27948,0,.27947-.3V21.7C18.74459,21.6,18.65144,21.5,18.46512,21.5Z" transform="translate(0 -0.27203)" style="fill: #454955"/>
    <path id="path64" d="M30.66874,17.4v6c0,.9-.46579,1.4-1.49052,1.4a2.13311,2.13311,0,0,1-1.3042-.5l-4.56471-5.5v6H21.81879v-6c0-.9.46578-1.4,1.49052-1.4a2.13313,2.13313,0,0,1,1.3042.5l4.56471,5.5v-6Z" transform="translate(0 -0.27203)" style="fill: #454955"/>
    <path id="path66" d="M33.74293,17.4h5.86892c1.02473,0,1.49051.5,1.49051,1.4v4.6c0,.9-.46578,1.4-1.49051,1.4H33.74293c-1.02473,0-1.49051-.5-1.49051-1.4V18.8C32.25242,17.8,32.7182,17.4,33.74293,17.4Zm5.58944,1.3h-5.31q-.27946,0-.27947.3v4.1q0,.3.27947.3h5.31q.27948,0,.27948-.3V19Q39.61185,18.7,39.33237,18.7Z" transform="translate(0 -0.27203)" style="fill: #454955"/>
  </g>
  <g>
    <path d="M22.87451,341.13184v1.17187H16.312a.20716.20716,0,0,0-.23437.23438v3.51562a.20716.20716,0,0,0,.23437.23438h6.5625V347.46H16.07764q-1.40625,0-1.40625-1.17187v-3.98438q0-1.17187,1.40625-1.17187Z" transform="translate(0 -0.27203)" style="fill: #454955"/>
    <path d="M29.23145,341.13184v1.17187h-6.562a.38087.38087,0,0,0,0,.70313l4.92139,1.40625q1.64063.46875,1.64063,1.17187v.70313q0,1.17188-1.40625,1.17187H21.02881v-1.17187h6.562a.38086.38086,0,0,0,0-.70313l-4.92139-1.40625q-1.64062-.46875-1.64062-1.17187v-.70313q0-1.17187,1.40625-1.17187Z" transform="translate(0 -0.27203)" style="fill: #fb9250"/>
  </g>
</svg>
