<?xml version="1.0" encoding="UTF-8" standalone="no"?>
<svg
   xmlns:dc="http://purl.org/dc/elements/1.1/"
   xmlns:cc="http://creativecommons.org/ns#"
   xmlns:rdf="http://www.w3.org/1999/02/22-rdf-syntax-ns#"
   xmlns:svg="http://www.w3.org/2000/svg"
   xmlns="http://www.w3.org/2000/svg"
   xmlns:sodipodi="http://sodipodi.sourceforge.net/DTD/sodipodi-0.dtd"
   xmlns:inkscape="http://www.inkscape.org/namespaces/inkscape"
   sodipodi:docname="VCOh-2.svg"
   inkscape:version="1.0 (4035a4fb49, 2020-05-01)"
   id="svg11003"
   version="1.1"
   viewBox="0 0 39.747425 100.54166"
   height="379.99997"
   width="150.22649">
  <defs
     id="defs10997" />
  <sodipodi:namedview
     inkscape:document-rotation="0"
     units="px"
     inkscape:window-maximized="0"
     inkscape:window-y="75"
     inkscape:window-x="553"
     inkscape:window-height="1422"
     inkscape:window-width="1561"
     fit-margin-bottom="0"
     fit-margin-right="0"
     fit-margin-left="0"
     fit-margin-top="0"
     showgrid="false"
     inkscape:current-layer="layer1"
     inkscape:document-units="mm"
     inkscape:cy="187.25563"
     inkscape:cx="96.060087"
     inkscape:zoom="2.8"
     inkscape:pageshadow="2"
     inkscape:pageopacity="0.0"
     borderopacity="1.0"
     bordercolor="#666666"
     pagecolor="#ffffff"
     id="base" />
  <metadata
     id="metadata11000">
    <rdf:RDF>
      <cc:Work
         rdf:about="">
        <dc:format>image/svg+xml</dc:format>
        <dc:type
           rdf:resource="http://purl.org/dc/dcmitype/StillImage" />
        <dc:title></dc:title>
      </cc:Work>
    </rdf:RDF>
  </metadata>
  <g
     style="display:inline"
     transform="translate(-64.792954,-75.127975)"
     id="layer1"
     inkscape:groupmode="layer"
     inkscape:label="Layer 1">
    <path
       style="fill:#808080;fill-opacity:1;fill-rule:nonzero;stroke:none;stroke-width:0.276024"
       d="M 64.866273,75.201293 H 104.46706 V 175.59739 H 64.866273 Z m 0,0"
       id="path33429"
       inkscape:connector-curvature="0" />
    <path
       inkscape:connector-curvature="0"
       id="path4739"
       d="m 89.889542,88.029787 c 0,0.09488 0.07332,0.168202 0.168202,0.168202 0.09488,0 0.168202,-0.07332 0.168202,-0.168202 v -0.629679 h 0.836697 c 0.08195,0 0.150951,-0.06901 0.150951,-0.155264 0,-0.08626 -0.06901,-0.155263 -0.150951,-0.155263 H 90.225946 V 86.56341 h 0.957458 c 0.08626,0 0.155263,-0.06901 0.155263,-0.155263 0,-0.08626 -0.06901,-0.155264 -0.155263,-0.155264 h -1.12566 c -0.09488,0 -0.168202,0.07332 -0.168202,0.172515 z m 0,0"
       style="fill:#f9f9f9;fill-opacity:1;stroke:none;stroke-width:0.276024" />
    <path
       inkscape:connector-curvature="0"
       id="path4735"
       d="m 91.709364,88.029787 c 0,0.09488 0.07332,0.168202 0.168202,0.168202 0.09488,0 0.168202,-0.07332 0.168202,-0.168202 v -0.517545 h 0.431287 l 0.46579,0.599489 c 0.03882,0.05175 0.09057,0.08626 0.168202,0.08626 0.08194,0 0.159576,-0.06469 0.159576,-0.155264 0,-0.05175 -0.02156,-0.09057 -0.05175,-0.129386 l -0.370907,-0.470103 c 0.258772,-0.07763 0.439913,-0.267398 0.439913,-0.573612 v -0.0086 c 0,-0.168202 -0.06038,-0.310527 -0.159577,-0.414036 -0.125073,-0.12076 -0.314839,-0.194079 -0.560673,-0.194079 H 91.87757 c -0.09488,0 -0.168202,0.07332 -0.168202,0.172515 z m 0.336404,-0.819446 V 86.56341 h 0.49598 c 0.250147,0 0.401097,0.112135 0.401097,0.319153 v 0.0043 c 0,0.198392 -0.155263,0.323465 -0.396784,0.323465 z m 0,0"
       style="fill:#f9f9f9;fill-opacity:1;stroke:none;stroke-width:0.276024" />
    <path
       inkscape:connector-curvature="0"
       id="path4731"
       d="m 93.923181,88.18505 h 1.138598 c 0.08195,0 0.15095,-0.06469 0.15095,-0.150951 0,-0.08194 -0.06901,-0.15095 -0.15095,-0.15095 h -0.970396 v -0.521857 h 0.832384 c 0.08195,0 0.150951,-0.06469 0.150951,-0.146638 0,-0.08626 -0.06901,-0.155263 -0.150951,-0.155263 h -0.832384 v -0.504606 h 0.957457 c 0.08195,0 0.150951,-0.06469 0.150951,-0.150951 0,-0.08195 -0.06901,-0.150951 -0.150951,-0.150951 h -1.125659 c -0.09488,0 -0.168202,0.07332 -0.168202,0.172515 v 1.587137 c 0,0.0992 0.07332,0.172515 0.168202,0.172515 z m 0,0"
       style="fill:#f9f9f9;fill-opacity:1;stroke:none;stroke-width:0.276024" />
    <path
       inkscape:connector-curvature="0"
       id="path4727"
       d="m 96.506418,88.219553 c 0.22427,0 0.426975,-0.06901 0.590864,-0.185454 l 0.138012,0.125074 c 0.03019,0.03019 0.06901,0.05175 0.116447,0.05175 0.09057,0 0.159576,-0.07763 0.159576,-0.163889 0,-0.05607 -0.02156,-0.0992 -0.06038,-0.133699 l -0.125073,-0.0992 c 0.125073,-0.168202 0.194079,-0.37522 0.194079,-0.595176 v -0.0043 c 0,-0.543422 -0.414035,-0.996273 -1.004899,-0.996273 -0.595176,0 -1.013525,0.457164 -1.013525,1.000586 v 0.0043 c 0,0.543422 0.414036,0.996273 1.004899,0.996273 z m 0.0992,-0.608115 0.241521,0.202705 c -0.09488,0.05607 -0.207018,0.09057 -0.332091,0.09057 -0.383845,0 -0.659869,-0.310526 -0.659869,-0.685746 v -0.0043 c 0,-0.37522 0.267398,-0.681433 0.651243,-0.681433 0.383846,0 0.65987,0.310526 0.65987,0.685746 v 0.0043 c 0,0.138012 -0.0345,0.263085 -0.09488,0.366594 l -0.250154,-0.224269 c -0.03882,-0.0345 -0.06901,-0.05175 -0.116447,-0.05175 -0.09057,0 -0.159577,0.07763 -0.159577,0.163889 0,0.06038 0.02156,0.0992 0.06038,0.133699 z m 0,0"
       style="fill:#f9f9f9;fill-opacity:1;stroke:none;stroke-width:0.276024" />
    <path
       inkscape:connector-curvature="0"
       id="path4723"
       d="m 90.874037,106.85917 h 0.01294 c 0.06038,0 0.103509,-0.0345 0.125074,-0.0906 l 0.444225,-1.0394 c 0.0043,-0.0129 0.0086,-0.0302 0.0086,-0.0474 0,-0.0561 -0.04744,-0.10351 -0.107821,-0.10351 -0.05175,0 -0.09057,0.0345 -0.107822,0.069 l -0.366599,0.91432 -0.362281,-0.9057 c -0.01725,-0.0474 -0.05607,-0.0776 -0.112134,-0.0776 -0.06469,0 -0.112135,0.0474 -0.112135,0.10782 0,0.0173 0.0043,0.0345 0.01294,0.0517 l 0.439912,1.03078 c 0.02156,0.0561 0.06469,0.0906 0.125074,0.0906 z m 0,0"
       style="fill:#f9f9f9;fill-opacity:1;stroke:none;stroke-width:0.276024" />
    <path
       inkscape:connector-curvature="0"
       id="path4719"
       d="m 91.453584,106.99718 c 0,0.0474 0.03882,0.0819 0.08626,0.0819 0.0345,0 0.06038,-0.0173 0.07763,-0.0474 l 0.733188,-1.50519 c 0.0043,-0.009 0.0086,-0.0259 0.0086,-0.0431 0,-0.0431 -0.0345,-0.082 -0.08195,-0.082 -0.0345,0 -0.06469,0.0173 -0.07763,0.0517 l -0.737505,1.50089 c -0.0043,0.0129 -0.0086,0.0259 -0.0086,0.0431 z m 0,0"
       style="fill:#f9f9f9;fill-opacity:1;stroke:none;stroke-width:0.276024" />
    <path
       inkscape:connector-curvature="0"
       id="path4715"
       d="m 93.115648,106.86348 c 0.388159,0 0.65987,-0.29758 0.65987,-0.65124 0,-0.35366 -0.267398,-0.64693 -0.655557,-0.64693 -0.383846,0 -0.655556,0.29327 -0.655556,0.64693 v 0.004 c 0,0.35365 0.267398,0.64693 0.651243,0.64693 z m 0.0043,-0.2027 c -0.250146,0 -0.426974,-0.20271 -0.426974,-0.44854 0,-0.24584 0.176828,-0.44423 0.422662,-0.44423 0.250146,0 0.426974,0.20271 0.426974,0.44423 v 0.004 c 0,0.24583 -0.172515,0.44422 -0.422662,0.44422 z m 0,0"
       style="fill:#f9f9f9;fill-opacity:1;stroke:none;stroke-width:0.276024" />
    <path
       inkscape:connector-curvature="0"
       id="path4711"
       d="m 94.67672,106.86348 c 0.202705,0 0.336404,-0.0647 0.452852,-0.1682 0.02156,-0.0172 0.03882,-0.0474 0.03882,-0.0776 0,-0.0561 -0.05175,-0.10351 -0.107822,-0.10351 -0.02588,0 -0.04744,0.009 -0.06469,0.0259 -0.09057,0.0776 -0.18114,0.12076 -0.314839,0.12076 -0.237208,0 -0.414036,-0.2027 -0.414036,-0.44854 0,-0.24583 0.176828,-0.44422 0.414036,-0.44422 0.12076,0 0.215643,0.0431 0.301901,0.11213 0.01294,0.0129 0.0345,0.0216 0.06469,0.0216 0.06038,0 0.112135,-0.0474 0.112135,-0.10782 0,-0.0388 -0.02156,-0.069 -0.04313,-0.0863 -0.112135,-0.0863 -0.237209,-0.14233 -0.431288,-0.14233 -0.379532,0 -0.646931,0.29328 -0.646931,0.64693 v 0.004 c 0,0.36228 0.271711,0.64693 0.638305,0.64693 z m 0,0"
       style="fill:#f9f9f9;fill-opacity:1;stroke:none;stroke-width:0.276024" />
    <path
       inkscape:connector-curvature="0"
       id="path4707"
       d="m 95.790808,106.74272 c 0,0.0604 0.05175,0.10782 0.112135,0.10782 0.06038,0 0.112134,-0.0474 0.112134,-0.10782 v -0.95314 h 0.306214 c 0.05607,0 0.0992,-0.0474 0.0992,-0.0992 0,-0.0561 -0.04313,-0.10351 -0.0992,-0.10351 h -0.836697 c -0.05607,0 -0.0992,0.0474 -0.0992,0.10351 0,0.0517 0.04313,0.0992 0.0992,0.0992 h 0.306214 z m 0,0"
       style="fill:#f9f9f9;fill-opacity:1;stroke:none;stroke-width:0.276024" />
    <path
       inkscape:connector-curvature="0"
       id="path4695"
       d="m 87.159367,146.73566 c 0.267398,0 0.448538,-0.13801 0.448538,-0.37522 v -0.004 c 0,-0.20702 -0.133699,-0.3019 -0.401097,-0.36659 -0.241521,-0.0561 -0.297588,-0.0992 -0.297588,-0.1984 0,-0.0863 0.07332,-0.15095 0.202705,-0.15095 0.0992,0 0.194079,0.0302 0.288962,0.0949 0.01725,0.0129 0.0345,0.0172 0.05607,0.0172 0.06038,0 0.107822,-0.0474 0.107822,-0.1035 0,-0.0431 -0.02588,-0.0733 -0.05175,-0.0863 -0.112135,-0.0776 -0.237208,-0.11645 -0.396784,-0.11645 -0.250147,0 -0.426974,0.14664 -0.426974,0.36228 v 0.004 c 0,0.2329 0.146637,0.31053 0.414035,0.37522 0.237208,0.0517 0.28465,0.10351 0.28465,0.18977 v 0.004 c 0,0.0949 -0.08626,0.15957 -0.219957,0.15957 -0.138012,0 -0.250146,-0.0474 -0.353655,-0.12938 -0.01294,-0.0129 -0.0345,-0.0216 -0.06469,-0.0216 -0.05607,0 -0.103509,0.0474 -0.103509,0.10351 0,0.0345 0.01725,0.0647 0.04313,0.0863 0.138011,0.10351 0.301901,0.15526 0.470103,0.15526 z m 0,0"
       style="fill:#f9f9f9;fill-opacity:1;stroke:none;stroke-width:0.276024" />
    <path
       inkscape:connector-curvature="0"
       id="path4691"
       d="m 88.270529,146.61921 c 0,0.0604 0.05175,0.10782 0.112135,0.10782 0.06038,0 0.112135,-0.0474 0.112135,-0.10782 v -0.39247 l 0.426974,-0.58655 c 0.01725,-0.0216 0.03019,-0.0517 0.03019,-0.0819 0,-0.0561 -0.04313,-0.10782 -0.107822,-0.10782 -0.04744,0 -0.07763,0.0302 -0.103509,0.069 l -0.357968,0.50461 -0.349343,-0.50461 c -0.02588,-0.0388 -0.06038,-0.0647 -0.107822,-0.0647 -0.06038,0 -0.112134,0.0474 -0.112134,0.10351 0,0.0302 0.01294,0.0561 0.02588,0.0776 l 0.431287,0.59518 z m 0,0"
       style="fill:#f9f9f9;fill-opacity:1;stroke:none;stroke-width:0.276024" />
    <path
       inkscape:connector-curvature="0"
       id="path4687"
       d="m 89.212252,146.61921 c 0,0.0604 0.05175,0.10782 0.112134,0.10782 0.06038,0 0.107822,-0.0474 0.107822,-0.10782 v -0.79788 l 0.646931,0.8367 c 0.03019,0.0388 0.06038,0.069 0.112134,0.069 h 0.0086 c 0.06038,0 0.107822,-0.0517 0.107822,-0.11213 v -1.05235 c 0,-0.0604 -0.04744,-0.10782 -0.107822,-0.10782 -0.06038,0 -0.107822,0.0474 -0.107822,0.10782 v 0.77201 l -0.629679,-0.81513 c -0.03019,-0.0388 -0.06038,-0.0647 -0.112135,-0.0647 h -0.02588 c -0.06038,0 -0.112135,0.0517 -0.112135,0.11213 z m 0,0"
       style="fill:#f9f9f9;fill-opacity:1;stroke:none;stroke-width:0.276024" />
    <path
       inkscape:connector-curvature="0"
       id="path4683"
       d="m 91.271623,146.73997 c 0.202705,0 0.336402,-0.0647 0.45285,-0.1682 0.02156,-0.0172 0.03882,-0.0474 0.03882,-0.0776 0,-0.0561 -0.05175,-0.10351 -0.107823,-0.10351 -0.02588,0 -0.04744,0.009 -0.06469,0.0259 -0.09057,0.0776 -0.181139,0.12076 -0.314838,0.12076 -0.237209,0 -0.414036,-0.2027 -0.414036,-0.44854 0,-0.24583 0.176827,-0.44422 0.414036,-0.44422 0.120758,0 0.215643,0.0431 0.3019,0.11213 0.01294,0.0129 0.0345,0.0216 0.06469,0.0216 0.06038,0 0.112136,-0.0474 0.112136,-0.10782 0,-0.0388 -0.02156,-0.069 -0.04313,-0.0863 -0.112135,-0.0863 -0.237207,-0.14233 -0.431286,-0.14233 -0.379534,0 -0.646932,0.29328 -0.646932,0.64693 v 0.004 c 0,0.36228 0.271711,0.64693 0.638306,0.64693 z m 0,0"
       style="fill:#f9f9f9;fill-opacity:1;stroke:none;stroke-width:0.276024" />
    <path
       style="fill:#f9f9f9;stroke:#000000;stroke-width:0.183832;stroke-linecap:round;stroke-linejoin:round;stroke-miterlimit:10;stroke-opacity:1"
       d="m 66.78011,142.84438 h 35.77311"
       id="path33631"
       inkscape:connector-curvature="0" />
    <path
       inkscape:connector-curvature="0"
       id="path4667"
       d="m 80.710678,82.646522 h 0.0345 c 0.138012,0 0.232895,-0.07332 0.284649,-0.198392 l 0.759066,-1.815719 c 0.01294,-0.03019 0.02588,-0.07332 0.02588,-0.112134 0,-0.142325 -0.112134,-0.245834 -0.250146,-0.245834 -0.120761,0 -0.211331,0.07763 -0.245834,0.159576 l -0.586552,1.518131 -0.577924,-1.500879 c -0.03882,-0.103509 -0.125074,-0.176828 -0.258773,-0.176828 -0.142324,0 -0.254459,0.107822 -0.254459,0.250146 0,0.04313 0.01294,0.08194 0.03019,0.125074 l 0.750439,1.798467 c 0.05175,0.125073 0.150951,0.198392 0.288964,0.198392 z m 0,0"
       style="fill:#f9f9f9;fill-opacity:1;stroke:none;stroke-width:0.276024" />
    <path
       inkscape:connector-curvature="0"
       id="path4663"
       d="m 83.205773,82.650835 c 0.370907,0 0.616741,-0.107822 0.828072,-0.288962 0.04313,-0.04313 0.08626,-0.103509 0.08626,-0.185454 0,-0.129386 -0.112135,-0.232895 -0.241521,-0.232895 -0.06038,0 -0.112134,0.02156 -0.15095,0.05607 -0.146638,0.116448 -0.288963,0.181141 -0.504606,0.181141 -0.396784,0 -0.672808,-0.332091 -0.672808,-0.728876 v -0.0043 c 0,-0.396784 0.284649,-0.724562 0.672808,-0.724562 0.18114,0 0.332091,0.06038 0.474416,0.168202 0.03882,0.02156 0.08194,0.04744 0.15095,0.04744 0.142325,0 0.25446,-0.107822 0.25446,-0.245834 0,-0.09057 -0.04744,-0.163889 -0.0992,-0.202705 -0.19408,-0.142324 -0.426975,-0.237208 -0.776317,-0.237208 -0.711624,0 -1.207604,0.53911 -1.207604,1.198979 v 0.0086 c 0,0.664182 0.504606,1.190352 1.186039,1.190352 z m 0,0"
       style="fill:#f9f9f9;fill-opacity:1;stroke:none;stroke-width:0.276024" />
    <path
       inkscape:connector-curvature="0"
       id="path4659"
       d="m 85.652296,82.650835 c 0.715937,0 1.233481,-0.539109 1.233481,-1.198978 v -0.0043 c 0,-0.65987 -0.513231,-1.194666 -1.229168,-1.194666 -0.715937,0 -1.233481,0.539109 -1.233481,1.198979 v 0.0086 c 0,0.659869 0.513231,1.190352 1.229168,1.190352 z m 0.0043,-0.470103 c -0.409723,0 -0.702998,-0.332091 -0.702998,-0.728875 v -0.0043 c 0,-0.396784 0.284649,-0.724563 0.698685,-0.724563 0.409723,0 0.698685,0.332091 0.698685,0.728876 v 0.0086 c 0,0.396784 -0.28465,0.720249 -0.694372,0.720249 z m 0,0"
       style="fill:#f9f9f9;fill-opacity:1;stroke:none;stroke-width:0.276024"
       inkscape:label="path4659" />
    <path
       inkscape:connector-curvature="0"
       id="path4647"
       d="m 68.798546,110.32866 c 0,0.0776 0.06038,0.13801 0.138012,0.13801 0.07332,0 0.133699,-0.0604 0.133699,-0.13801 v -0.5046 h 0.668495 c 0.06901,0 0.12076,-0.0561 0.12076,-0.12508 0,-0.0647 -0.05175,-0.12076 -0.12076,-0.12076 h -0.668495 v -0.42266 h 0.767691 c 0.06901,0 0.12076,-0.0561 0.12076,-0.12507 0,-0.069 -0.05175,-0.12076 -0.12076,-0.12076 h -0.90139 c -0.07763,0 -0.138012,0.0561 -0.138012,0.1337 z m 0,0"
       style="fill:#f9f9f9;fill-opacity:1;stroke:none;stroke-width:0.276024" />
    <path
       inkscape:connector-curvature="0"
       id="path4643"
       d="m 70.286453,110.32866 c 0,0.0776 0.05607,0.13801 0.133699,0.13801 0.07763,0 0.138012,-0.0604 0.138012,-0.13801 v -1.29817 c 0,-0.0733 -0.06038,-0.1337 -0.138012,-0.1337 -0.07763,0 -0.133699,0.0604 -0.133699,0.1337 z m 0,0"
       style="fill:#f9f9f9;fill-opacity:1;stroke:none;stroke-width:0.276024" />
    <path
       inkscape:connector-curvature="0"
       id="path4639"
       d="m 71.023297,110.33298 c 0,0.0733 0.06038,0.13369 0.133699,0.13369 0.07332,0 0.133699,-0.0604 0.133699,-0.13369 v -0.97903 l 0.793568,1.02647 c 0.03882,0.0474 0.07763,0.0819 0.142325,0.0819 h 0.01294 c 0.07332,0 0.129386,-0.0604 0.129386,-0.1337 v -1.29817 c 0,-0.0733 -0.05607,-0.1337 -0.133698,-0.1337 -0.07332,0 -0.133699,0.0604 -0.133699,0.1337 v 0.94883 l -0.772007,-1.00059 c -0.0345,-0.0474 -0.07332,-0.0776 -0.142324,-0.0776 h -0.02588 c -0.07763,0 -0.138012,0.0604 -0.138012,0.1337 z m 0,0"
       style="fill:#f9f9f9;fill-opacity:1;stroke:none;stroke-width:0.276024" />
    <path
       inkscape:connector-curvature="0"
       id="path4635"
       d="m 72.970259,110.45374 h 0.910016 c 0.06469,0 0.120761,-0.0517 0.120761,-0.12076 0,-0.069 -0.05607,-0.12076 -0.120761,-0.12076 h -0.776317 v -0.41835 h 0.664183 c 0.06901,0 0.12076,-0.0518 0.12076,-0.11645 0,-0.069 -0.05175,-0.12507 -0.12076,-0.12507 h -0.664183 v -0.4011 h 0.763379 c 0.06901,0 0.12076,-0.0517 0.12076,-0.12076 0,-0.069 -0.05175,-0.12076 -0.12076,-0.12076 h -0.897078 c -0.07763,0 -0.138012,0.0561 -0.138012,0.1337 v 1.27229 c 0,0.0776 0.06038,0.13802 0.138012,0.13802 z m 0,0"
       style="fill:#f9f9f9;fill-opacity:1;stroke:none;stroke-width:0.276024" />
    <path
       inkscape:connector-curvature="0"
       id="path4631"
       d="m 69.989983,127.55034 c 0,0.0776 0.06038,0.13801 0.138012,0.13801 0.07332,0 0.133699,-0.0604 0.133699,-0.13801 v -0.50461 h 0.668495 c 0.06901,0 0.12076,-0.0561 0.12076,-0.12507 0,-0.0647 -0.05175,-0.12076 -0.12076,-0.12076 h -0.668495 v -0.42266 h 0.767691 c 0.06901,0 0.12076,-0.0561 0.12076,-0.12507 0,-0.069 -0.05175,-0.12077 -0.12076,-0.12077 h -0.90139 c -0.07763,0 -0.138012,0.0561 -0.138012,0.1337 z m 0,0"
       style="fill:#f9f9f9;fill-opacity:1;stroke:none;stroke-width:0.276024" />
    <path
       inkscape:connector-curvature="0"
       id="path4627"
       d="m 71.468146,127.55465 c 0,0.0733 0.05607,0.1337 0.133699,0.1337 0.07332,0 0.133699,-0.0604 0.133699,-0.1337 v -0.92727 l 0.37522,0.56499 c 0.03019,0.0431 0.06469,0.069 0.112134,0.069 0.05175,0 0.08626,-0.0259 0.116448,-0.069 l 0.37522,-0.5693 v 0.92727 c 0,0.0733 0.06469,0.13801 0.138012,0.13801 0.07763,0 0.133699,-0.0604 0.133699,-0.13801 v -1.29386 c 0,-0.0733 -0.05607,-0.1337 -0.133699,-0.1337 h -0.03019 c -0.05607,0 -0.09488,0.0216 -0.125073,0.069 l -0.470104,0.73318 -0.46579,-0.73318 c -0.02588,-0.0388 -0.06901,-0.069 -0.129386,-0.069 h -0.02588 c -0.07763,0 -0.138012,0.0604 -0.138012,0.13369 z m 0,0"
       style="fill:#f9f9f9;fill-opacity:1;stroke:none;stroke-width:0.276024" />
    <path
       inkscape:connector-curvature="0"
       id="path4615"
       d="m 91.124808,127.55034 c 0,0.0776 0.06038,0.13801 0.138011,0.13801 0.07332,0 0.133699,-0.0604 0.133699,-0.13801 v -0.37091 h 0.306214 c 0.340717,0 0.621054,-0.18114 0.621054,-0.53048 v -0.004 c 0,-0.31053 -0.228582,-0.51323 -0.590864,-0.51323 h -0.470103 c -0.07763,0 -0.138011,0.0561 -0.138011,0.1337 z m 0.27171,-0.61674 v -0.55636 h 0.31484 c 0.202705,0 0.336404,0.0949 0.336404,0.27602 v 0.004 c 0,0.15958 -0.129386,0.27602 -0.336404,0.27602 z m 0,0"
       style="fill:#f9f9f9;fill-opacity:1;stroke:none;stroke-width:0.276024" />
    <path
       inkscape:connector-curvature="0"
       id="path4611"
       d="m 93.006765,127.58484 c 0.02588,0.069 0.07332,0.11214 0.142325,0.11214 h 0.02588 c 0.06469,0 0.116447,-0.0431 0.142325,-0.11214 l 0.345031,-1.00921 0.340717,1.00921 c 0.02588,0.069 0.07332,0.11214 0.142325,0.11214 h 0.02588 c 0.06469,0 0.116448,-0.0431 0.142325,-0.11214 l 0.457165,-1.28092 c 0.0043,-0.0173 0.01294,-0.0388 0.01294,-0.0561 0,-0.0733 -0.06469,-0.12939 -0.138012,-0.12939 -0.06469,0 -0.112135,0.0431 -0.129386,0.0992 l -0.357977,1.06098 -0.349343,-1.05666 c -0.01725,-0.0647 -0.06469,-0.10782 -0.133699,-0.10782 h -0.02156 c -0.06901,0 -0.116448,0.0431 -0.138012,0.10782 l -0.349344,1.05666 -0.353656,-1.06097 c -0.01725,-0.0561 -0.06901,-0.0992 -0.133699,-0.0992 -0.07763,0 -0.138011,0.0561 -0.138011,0.1337 0,0.0172 0.0043,0.0345 0.0086,0.0517 z m 0,0"
       style="fill:#f9f9f9;fill-opacity:1;stroke:none;stroke-width:0.276024" />
    <path
       inkscape:connector-curvature="0"
       id="path4607"
       d="m 95.102863,127.55465 c 0,0.0733 0.05607,0.1337 0.133699,0.1337 0.07332,0 0.133699,-0.0604 0.133699,-0.1337 v -0.92727 l 0.375219,0.56499 c 0.03019,0.0431 0.06469,0.069 0.112136,0.069 0.05175,0 0.08626,-0.0259 0.116445,-0.069 l 0.375222,-0.5693 v 0.92727 c 0,0.0733 0.06469,0.13801 0.138012,0.13801 0.07763,0 0.133699,-0.0604 0.133699,-0.13801 v -1.29386 c 0,-0.0733 -0.05607,-0.1337 -0.133699,-0.1337 h -0.03019 c -0.05607,0 -0.09488,0.0216 -0.125074,0.069 l -0.470101,0.73319 -0.465791,-0.73319 c -0.02588,-0.0388 -0.06901,-0.069 -0.129386,-0.069 h -0.02588 c -0.07763,0 -0.138012,0.0604 -0.138012,0.1337 z m 0,0"
       style="fill:#f9f9f9;fill-opacity:1;stroke:none;stroke-width:0.276024" />
    <path
       inkscape:connector-curvature="0"
       id="path4595"
       d="m 88.623915,110.32866 c 0,0.0776 0.06038,0.13801 0.138012,0.13801 0.07332,0 0.133699,-0.0604 0.133699,-0.13801 v -0.3709 h 0.306214 c 0.340717,0 0.621053,-0.18115 0.621053,-0.53049 v -0.004 c 0,-0.31052 -0.228582,-0.51323 -0.590863,-0.51323 h -0.470103 c -0.07763,0 -0.138012,0.0561 -0.138012,0.1337 z m 0.271711,-0.61674 v -0.55636 h 0.31484 c 0.202705,0 0.336404,0.0949 0.336404,0.27602 v 0.004 c 0,0.15958 -0.129386,0.27603 -0.336404,0.27603 z m 0,0"
       style="fill:#f9f9f9;fill-opacity:1;stroke:none;stroke-width:0.276024" />
    <path
       inkscape:connector-curvature="0"
       id="path4591"
       d="m 89.910427,110.28985 v 0.0216 c 0,0.0863 0.06469,0.15526 0.155263,0.15526 0.09057,0 0.155264,-0.069 0.155264,-0.15526 v -0.0216 c 0,-0.0863 -0.06469,-0.15095 -0.155264,-0.15095 -0.09057,0 -0.155263,0.0647 -0.155263,0.15095 z m 0,0"
       style="fill:#f9f9f9;fill-opacity:1;stroke:none;stroke-width:0.276024" />
    <path
       inkscape:connector-curvature="0"
       id="path4587"
       d="m 91.585236,110.36317 c 0.02588,0.069 0.07332,0.11213 0.142325,0.11213 h 0.02588 c 0.06469,0 0.116449,-0.0431 0.142325,-0.11213 l 0.34503,-1.00922 0.340717,1.00922 c 0.02588,0.069 0.07332,0.11213 0.142325,0.11213 h 0.02588 c 0.06469,0 0.116446,-0.0431 0.142325,-0.11213 l 0.457163,-1.28093 c 0.0043,-0.0173 0.01294,-0.0388 0.01294,-0.0561 0,-0.0733 -0.06469,-0.12938 -0.138012,-0.12938 -0.06469,0 -0.112133,0.0431 -0.129384,0.0992 l -0.357971,1.06096 -0.349342,-1.05665 c -0.01725,-0.0647 -0.06469,-0.10782 -0.1337,-0.10782 h -0.02156 c -0.06901,0 -0.116446,0.0431 -0.138012,0.10782 l -0.349356,1.05665 -0.353655,-1.06096 c -0.01725,-0.0561 -0.06901,-0.0992 -0.133699,-0.0992 -0.07763,0 -0.138011,0.0561 -0.138011,0.13369 0,0.0173 0.0043,0.0345 0.0086,0.0517 z m 0,0"
       style="fill:#f9f9f9;fill-opacity:1;stroke:none;stroke-width:0.276024" />
    <path
       inkscape:connector-curvature="0"
       id="path4583"
       d="m 93.691296,110.32866 c 0,0.0776 0.05607,0.13801 0.133699,0.13801 0.07763,0 0.138012,-0.0604 0.138012,-0.13801 v -1.29817 c 0,-0.0733 -0.06038,-0.1337 -0.138012,-0.1337 -0.07763,0 -0.133699,0.0604 -0.133699,0.1337 z m 0,0"
       style="fill:#f9f9f9;fill-opacity:1;stroke:none;stroke-width:0.276024" />
    <path
       inkscape:connector-curvature="0"
       id="path4579"
       d="m 94.428145,110.31572 c 0,0.0776 0.06038,0.13802 0.138012,0.13802 h 0.439912 c 0.483042,0 0.819446,-0.33641 0.819446,-0.77201 v -0.004 c 0,-0.4356 -0.336404,-0.76769 -0.819446,-0.76769 h -0.439912 c -0.07763,0 -0.138012,0.0561 -0.138012,0.1337 z m 0.271711,-0.10782 v -1.05234 h 0.306213 c 0.323466,0 0.534797,0.22427 0.534797,0.52617 v 0.004 c 0,0.3019 -0.211331,0.52186 -0.534797,0.52186 z m 0,0"
       style="fill:#f9f9f9;fill-opacity:1;stroke:none;stroke-width:0.276024" />
    <path
       inkscape:connector-curvature="0"
       id="path4575"
       d="m 96.493847,110.32866 c 0,0.0776 0.06038,0.13801 0.138012,0.13801 0.07332,0 0.138012,-0.0604 0.138012,-0.13801 v -1.16879 h 0.375222 c 0.06901,0 0.125071,-0.0561 0.125071,-0.12507 0,-0.069 -0.05606,-0.12507 -0.125071,-0.12507 h -1.026465 c -0.06901,0 -0.125073,0.0561 -0.125073,0.12507 0,0.069 0.05607,0.12507 0.125073,0.12507 h 0.375219 z m 0,0"
       style="fill:#f9f9f9;fill-opacity:1;stroke:none;stroke-width:0.276024" />
    <path
       inkscape:connector-curvature="0"
       id="path4571"
       d="m 97.579668,110.32866 c 0,0.0776 0.06038,0.13801 0.138012,0.13801 0.07332,0 0.133699,-0.0604 0.133699,-0.13801 v -0.52617 h 0.7375 v 0.52617 c 0,0.0776 0.06038,0.13801 0.133699,0.13801 0.07763,0 0.138012,-0.0604 0.138012,-0.13801 v -1.29817 c 0,-0.0733 -0.06038,-0.1337 -0.138012,-0.1337 -0.07332,0 -0.133699,0.0604 -0.133699,0.1337 v 0.52186 h -0.7375 v -0.52186 c 0,-0.0733 -0.06038,-0.1337 -0.133699,-0.1337 -0.07763,0 -0.138012,0.0604 -0.138012,0.1337 z m 0,0"
       style="fill:#f9f9f9;fill-opacity:1;stroke:none;stroke-width:0.276024" />
    <path
       style="fill:#f9f9f9;fill-opacity:1;fill-rule:nonzero;stroke:none;stroke-width:0.276024"
       d="m 102.06803,156.82886 c 0,-0.43021 -0.3515,-0.78279 -0.78171,-0.78279 h -6.011067 c -0.43021,0 -0.782785,0.35258 -0.782785,0.78279 v 9.5239 c 0,0.43021 0.352575,0.78279 0.782785,0.78279 h 6.011067 c 0.43021,0 0.78171,-0.35258 0.78171,-0.78279 z m 0,0"
       id="path36593"
       inkscape:connector-curvature="0" />
    <path
       inkscape:connector-curvature="0"
       id="path4567"
       d="m 96.836512,158.47906 c 0.267396,0 0.457163,-0.13801 0.457163,-0.38816 v -0.004 c 0,-0.21995 -0.142325,-0.31052 -0.396785,-0.37522 -0.215644,-0.0561 -0.271709,-0.0819 -0.271709,-0.1682 0,-0.0647 0.05607,-0.11213 0.163888,-0.11213 0.08626,0 0.172514,0.0302 0.263086,0.0863 0.02156,0.0129 0.04313,0.0172 0.06901,0.0172 0.07332,0 0.129387,-0.0561 0.129387,-0.12508 0,-0.0561 -0.03019,-0.0906 -0.06038,-0.11213 -0.112136,-0.069 -0.245835,-0.10782 -0.396785,-0.10782 -0.258773,0 -0.439912,0.15095 -0.439912,0.37522 v 0.004 c 0,0.25014 0.159575,0.31915 0.414036,0.38384 0.211331,0.0561 0.254458,0.0906 0.254458,0.15958 v 0.004 c 0,0.0733 -0.06901,0.12076 -0.181139,0.12076 -0.125074,0 -0.228585,-0.0431 -0.323467,-0.11645 -0.01725,-0.0129 -0.04313,-0.0216 -0.07763,-0.0216 -0.07332,0 -0.129387,0.0517 -0.129387,0.12507 0,0.0431 0.02156,0.0819 0.05175,0.10351 0.142325,0.10351 0.306213,0.15095 0.474417,0.15095 z m 0,0"
       style="fill:#000000;fill-opacity:1;stroke:none;stroke-width:0.276024" />
    <path
       inkscape:connector-curvature="0"
       id="path4563"
       d="m 98.187406,158.48337 c 0.142324,0 0.267398,-0.0388 0.375218,-0.10782 l 0.06901,0.0604 c 0.02156,0.0216 0.05176,0.0388 0.09057,0.0388 0.07332,0 0.129383,-0.0604 0.129383,-0.12938 0,-0.0474 -0.02156,-0.0819 -0.05175,-0.10782 l -0.05175,-0.0431 c 0.06901,-0.10351 0.112133,-0.22859 0.112133,-0.36228 0,-0.35797 -0.280337,-0.64693 -0.668494,-0.64693 -0.388159,0 -0.668496,0.29327 -0.668496,0.64693 v 0.004 c 0,0.35796 0.280337,0.64693 0.664184,0.64693 z m 0.03881,-0.40109 0.129386,0.11213 c -0.04744,0.0216 -0.103507,0.0345 -0.163888,0.0345 -0.219956,0 -0.379534,-0.18114 -0.379534,-0.39678 0,-0.21565 0.155265,-0.39248 0.375222,-0.39248 0.224268,0 0.383844,0.17683 0.383844,0.39248 v 0.004 c 0,0.0647 -0.01294,0.12507 -0.0345,0.17251 l -0.138012,-0.12507 c -0.03019,-0.0216 -0.05607,-0.0345 -0.09488,-0.0345 -0.06901,0 -0.129387,0.0561 -0.129387,0.12939 0,0.0431 0.02156,0.0776 0.05175,0.10351 z m 0,0"
       style="fill:#000000;fill-opacity:1;stroke:none;stroke-width:0.276024" />
    <path
       inkscape:connector-curvature="0"
       id="path4559"
       d="m 99.178241,158.33242 c 0,0.0776 0.06038,0.13802 0.138012,0.13802 0.07763,0 0.138012,-0.0604 0.138012,-0.13802 v -0.27171 h 0.219956 l 0.271711,0.34072 c 0.03019,0.0388 0.07332,0.069 0.133698,0.069 0.069,0 0.1337,-0.0474 0.1337,-0.12507 0,-0.0431 -0.0216,-0.0733 -0.0474,-0.10782 l -0.189766,-0.23291 c 0.150946,-0.0604 0.250146,-0.18545 0.250146,-0.37953 v -0.004 c 0,-0.12076 -0.0388,-0.21564 -0.10782,-0.28896 -0.0819,-0.0819 -0.207019,-0.12507 -0.366598,-0.12507 h -0.435599 c -0.07763,0 -0.138012,0.0604 -0.138012,0.13801 z m 0.276024,-0.51754 v -0.35797 h 0.276024 c 0.133699,0 0.215643,0.0604 0.215643,0.17683 v 0.004 c 0,0.10782 -0.07763,0.17683 -0.21133,0.17683 z m 0,0"
       style="fill:#000000;fill-opacity:1;stroke:none;stroke-width:0.276024" />
    <path
       style="fill:#f9f9f9;fill-opacity:1;fill-rule:nonzero;stroke:none;stroke-width:0.276024"
       d="m 92.992666,156.82886 c 0,-0.43021 -0.352578,-0.78279 -0.782785,-0.78279 h -6.011067 c -0.430207,0 -0.781708,0.35258 -0.781708,0.78279 v 9.5239 c 0,0.43021 0.351501,0.78279 0.781708,0.78279 h 6.011067 c 0.430207,0 0.782785,-0.35258 0.782785,-0.78279 z m 0,0"
       id="path36605"
       inkscape:connector-curvature="0" />
    <path
       inkscape:connector-curvature="0"
       id="path4555"
       d="m 87.549277,158.47906 c 0.267398,0 0.457165,-0.13801 0.457165,-0.38816 v -0.004 c 0,-0.21995 -0.142325,-0.31052 -0.396785,-0.37522 -0.215643,-0.0561 -0.27171,-0.0819 -0.27171,-0.1682 0,-0.0647 0.05607,-0.11213 0.163889,-0.11213 0.08626,0 0.172515,0.0302 0.263085,0.0863 0.02156,0.0129 0.04313,0.0172 0.06901,0.0172 0.07332,0 0.129386,-0.0561 0.129386,-0.12508 0,-0.0561 -0.03019,-0.0906 -0.06038,-0.11213 -0.112135,-0.069 -0.245834,-0.10782 -0.396784,-0.10782 -0.258773,0 -0.439913,0.15095 -0.439913,0.37522 v 0.004 c 0,0.25014 0.159576,0.31915 0.414035,0.38384 0.211331,0.0561 0.25446,0.0906 0.25446,0.15958 v 0.004 c 0,0.0733 -0.06901,0.12076 -0.181141,0.12076 -0.125073,0 -0.228582,-0.0431 -0.323465,-0.11645 -0.01725,-0.0129 -0.04313,-0.0216 -0.07763,-0.0216 -0.07332,0 -0.129386,0.0517 -0.129386,0.12507 0,0.0431 0.02156,0.0819 0.05175,0.10351 0.142325,0.10351 0.306214,0.15095 0.474416,0.15095 z m 0,0"
       style="fill:#000000;fill-opacity:1;stroke:none;stroke-width:0.276024" />
    <path
       inkscape:connector-curvature="0"
       id="path4551"
       d="m 88.203827,158.34536 c 0,0.069 0.05607,0.12508 0.129386,0.12508 0.05607,0 0.103509,-0.0302 0.125074,-0.0819 l 0.08626,-0.20702 h 0.556361 l 0.08194,0.19408 c 0.02588,0.0604 0.06901,0.0949 0.133699,0.0949 0.07332,0 0.129386,-0.0561 0.129386,-0.12939 0,-0.0172 -0.0043,-0.0388 -0.01294,-0.0561 l -0.43991,-0.98765 c -0.03019,-0.069 -0.08194,-0.11213 -0.159576,-0.11213 h -0.01294 c -0.07763,0 -0.1337,0.0431 -0.16389,0.11213 l -0.435599,0.98765 c -0.0086,0.0173 -0.01725,0.0388 -0.01725,0.0604 z m 0.444226,-0.40972 0.172515,-0.41403 0.176828,0.41403 z m 0,0"
       style="fill:#000000;fill-opacity:1;stroke:none;stroke-width:0.276024" />
    <path
       inkscape:connector-curvature="0"
       id="path4547"
       d="m 89.912794,158.36693 c 0.02588,0.0733 0.07763,0.11644 0.142325,0.11644 h 0.03019 c 0.06901,0 0.116447,-0.0431 0.142325,-0.11644 l 0.245833,-0.71594 0.250147,0.71594 c 0.02588,0.0733 0.07332,0.11644 0.142325,0.11644 h 0.02588 c 0.06901,0 0.12076,-0.0431 0.146638,-0.11644 l 0.349343,-0.98334 c 0.0043,-0.0172 0.01294,-0.0388 0.01294,-0.0561 0,-0.0733 -0.06469,-0.1337 -0.138012,-0.1337 -0.06901,0 -0.116449,0.0474 -0.1337,0.0992 l -0.250147,0.77201 -0.250146,-0.76338 c -0.02156,-0.069 -0.06901,-0.11213 -0.138012,-0.11213 h -0.02157 c -0.07332,0 -0.12076,0.0474 -0.142325,0.11213 l -0.250146,0.76338 -0.250147,-0.77201 c -0.01725,-0.0561 -0.06901,-0.0992 -0.133699,-0.0992 -0.07763,0 -0.142324,0.0604 -0.142324,0.13802 0,0.0129 0.0043,0.0345 0.01294,0.0517 z m 0,0"
       style="fill:#000000;fill-opacity:1;stroke:none;stroke-width:0.276024" />
    <path
       style="fill:#f9f9f9;fill-opacity:1;fill-rule:nonzero;stroke:none;stroke-width:0.276024"
       d="m 83.916227,156.82886 c 0,-0.43021 -0.352575,-0.78279 -0.782788,-0.78279 h -6.009984 c -0.43021,0 -0.782785,0.35258 -0.782785,0.78279 v 9.5239 c 0,0.43021 0.352575,0.78279 0.782785,0.78279 h 6.009984 c 0.430213,0 0.782788,-0.35258 0.782788,-0.78279 z m 0,0"
       id="path36617"
       inkscape:connector-curvature="0" />
    <path
       inkscape:connector-curvature="0"
       id="path4543"
       d="m 78.98931,158.33242 c 0,0.0776 0.06038,0.13802 0.138011,0.13802 0.07763,0 0.138012,-0.0604 0.138012,-0.13802 v -0.87119 h 0.263085 c 0.07332,0 0.129386,-0.0561 0.129386,-0.12939 0,-0.069 -0.05607,-0.12508 -0.129386,-0.12508 h -0.806507 c -0.06901,0 -0.125073,0.0561 -0.125073,0.12508 0,0.0733 0.05607,0.12939 0.125073,0.12939 h 0.267399 z m 0,0"
       style="fill:#000000;fill-opacity:1;stroke:none;stroke-width:0.276024" />
    <path
       inkscape:connector-curvature="0"
       id="path4539"
       d="m 79.899913,158.33242 c 0,0.0776 0.06038,0.13802 0.138012,0.13802 0.07763,0 0.138012,-0.0604 0.138012,-0.13802 v -0.27171 h 0.219956 l 0.271711,0.34072 c 0.03019,0.0388 0.07332,0.069 0.133699,0.069 0.06901,0 0.133699,-0.0474 0.133699,-0.12507 0,-0.0431 -0.02156,-0.0733 -0.04744,-0.10782 l -0.189768,-0.23291 c 0.150951,-0.0604 0.250147,-0.18545 0.250147,-0.37953 v -0.004 c 0,-0.12076 -0.03882,-0.21564 -0.107822,-0.28896 -0.08194,-0.0819 -0.207018,-0.12507 -0.366594,-0.12507 h -0.4356 c -0.07763,0 -0.138012,0.0604 -0.138012,0.13801 z m 0.276024,-0.51754 v -0.35797 h 0.276024 c 0.133699,0 0.215643,0.0604 0.215643,0.17683 v 0.004 c 0,0.10782 -0.07763,0.17683 -0.211331,0.17683 z m 0,0"
       style="fill:#000000;fill-opacity:1;stroke:none;stroke-width:0.276024" />
    <path
       inkscape:connector-curvature="0"
       id="path4535"
       d="m 81.273358,158.33242 c 0,0.0776 0.06038,0.13802 0.138012,0.13802 0.07763,0 0.138012,-0.0604 0.138012,-0.13802 v -1.00058 c 0,-0.0776 -0.06038,-0.13801 -0.138012,-0.13801 -0.07763,0 -0.138012,0.0604 -0.138012,0.13801 z m 0,0"
       style="fill:#000000;fill-opacity:1;stroke:none;stroke-width:0.276024" />
    <path
       style="fill:#f9f9f9;fill-opacity:1;fill-rule:nonzero;stroke:none;stroke-width:0.276024"
       d="m 74.839789,156.82886 c 0,-0.43021 -0.351499,-0.78279 -0.782786,-0.78279 h -6.009987 c -0.430209,0 -0.782786,0.35258 -0.782786,0.78279 v 9.5239 c 0,0.43021 0.352577,0.78279 0.782786,0.78279 h 6.009987 c 0.431287,0 0.782786,-0.35258 0.782786,-0.78279 z m 0,0"
       id="path36629"
       inkscape:connector-curvature="0" />
    <path
       inkscape:connector-curvature="0"
       id="path4531"
       d="m 70.008298,158.47906 c 0.267398,0 0.457164,-0.13801 0.457164,-0.38816 v -0.004 c 0,-0.21995 -0.142325,-0.31052 -0.396784,-0.37522 -0.215644,-0.0561 -0.271711,-0.0819 -0.271711,-0.1682 0,-0.0647 0.05607,-0.11213 0.163889,-0.11213 0.08626,0 0.172515,0.0302 0.263085,0.0863 0.02156,0.0129 0.04313,0.0172 0.06901,0.0172 0.07332,0 0.129386,-0.0561 0.129386,-0.12508 0,-0.0561 -0.03019,-0.0906 -0.06038,-0.11213 -0.112134,-0.069 -0.245833,-0.10782 -0.396783,-0.10782 -0.258773,0 -0.439913,0.15095 -0.439913,0.37522 v 0.004 c 0,0.25014 0.159576,0.31915 0.414035,0.38384 0.211331,0.0561 0.25446,0.0906 0.25446,0.15958 v 0.004 c 0,0.0733 -0.06901,0.12076 -0.181141,0.12076 -0.125073,0 -0.228582,-0.0431 -0.323465,-0.11645 -0.01725,-0.0129 -0.04313,-0.0216 -0.07763,-0.0216 -0.07332,0 -0.129387,0.0517 -0.129387,0.12507 0,0.0431 0.02156,0.0819 0.05175,0.10351 0.142325,0.10351 0.306214,0.15095 0.474416,0.15095 z m 0,0"
       style="fill:#000000;fill-opacity:1;stroke:none;stroke-width:0.276024" />
    <path
       inkscape:connector-curvature="0"
       id="path4527"
       d="m 70.779266,158.33242 c 0,0.0776 0.06038,0.13802 0.138012,0.13802 0.07763,0 0.138011,-0.0604 0.138011,-0.13802 v -1.00058 c 0,-0.0776 -0.06038,-0.13801 -0.138011,-0.13801 -0.07763,0 -0.138012,0.0604 -0.138012,0.13801 z m 0,0"
       style="fill:#000000;fill-opacity:1;stroke:none;stroke-width:0.276024" />
    <path
       d="m 75.204417,86.597192 q -0.03583,0 -0.06339,-0.01103 -0.02618,-0.0124 -0.0441,-0.03169 -0.01654,-0.01929 -0.02618,-0.0441 -0.0083,-0.0248 -0.0083,-0.05099 0,-0.02618 0.0083,-0.05099 0.0096,-0.02618 0.02756,-0.04548 0.01792,-0.01929 0.0441,-0.03169 0.02618,-0.0124 0.06201,-0.0124 h 1.302245 q 0.03445,0 0.06063,0.0124 0.02618,0.0124 0.0441,0.03169 0.01791,0.01929 0.02618,0.0441 0.0096,0.0248 0.0096,0.05099 0,0.02618 -0.0096,0.05099 -0.0083,0.02481 -0.02618,0.04548 -0.01654,0.01929 -0.0441,0.03169 -0.02618,0.01103 -0.06063,0.01103 h -0.46302 v 1.525487 q 0,0.0441 -0.01654,0.07855 -0.01516,0.03307 -0.04134,0.0565 -0.02618,0.02205 -0.05926,0.03307 -0.03307,0.01102 -0.06752,0.01102 -0.03445,0 -0.06752,-0.01102 -0.03307,-0.01102 -0.05925,-0.03307 -0.02618,-0.02343 -0.04272,-0.0565 -0.01516,-0.03445 -0.01516,-0.07855 v -1.525487 z"
       style="font-style:normal;font-variant:normal;font-weight:normal;font-stretch:normal;font-size:2.82222px;font-family:Nunito;-inkscape-font-specification:Nunito;fill:#ffffff;stroke-width:0.264583"
       id="path125" />
    <path
       d="m 73.211776,87.319283 q 0,-0.241156 0.0689,-0.434082 0.07028,-0.194303 0.194303,-0.32935 0.124023,-0.136426 0.2949,-0.208084 0.170877,-0.07304 0.37207,-0.07304 0.125401,0 0.259071,0.03032 0.13367,0.02894 0.275607,0.09095 0.04548,0.01929 0.06615,0.05512 0.02067,0.03583 0.02067,0.07304 0,0.02618 -0.0096,0.05099 -0.0083,0.02481 -0.02618,0.04547 -0.01654,0.01929 -0.04134,0.0317 -0.02343,0.01102 -0.05374,0.01102 -0.0248,0 -0.05512,-0.01102 -0.221864,-0.07855 -0.394119,-0.07855 -0.143316,0 -0.253559,0.04961 -0.110243,0.04961 -0.184657,0.144694 -0.07441,0.09371 -0.112999,0.23151 -0.03858,0.136426 -0.03858,0.312815 0,0.16123 0.03307,0.2949 0.03445,0.133669 0.103353,0.230132 0.07028,0.09508 0.173633,0.148828 0.10473,0.05374 0.24529,0.05374 0.09784,0 0.21084,-0.02618 0.112999,-0.02756 0.24529,-0.08682 0.01791,-0.0083 0.03445,-0.01102 0.01792,-0.0041 0.03307,-0.0041 0.02894,0 0.05099,0.01102 0.02343,0.01102 0.03996,0.03032 0.01654,0.01929 0.0248,0.0441 0.0096,0.02481 0.0096,0.05099 0,0.04272 -0.02481,0.08544 -0.02481,0.04134 -0.08268,0.0689 -0.305925,0.143316 -0.567752,0.143316 -0.202571,0 -0.370692,-0.07441 -0.16812,-0.07441 -0.288009,-0.209462 -0.11989,-0.136426 -0.186035,-0.325217 -0.06615,-0.188791 -0.06615,-0.417545 z"
       style="font-style:normal;font-variant:normal;font-weight:normal;font-stretch:normal;font-size:2.82222px;font-family:Nunito;-inkscape-font-specification:Nunito;fill:#ffffff;stroke-width:0.264583"
       id="path123" />
    <path
       d="m 71.402413,87.311015 q 0,0.165364 0.03169,0.305924 0.03307,0.139182 0.101975,0.241157 0.0689,0.100596 0.175011,0.158474 0.106108,0.0565 0.253558,0.0565 0.14745,0 0.253559,-0.0565 0.106109,-0.05788 0.175011,-0.158474 0.0689,-0.101975 0.101975,-0.241157 0.03307,-0.14056 0.03307,-0.305924 0,-0.163987 -0.03307,-0.303168 -0.03169,-0.14056 -0.100597,-0.242535 -0.0689,-0.101975 -0.176389,-0.159852 -0.106109,-0.05788 -0.253559,-0.05788 -0.14745,0 -0.254937,0.05788 -0.106108,0.05788 -0.17501,0.159852 -0.06752,0.101975 -0.100597,0.242535 -0.03169,0.139181 -0.03169,0.303168 z m -0.389984,0 q 0,-0.23151 0.06201,-0.421679 0.06201,-0.191548 0.181901,-0.327973 0.121268,-0.136426 0.299034,-0.21084 0.177767,-0.07579 0.409277,-0.07579 0.232889,0 0.410655,0.07579 0.177767,0.07441 0.297656,0.21084 0.121268,0.136425 0.181901,0.327973 0.06201,0.190169 0.06201,0.421679 0,0.23151 -0.06201,0.421679 -0.06063,0.190169 -0.181901,0.326595 -0.119889,0.136426 -0.297656,0.212218 -0.177766,0.07441 -0.410655,0.07441 -0.23151,0 -0.409277,-0.07441 -0.177766,-0.07579 -0.299034,-0.212218 -0.119889,-0.136426 -0.181901,-0.326595 -0.06201,-0.190169 -0.06201,-0.421679 z"
       style="font-style:normal;font-variant:normal;font-weight:normal;font-stretch:normal;font-size:2.82222px;font-family:Nunito;-inkscape-font-specification:Nunito;fill:#ffffff;stroke-width:0.264583"
       id="path121" />
    <path
       d="m 85.565266,89.820946 q 0,0.03307 -0.0124,0.05788 -0.01137,0.02377 -0.03101,0.04031 -0.01964,0.01654 -0.04444,0.02481 -0.02377,0.0083 -0.04961,0.0083 -0.02584,0 -0.05064,-0.0083 -0.02377,-0.0083 -0.04341,-0.02377 -0.0186,-0.01654 -0.02997,-0.04134 -0.01137,-0.02481 -0.01137,-0.05788 v -1.223699 q 0,-0.03307 0.01137,-0.05788 0.0124,-0.02481 0.03101,-0.04031 0.01964,-0.01654 0.04341,-0.0248 0.02481,-0.0083 0.05064,-0.0083 0.02584,0 0.04961,0.0083 0.0248,0.0083 0.04341,0.0248 0.01964,0.0155 0.03101,0.04031 0.0124,0.02481 0.0124,0.05788 v 0.522966 l 0.538469,-0.59428 q 0.02067,-0.03101 0.04754,-0.04444 0.0279,-0.01344 0.05684,-0.01344 0.02481,0 0.04754,0.0093 0.02377,0.0083 0.04134,0.02377 0.0186,0.0155 0.02997,0.03721 0.01137,0.02067 0.01137,0.04548 0,0.03411 -0.02481,0.06925 l -0.477491,0.492994 0.531235,0.602548 q 0.01447,0.01964 0.01964,0.03927 0.0062,0.0186 0.0062,0.03617 0,0.02687 -0.0124,0.05064 -0.01137,0.02274 -0.03101,0.04031 -0.01964,0.01654 -0.04548,0.02687 -0.0248,0.0093 -0.05064,0.0093 -0.02997,0 -0.05891,-0.01344 -0.02791,-0.01447 -0.04858,-0.04754 l -0.580844,-0.68213 z"
       style="font-style:normal;font-variant:normal;font-weight:normal;font-stretch:normal;font-size:2.11667px;line-height:1.25;font-family:Nunito;-inkscape-font-specification:Nunito;fill:#ffffff;stroke-width:0.264583"
       id="path152" />
    <path
       d="m 83.737985,89.216331 q 0,-0.180868 0.05168,-0.325562 0.05271,-0.145728 0.145728,-0.247013 0.09302,-0.10232 0.221175,-0.156064 0.128158,-0.05478 0.279054,-0.05478 0.09405,0 0.194303,0.02274 0.100253,0.0217 0.206706,0.06821 0.03411,0.01447 0.04961,0.04134 0.0155,0.02687 0.0155,0.05478 0,0.01964 -0.0072,0.03824 -0.0062,0.0186 -0.01964,0.03411 -0.0124,0.01447 -0.03101,0.02377 -0.01757,0.0083 -0.04031,0.0083 -0.0186,0 -0.04134,-0.0083 -0.166398,-0.05891 -0.29559,-0.05891 -0.107487,0 -0.190169,0.03721 -0.08268,0.03721 -0.138493,0.108521 -0.05581,0.07028 -0.08475,0.173633 -0.02894,0.10232 -0.02894,0.234612 0,0.120923 0.02481,0.221175 0.02584,0.100253 0.07752,0.1726 0.05271,0.07131 0.130225,0.111621 0.07855,0.04031 0.183968,0.04031 0.07338,0 0.15813,-0.01964 0.08475,-0.02067 0.183969,-0.06511 0.01344,-0.0062 0.02584,-0.0083 0.01344,-0.0031 0.02481,-0.0031 0.0217,0 0.03824,0.0083 0.01757,0.0083 0.02997,0.02274 0.0124,0.01447 0.0186,0.03307 0.0072,0.0186 0.0072,0.03824 0,0.03204 -0.0186,0.06408 -0.0186,0.03101 -0.06201,0.05168 -0.229444,0.107487 -0.425815,0.107487 -0.151929,0 -0.27802,-0.05581 -0.12609,-0.05581 -0.216007,-0.157097 -0.08992,-0.102319 -0.139527,-0.243913 -0.04961,-0.141594 -0.04961,-0.31316 z"
       style="font-style:normal;font-variant:normal;font-weight:normal;font-stretch:normal;font-size:2.11667px;line-height:1.25;font-family:Nunito;-inkscape-font-specification:Nunito;fill:#ffffff;stroke-width:0.264583"
       id="path150" />
    <path
       d="m 82.380959,89.21013 q 0,0.124024 0.02377,0.229444 0.0248,0.104386 0.07648,0.180868 0.05168,0.07545 0.131258,0.118856 0.07958,0.04237 0.19017,0.04237 0.110588,0 0.190169,-0.04237 0.07958,-0.04341 0.131259,-0.118856 0.05168,-0.07648 0.07648,-0.180868 0.02481,-0.10542 0.02481,-0.229444 0,-0.12299 -0.02481,-0.227377 -0.02377,-0.10542 -0.07545,-0.181901 -0.05168,-0.07648 -0.132292,-0.119889 -0.07958,-0.04341 -0.190169,-0.04341 -0.110588,0 -0.191203,0.04341 -0.07958,0.04341 -0.131259,0.119889 -0.05064,0.07648 -0.07545,0.181901 -0.02377,0.104387 -0.02377,0.227377 z m -0.292489,0 q 0,-0.173633 0.04651,-0.31626 0.04651,-0.143661 0.136426,-0.24598 0.09095,-0.10232 0.224276,-0.15813 0.133326,-0.05685 0.306959,-0.05685 0.174666,0 0.307992,0.05685 0.133325,0.05581 0.223242,0.15813 0.09095,0.102319 0.136426,0.24598 0.04651,0.142627 0.04651,0.31626 0,0.173633 -0.04651,0.31626 -0.04547,0.142627 -0.136426,0.244947 -0.08992,0.102319 -0.223242,0.159164 -0.133326,0.05581 -0.307992,0.05581 -0.173633,0 -0.306959,-0.05581 -0.133325,-0.05685 -0.224276,-0.159164 -0.08992,-0.10232 -0.136426,-0.244947 -0.04651,-0.142627 -0.04651,-0.31626 z"
       style="font-style:normal;font-variant:normal;font-weight:normal;font-stretch:normal;font-size:2.11667px;line-height:1.25;font-family:Nunito;-inkscape-font-specification:Nunito;fill:#ffffff;stroke-width:0.264583"
       id="path148" />
    <path
       d="m 81.082846,89.952205 q -0.02791,0 -0.05374,-0.01034 -0.02481,-0.01137 -0.04444,-0.02997 -0.0186,-0.0186 -0.02997,-0.04341 -0.01137,-0.02481 -0.01137,-0.05374 v -1.213364 q 0,-0.03307 0.01137,-0.05788 0.0124,-0.02584 0.03204,-0.04238 0.01964,-0.01654 0.04444,-0.0248 0.02481,-0.0083 0.05168,-0.0083 0.02584,0 0.05064,0.0083 0.0248,0.0083 0.04444,0.0248 0.01964,0.01654 0.03101,0.04238 0.0124,0.02481 0.0124,0.05788 v 1.142051 h 0.59738 q 0.02584,0 0.04547,0.0093 0.01964,0.0093 0.03204,0.02377 0.01344,0.01447 0.01964,0.03307 0.0072,0.0186 0.0072,0.03824 0,0.01964 -0.0072,0.03824 -0.0062,0.0186 -0.01964,0.03411 -0.0124,0.01447 -0.03204,0.02377 -0.01964,0.0083 -0.04547,0.0083 z"
       style="font-style:normal;font-variant:normal;font-weight:normal;font-stretch:normal;font-size:2.11667px;line-height:1.25;font-family:Nunito;-inkscape-font-specification:Nunito;fill:#ffffff;stroke-width:0.264583"
       id="path146" />
    <path
       d="m 85.484651,87.412201 q -0.02687,0 -0.05168,-0.01033 -0.02377,-0.01137 -0.04238,-0.02894 -0.0186,-0.0186 -0.02997,-0.04238 -0.01137,-0.02481 -0.01137,-0.05168 V 86.05931 q 0,-0.02584 0.0093,-0.04961 0.01033,-0.0248 0.02791,-0.04341 0.0186,-0.0186 0.04237,-0.02894 0.02377,-0.01137 0.05168,-0.01137 h 0.75241 q 0.02584,0 0.04444,0.0093 0.01964,0.0083 0.03204,0.02274 0.01344,0.01447 0.01964,0.03307 0.0062,0.01757 0.0062,0.03721 0,0.0186 -0.0062,0.03721 -0.0062,0.0186 -0.01964,0.03307 -0.0124,0.01447 -0.03204,0.02377 -0.0186,0.0083 -0.04444,0.0083 H 85.61901 v 0.41858 h 0.574642 q 0.02584,0 0.04548,0.0093 0.01964,0.0083 0.03204,0.02274 0.01344,0.01447 0.01964,0.03307 0.0062,0.01757 0.0062,0.03721 0,0.0186 -0.0072,0.03721 -0.0062,0.0186 -0.01964,0.03307 -0.0124,0.01447 -0.03204,0.02377 -0.0186,0.0083 -0.04444,0.0083 H 85.61901 v 0.45372 h 0.636654 q 0.02584,0 0.04444,0.0093 0.01964,0.0083 0.03204,0.02274 0.01344,0.01447 0.01964,0.03307 0.0062,0.01757 0.0062,0.03721 0,0.0186 -0.0062,0.03721 -0.0062,0.0186 -0.01964,0.03307 -0.0124,0.01447 -0.03204,0.02377 -0.0186,0.0083 -0.04444,0.0083 z"
       style="font-style:normal;font-variant:normal;font-weight:normal;font-stretch:normal;font-size:2.11667px;line-height:1.15;font-family:Nunito;-inkscape-font-specification:Nunito;fill:#ffffff;stroke-width:0.264583"
       id="path144" />
    <path
       d="m 84.057346,86.134758 q -0.02687,0 -0.04754,-0.0083 -0.01964,-0.0093 -0.03307,-0.02377 -0.0124,-0.01447 -0.01964,-0.03307 -0.0062,-0.0186 -0.0062,-0.03824 0,-0.01964 0.0062,-0.03824 0.0072,-0.01964 0.02067,-0.03411 0.01344,-0.01447 0.03307,-0.02377 0.01964,-0.0093 0.04651,-0.0093 h 0.976686 q 0.02584,0 0.04548,0.0093 0.01964,0.0093 0.03307,0.02377 0.01344,0.01447 0.01964,0.03307 0.0072,0.0186 0.0072,0.03824 0,0.01964 -0.0072,0.03824 -0.0062,0.0186 -0.01964,0.03411 -0.0124,0.01447 -0.03307,0.02377 -0.01964,0.0083 -0.04548,0.0083 h -0.347266 v 1.144118 q 0,0.03307 -0.0124,0.05891 -0.01137,0.0248 -0.03101,0.04237 -0.01964,0.01654 -0.04444,0.02481 -0.02481,0.0083 -0.05064,0.0083 -0.02584,0 -0.05064,-0.0083 -0.02481,-0.0083 -0.04444,-0.02481 -0.01964,-0.01757 -0.03204,-0.04237 -0.01137,-0.02584 -0.01137,-0.05891 v -1.144118 z"
       style="font-style:normal;font-variant:normal;font-weight:normal;font-stretch:normal;font-size:2.11667px;line-height:1.15;font-family:Nunito;-inkscape-font-specification:Nunito;fill:#ffffff;stroke-width:0.264583"
       id="path142" />
    <path
       d="m 82.769567,86.670126 q 0,0.124024 0.02377,0.229444 0.02481,0.104386 0.07648,0.180868 0.05168,0.07545 0.131259,0.118856 0.07958,0.04237 0.190169,0.04237 0.110588,0 0.19017,-0.04237 0.07958,-0.04341 0.131258,-0.118856 0.05168,-0.07648 0.07648,-0.180868 0.02481,-0.10542 0.02481,-0.229444 0,-0.12299 -0.02481,-0.227376 -0.02377,-0.105421 -0.07545,-0.181902 -0.05168,-0.07648 -0.132292,-0.119889 -0.07958,-0.04341 -0.19017,-0.04341 -0.110588,0 -0.191203,0.04341 -0.07958,0.04341 -0.131258,0.119889 -0.05064,0.07648 -0.07545,0.181902 -0.02377,0.104386 -0.02377,0.227376 z m -0.292489,0 q 0,-0.173633 0.04651,-0.31626 0.04651,-0.143661 0.136426,-0.24598 0.09095,-0.10232 0.224276,-0.15813 0.133325,-0.05684 0.306958,-0.05684 0.174667,0 0.307992,0.05684 0.133326,0.05581 0.223243,0.15813 0.09095,0.102319 0.136426,0.24598 0.04651,0.142627 0.04651,0.31626 0,0.173633 -0.04651,0.31626 -0.04548,0.142628 -0.136426,0.244947 -0.08992,0.10232 -0.223243,0.159164 -0.133325,0.05581 -0.307992,0.05581 -0.173633,0 -0.306958,-0.05581 -0.133326,-0.05684 -0.224276,-0.159164 -0.08992,-0.102319 -0.136426,-0.244947 -0.04651,-0.142627 -0.04651,-0.31626 z"
       style="font-style:normal;font-variant:normal;font-weight:normal;font-stretch:normal;font-size:2.11667px;line-height:1.15;font-family:Nunito;-inkscape-font-specification:Nunito;fill:#ffffff;stroke-width:0.264583"
       id="path140" />
    <path
       d="m 80.930917,86.091349 q 0,-0.03927 0.01137,-0.06925 0.0124,-0.03101 0.03307,-0.05168 0.02067,-0.0217 0.04651,-0.03204 0.02687,-0.01137 0.05684,-0.01137 0.03928,0 0.07752,0.01964 0.03927,0.01964 0.07131,0.05994 l 0.722437,1.040765 v -1.003558 q 0,-0.02894 0.01034,-0.05064 0.01033,-0.02274 0.02687,-0.03721 0.01757,-0.01447 0.03928,-0.0217 0.02274,-0.0083 0.04547,-0.0083 0.02274,0 0.04444,0.0072 0.0217,0.0072 0.03824,0.02274 0.01757,0.01447 0.02791,0.03721 0.01033,0.0217 0.01033,0.05064 v 1.204063 q 0,0.03927 -0.0124,0.07028 -0.0124,0.02997 -0.03307,0.05064 -0.02067,0.02067 -0.04858,0.03204 -0.02687,0.01137 -0.05684,0.01137 -0.03824,0 -0.07751,-0.0186 -0.03824,-0.01964 -0.07131,-0.06098 L 81.17483,86.297022 v 0.99839 q 0,0.02894 -0.01137,0.05064 -0.01033,0.0217 -0.02791,0.03721 -0.01654,0.01447 -0.03927,0.0217 -0.0217,0.0072 -0.04444,0.0072 -0.02274,0 -0.04444,-0.0072 -0.0217,-0.0072 -0.03927,-0.0217 -0.01654,-0.01447 -0.02687,-0.03617 -0.01034,-0.0217 -0.01034,-0.05168 z"
       style="font-style:normal;font-variant:normal;font-weight:normal;font-stretch:normal;font-size:2.11667px;line-height:1.15;font-family:Nunito;-inkscape-font-specification:Nunito;fill:#ffffff;stroke-width:0.264583"
       id="path138" />
    <path
       inkscape:connector-curvature="0"
       id="path4523"
       d="m 71.42837,158.33674 c 0,0.0733 0.06038,0.1337 0.138011,0.1337 0.07332,0 0.133699,-0.0604 0.133699,-0.1337 v -0.67281 l 0.552048,0.72456 c 0.03882,0.0474 0.07763,0.0819 0.146638,0.0819 h 0.0086 c 0.07763,0 0.138011,-0.0604 0.138011,-0.13801 v -1.00059 c 0,-0.0776 -0.06038,-0.13801 -0.138011,-0.13801 -0.07332,0 -0.138012,0.0604 -0.138012,0.13801 v 0.64693 l -0.530488,-0.69868 c -0.03882,-0.0474 -0.07763,-0.0819 -0.142325,-0.0819 h -0.03019 c -0.07763,0 -0.138012,0.0604 -0.138012,0.13801 z m 0,0"
       style="fill:#000000;fill-opacity:1;stroke:none;stroke-width:0.276024" />
  </g>
</svg>
